%TF.GenerationSoftware,KiCad,Pcbnew,10.0.1*%
%TF.CreationDate,2026-05-15T14:17:26+10:00*%
%TF.ProjectId,Linear_Acuator_Control,4c696e65-6172-45f4-9163-7561746f725f,rev?*%
%TF.SameCoordinates,Original*%
%TF.FileFunction,Legend,Bot*%
%TF.FilePolarity,Positive*%
%FSLAX46Y46*%
G04 Gerber Fmt 4.6, Leading zero omitted, Abs format (unit mm)*
G04 Created by KiCad (PCBNEW 10.0.1) date 2026-05-15 14:17:26*
%MOMM*%
%LPD*%
G01*
G04 APERTURE LIST*
%ADD10C,0.100000*%
%ADD11C,0.150000*%
G04 APERTURE END LIST*
D10*
X82200000Y-79000000D02*
X88600000Y-79000000D01*
X88600000Y-79000000D02*
X89400000Y-80400000D01*
X89400000Y-80400000D02*
X90400000Y-80400000D01*
D11*
X88412970Y-77669819D02*
X87793923Y-77669819D01*
X87793923Y-77669819D02*
X88127256Y-78050771D01*
X88127256Y-78050771D02*
X87984399Y-78050771D01*
X87984399Y-78050771D02*
X87889161Y-78098390D01*
X87889161Y-78098390D02*
X87841542Y-78146009D01*
X87841542Y-78146009D02*
X87793923Y-78241247D01*
X87793923Y-78241247D02*
X87793923Y-78479342D01*
X87793923Y-78479342D02*
X87841542Y-78574580D01*
X87841542Y-78574580D02*
X87889161Y-78622200D01*
X87889161Y-78622200D02*
X87984399Y-78669819D01*
X87984399Y-78669819D02*
X88270113Y-78669819D01*
X88270113Y-78669819D02*
X88365351Y-78622200D01*
X88365351Y-78622200D02*
X88412970Y-78574580D01*
X86936780Y-77669819D02*
X87127256Y-77669819D01*
X87127256Y-77669819D02*
X87222494Y-77717438D01*
X87222494Y-77717438D02*
X87270113Y-77765057D01*
X87270113Y-77765057D02*
X87365351Y-77907914D01*
X87365351Y-77907914D02*
X87412970Y-78098390D01*
X87412970Y-78098390D02*
X87412970Y-78479342D01*
X87412970Y-78479342D02*
X87365351Y-78574580D01*
X87365351Y-78574580D02*
X87317732Y-78622200D01*
X87317732Y-78622200D02*
X87222494Y-78669819D01*
X87222494Y-78669819D02*
X87032018Y-78669819D01*
X87032018Y-78669819D02*
X86936780Y-78622200D01*
X86936780Y-78622200D02*
X86889161Y-78574580D01*
X86889161Y-78574580D02*
X86841542Y-78479342D01*
X86841542Y-78479342D02*
X86841542Y-78241247D01*
X86841542Y-78241247D02*
X86889161Y-78146009D01*
X86889161Y-78146009D02*
X86936780Y-78098390D01*
X86936780Y-78098390D02*
X87032018Y-78050771D01*
X87032018Y-78050771D02*
X87222494Y-78050771D01*
X87222494Y-78050771D02*
X87317732Y-78098390D01*
X87317732Y-78098390D02*
X87365351Y-78146009D01*
X87365351Y-78146009D02*
X87412970Y-78241247D01*
X85651065Y-78288866D02*
X84889161Y-78288866D01*
X83651065Y-78669819D02*
X83651065Y-77669819D01*
X83651065Y-77669819D02*
X83412970Y-77669819D01*
X83412970Y-77669819D02*
X83270113Y-77717438D01*
X83270113Y-77717438D02*
X83174875Y-77812676D01*
X83174875Y-77812676D02*
X83127256Y-77907914D01*
X83127256Y-77907914D02*
X83079637Y-78098390D01*
X83079637Y-78098390D02*
X83079637Y-78241247D01*
X83079637Y-78241247D02*
X83127256Y-78431723D01*
X83127256Y-78431723D02*
X83174875Y-78526961D01*
X83174875Y-78526961D02*
X83270113Y-78622200D01*
X83270113Y-78622200D02*
X83412970Y-78669819D01*
X83412970Y-78669819D02*
X83651065Y-78669819D01*
X82651065Y-78669819D02*
X82651065Y-78003152D01*
X82651065Y-77669819D02*
X82698684Y-77717438D01*
X82698684Y-77717438D02*
X82651065Y-77765057D01*
X82651065Y-77765057D02*
X82603446Y-77717438D01*
X82603446Y-77717438D02*
X82651065Y-77669819D01*
X82651065Y-77669819D02*
X82651065Y-77765057D01*
X82174875Y-78669819D02*
X82174875Y-78003152D01*
X82174875Y-78193628D02*
X82127256Y-78098390D01*
X82127256Y-78098390D02*
X82079637Y-78050771D01*
X82079637Y-78050771D02*
X81984399Y-78003152D01*
X81984399Y-78003152D02*
X81889161Y-78003152D01*
X81174875Y-78622200D02*
X81270113Y-78669819D01*
X81270113Y-78669819D02*
X81460589Y-78669819D01*
X81460589Y-78669819D02*
X81555827Y-78622200D01*
X81555827Y-78622200D02*
X81603446Y-78526961D01*
X81603446Y-78526961D02*
X81603446Y-78146009D01*
X81603446Y-78146009D02*
X81555827Y-78050771D01*
X81555827Y-78050771D02*
X81460589Y-78003152D01*
X81460589Y-78003152D02*
X81270113Y-78003152D01*
X81270113Y-78003152D02*
X81174875Y-78050771D01*
X81174875Y-78050771D02*
X81127256Y-78146009D01*
X81127256Y-78146009D02*
X81127256Y-78241247D01*
X81127256Y-78241247D02*
X81603446Y-78336485D01*
X80270113Y-78622200D02*
X80365351Y-78669819D01*
X80365351Y-78669819D02*
X80555827Y-78669819D01*
X80555827Y-78669819D02*
X80651065Y-78622200D01*
X80651065Y-78622200D02*
X80698684Y-78574580D01*
X80698684Y-78574580D02*
X80746303Y-78479342D01*
X80746303Y-78479342D02*
X80746303Y-78193628D01*
X80746303Y-78193628D02*
X80698684Y-78098390D01*
X80698684Y-78098390D02*
X80651065Y-78050771D01*
X80651065Y-78050771D02*
X80555827Y-78003152D01*
X80555827Y-78003152D02*
X80365351Y-78003152D01*
X80365351Y-78003152D02*
X80270113Y-78050771D01*
X79984398Y-78003152D02*
X79603446Y-78003152D01*
X79841541Y-77669819D02*
X79841541Y-78526961D01*
X79841541Y-78526961D02*
X79793922Y-78622200D01*
X79793922Y-78622200D02*
X79698684Y-78669819D01*
X79698684Y-78669819D02*
X79603446Y-78669819D01*
X79270112Y-78669819D02*
X79270112Y-78003152D01*
X79270112Y-77669819D02*
X79317731Y-77717438D01*
X79317731Y-77717438D02*
X79270112Y-77765057D01*
X79270112Y-77765057D02*
X79222493Y-77717438D01*
X79222493Y-77717438D02*
X79270112Y-77669819D01*
X79270112Y-77669819D02*
X79270112Y-77765057D01*
X78651065Y-78669819D02*
X78746303Y-78622200D01*
X78746303Y-78622200D02*
X78793922Y-78574580D01*
X78793922Y-78574580D02*
X78841541Y-78479342D01*
X78841541Y-78479342D02*
X78841541Y-78193628D01*
X78841541Y-78193628D02*
X78793922Y-78098390D01*
X78793922Y-78098390D02*
X78746303Y-78050771D01*
X78746303Y-78050771D02*
X78651065Y-78003152D01*
X78651065Y-78003152D02*
X78508208Y-78003152D01*
X78508208Y-78003152D02*
X78412970Y-78050771D01*
X78412970Y-78050771D02*
X78365351Y-78098390D01*
X78365351Y-78098390D02*
X78317732Y-78193628D01*
X78317732Y-78193628D02*
X78317732Y-78479342D01*
X78317732Y-78479342D02*
X78365351Y-78574580D01*
X78365351Y-78574580D02*
X78412970Y-78622200D01*
X78412970Y-78622200D02*
X78508208Y-78669819D01*
X78508208Y-78669819D02*
X78651065Y-78669819D01*
X77889160Y-78003152D02*
X77889160Y-78669819D01*
X77889160Y-78098390D02*
X77841541Y-78050771D01*
X77841541Y-78050771D02*
X77746303Y-78003152D01*
X77746303Y-78003152D02*
X77603446Y-78003152D01*
X77603446Y-78003152D02*
X77508208Y-78050771D01*
X77508208Y-78050771D02*
X77460589Y-78146009D01*
X77460589Y-78146009D02*
X77460589Y-78669819D01*
X75746303Y-78669819D02*
X76222493Y-78669819D01*
X76222493Y-78669819D02*
X76222493Y-77669819D01*
X74889160Y-78669819D02*
X75460588Y-78669819D01*
X75174874Y-78669819D02*
X75174874Y-77669819D01*
X75174874Y-77669819D02*
X75270112Y-77812676D01*
X75270112Y-77812676D02*
X75365350Y-77907914D01*
X75365350Y-77907914D02*
X75460588Y-77955533D01*
X89289161Y-92703152D02*
X89289161Y-93369819D01*
X89527256Y-92322200D02*
X89765351Y-93036485D01*
X89765351Y-93036485D02*
X89146304Y-93036485D01*
X88860589Y-92369819D02*
X88193923Y-92369819D01*
X88193923Y-92369819D02*
X88622494Y-93369819D01*
X87051065Y-92988866D02*
X86289161Y-92988866D01*
X85051065Y-93369819D02*
X85051065Y-92369819D01*
X85051065Y-92369819D02*
X84812970Y-92369819D01*
X84812970Y-92369819D02*
X84670113Y-92417438D01*
X84670113Y-92417438D02*
X84574875Y-92512676D01*
X84574875Y-92512676D02*
X84527256Y-92607914D01*
X84527256Y-92607914D02*
X84479637Y-92798390D01*
X84479637Y-92798390D02*
X84479637Y-92941247D01*
X84479637Y-92941247D02*
X84527256Y-93131723D01*
X84527256Y-93131723D02*
X84574875Y-93226961D01*
X84574875Y-93226961D02*
X84670113Y-93322200D01*
X84670113Y-93322200D02*
X84812970Y-93369819D01*
X84812970Y-93369819D02*
X85051065Y-93369819D01*
X84051065Y-93369819D02*
X84051065Y-92703152D01*
X84051065Y-92369819D02*
X84098684Y-92417438D01*
X84098684Y-92417438D02*
X84051065Y-92465057D01*
X84051065Y-92465057D02*
X84003446Y-92417438D01*
X84003446Y-92417438D02*
X84051065Y-92369819D01*
X84051065Y-92369819D02*
X84051065Y-92465057D01*
X83574875Y-93369819D02*
X83574875Y-92703152D01*
X83574875Y-92893628D02*
X83527256Y-92798390D01*
X83527256Y-92798390D02*
X83479637Y-92750771D01*
X83479637Y-92750771D02*
X83384399Y-92703152D01*
X83384399Y-92703152D02*
X83289161Y-92703152D01*
X82574875Y-93322200D02*
X82670113Y-93369819D01*
X82670113Y-93369819D02*
X82860589Y-93369819D01*
X82860589Y-93369819D02*
X82955827Y-93322200D01*
X82955827Y-93322200D02*
X83003446Y-93226961D01*
X83003446Y-93226961D02*
X83003446Y-92846009D01*
X83003446Y-92846009D02*
X82955827Y-92750771D01*
X82955827Y-92750771D02*
X82860589Y-92703152D01*
X82860589Y-92703152D02*
X82670113Y-92703152D01*
X82670113Y-92703152D02*
X82574875Y-92750771D01*
X82574875Y-92750771D02*
X82527256Y-92846009D01*
X82527256Y-92846009D02*
X82527256Y-92941247D01*
X82527256Y-92941247D02*
X83003446Y-93036485D01*
X81670113Y-93322200D02*
X81765351Y-93369819D01*
X81765351Y-93369819D02*
X81955827Y-93369819D01*
X81955827Y-93369819D02*
X82051065Y-93322200D01*
X82051065Y-93322200D02*
X82098684Y-93274580D01*
X82098684Y-93274580D02*
X82146303Y-93179342D01*
X82146303Y-93179342D02*
X82146303Y-92893628D01*
X82146303Y-92893628D02*
X82098684Y-92798390D01*
X82098684Y-92798390D02*
X82051065Y-92750771D01*
X82051065Y-92750771D02*
X81955827Y-92703152D01*
X81955827Y-92703152D02*
X81765351Y-92703152D01*
X81765351Y-92703152D02*
X81670113Y-92750771D01*
X81384398Y-92703152D02*
X81003446Y-92703152D01*
X81241541Y-92369819D02*
X81241541Y-93226961D01*
X81241541Y-93226961D02*
X81193922Y-93322200D01*
X81193922Y-93322200D02*
X81098684Y-93369819D01*
X81098684Y-93369819D02*
X81003446Y-93369819D01*
X80670112Y-93369819D02*
X80670112Y-92703152D01*
X80670112Y-92369819D02*
X80717731Y-92417438D01*
X80717731Y-92417438D02*
X80670112Y-92465057D01*
X80670112Y-92465057D02*
X80622493Y-92417438D01*
X80622493Y-92417438D02*
X80670112Y-92369819D01*
X80670112Y-92369819D02*
X80670112Y-92465057D01*
X80051065Y-93369819D02*
X80146303Y-93322200D01*
X80146303Y-93322200D02*
X80193922Y-93274580D01*
X80193922Y-93274580D02*
X80241541Y-93179342D01*
X80241541Y-93179342D02*
X80241541Y-92893628D01*
X80241541Y-92893628D02*
X80193922Y-92798390D01*
X80193922Y-92798390D02*
X80146303Y-92750771D01*
X80146303Y-92750771D02*
X80051065Y-92703152D01*
X80051065Y-92703152D02*
X79908208Y-92703152D01*
X79908208Y-92703152D02*
X79812970Y-92750771D01*
X79812970Y-92750771D02*
X79765351Y-92798390D01*
X79765351Y-92798390D02*
X79717732Y-92893628D01*
X79717732Y-92893628D02*
X79717732Y-93179342D01*
X79717732Y-93179342D02*
X79765351Y-93274580D01*
X79765351Y-93274580D02*
X79812970Y-93322200D01*
X79812970Y-93322200D02*
X79908208Y-93369819D01*
X79908208Y-93369819D02*
X80051065Y-93369819D01*
X79289160Y-92703152D02*
X79289160Y-93369819D01*
X79289160Y-92798390D02*
X79241541Y-92750771D01*
X79241541Y-92750771D02*
X79146303Y-92703152D01*
X79146303Y-92703152D02*
X79003446Y-92703152D01*
X79003446Y-92703152D02*
X78908208Y-92750771D01*
X78908208Y-92750771D02*
X78860589Y-92846009D01*
X78860589Y-92846009D02*
X78860589Y-93369819D01*
X77146303Y-93369819D02*
X77622493Y-93369819D01*
X77622493Y-93369819D02*
X77622493Y-92369819D01*
X76860588Y-92465057D02*
X76812969Y-92417438D01*
X76812969Y-92417438D02*
X76717731Y-92369819D01*
X76717731Y-92369819D02*
X76479636Y-92369819D01*
X76479636Y-92369819D02*
X76384398Y-92417438D01*
X76384398Y-92417438D02*
X76336779Y-92465057D01*
X76336779Y-92465057D02*
X76289160Y-92560295D01*
X76289160Y-92560295D02*
X76289160Y-92655533D01*
X76289160Y-92655533D02*
X76336779Y-92798390D01*
X76336779Y-92798390D02*
X76908207Y-93369819D01*
X76908207Y-93369819D02*
X76289160Y-93369819D01*
X89872494Y-71869819D02*
X89253447Y-71869819D01*
X89253447Y-71869819D02*
X89586780Y-72250771D01*
X89586780Y-72250771D02*
X89443923Y-72250771D01*
X89443923Y-72250771D02*
X89348685Y-72298390D01*
X89348685Y-72298390D02*
X89301066Y-72346009D01*
X89301066Y-72346009D02*
X89253447Y-72441247D01*
X89253447Y-72441247D02*
X89253447Y-72679342D01*
X89253447Y-72679342D02*
X89301066Y-72774580D01*
X89301066Y-72774580D02*
X89348685Y-72822200D01*
X89348685Y-72822200D02*
X89443923Y-72869819D01*
X89443923Y-72869819D02*
X89729637Y-72869819D01*
X89729637Y-72869819D02*
X89824875Y-72822200D01*
X89824875Y-72822200D02*
X89872494Y-72774580D01*
X88777256Y-72869819D02*
X88586780Y-72869819D01*
X88586780Y-72869819D02*
X88491542Y-72822200D01*
X88491542Y-72822200D02*
X88443923Y-72774580D01*
X88443923Y-72774580D02*
X88348685Y-72631723D01*
X88348685Y-72631723D02*
X88301066Y-72441247D01*
X88301066Y-72441247D02*
X88301066Y-72060295D01*
X88301066Y-72060295D02*
X88348685Y-71965057D01*
X88348685Y-71965057D02*
X88396304Y-71917438D01*
X88396304Y-71917438D02*
X88491542Y-71869819D01*
X88491542Y-71869819D02*
X88682018Y-71869819D01*
X88682018Y-71869819D02*
X88777256Y-71917438D01*
X88777256Y-71917438D02*
X88824875Y-71965057D01*
X88824875Y-71965057D02*
X88872494Y-72060295D01*
X88872494Y-72060295D02*
X88872494Y-72298390D01*
X88872494Y-72298390D02*
X88824875Y-72393628D01*
X88824875Y-72393628D02*
X88777256Y-72441247D01*
X88777256Y-72441247D02*
X88682018Y-72488866D01*
X88682018Y-72488866D02*
X88491542Y-72488866D01*
X88491542Y-72488866D02*
X88396304Y-72441247D01*
X88396304Y-72441247D02*
X88348685Y-72393628D01*
X88348685Y-72393628D02*
X88301066Y-72298390D01*
X87110589Y-72488866D02*
X86348685Y-72488866D01*
X85158208Y-72822200D02*
X85015351Y-72869819D01*
X85015351Y-72869819D02*
X84777256Y-72869819D01*
X84777256Y-72869819D02*
X84682018Y-72822200D01*
X84682018Y-72822200D02*
X84634399Y-72774580D01*
X84634399Y-72774580D02*
X84586780Y-72679342D01*
X84586780Y-72679342D02*
X84586780Y-72584104D01*
X84586780Y-72584104D02*
X84634399Y-72488866D01*
X84634399Y-72488866D02*
X84682018Y-72441247D01*
X84682018Y-72441247D02*
X84777256Y-72393628D01*
X84777256Y-72393628D02*
X84967732Y-72346009D01*
X84967732Y-72346009D02*
X85062970Y-72298390D01*
X85062970Y-72298390D02*
X85110589Y-72250771D01*
X85110589Y-72250771D02*
X85158208Y-72155533D01*
X85158208Y-72155533D02*
X85158208Y-72060295D01*
X85158208Y-72060295D02*
X85110589Y-71965057D01*
X85110589Y-71965057D02*
X85062970Y-71917438D01*
X85062970Y-71917438D02*
X84967732Y-71869819D01*
X84967732Y-71869819D02*
X84729637Y-71869819D01*
X84729637Y-71869819D02*
X84586780Y-71917438D01*
X84158208Y-72203152D02*
X84158208Y-73203152D01*
X84158208Y-72250771D02*
X84062970Y-72203152D01*
X84062970Y-72203152D02*
X83872494Y-72203152D01*
X83872494Y-72203152D02*
X83777256Y-72250771D01*
X83777256Y-72250771D02*
X83729637Y-72298390D01*
X83729637Y-72298390D02*
X83682018Y-72393628D01*
X83682018Y-72393628D02*
X83682018Y-72679342D01*
X83682018Y-72679342D02*
X83729637Y-72774580D01*
X83729637Y-72774580D02*
X83777256Y-72822200D01*
X83777256Y-72822200D02*
X83872494Y-72869819D01*
X83872494Y-72869819D02*
X84062970Y-72869819D01*
X84062970Y-72869819D02*
X84158208Y-72822200D01*
X82872494Y-72822200D02*
X82967732Y-72869819D01*
X82967732Y-72869819D02*
X83158208Y-72869819D01*
X83158208Y-72869819D02*
X83253446Y-72822200D01*
X83253446Y-72822200D02*
X83301065Y-72726961D01*
X83301065Y-72726961D02*
X83301065Y-72346009D01*
X83301065Y-72346009D02*
X83253446Y-72250771D01*
X83253446Y-72250771D02*
X83158208Y-72203152D01*
X83158208Y-72203152D02*
X82967732Y-72203152D01*
X82967732Y-72203152D02*
X82872494Y-72250771D01*
X82872494Y-72250771D02*
X82824875Y-72346009D01*
X82824875Y-72346009D02*
X82824875Y-72441247D01*
X82824875Y-72441247D02*
X83301065Y-72536485D01*
X82015351Y-72822200D02*
X82110589Y-72869819D01*
X82110589Y-72869819D02*
X82301065Y-72869819D01*
X82301065Y-72869819D02*
X82396303Y-72822200D01*
X82396303Y-72822200D02*
X82443922Y-72726961D01*
X82443922Y-72726961D02*
X82443922Y-72346009D01*
X82443922Y-72346009D02*
X82396303Y-72250771D01*
X82396303Y-72250771D02*
X82301065Y-72203152D01*
X82301065Y-72203152D02*
X82110589Y-72203152D01*
X82110589Y-72203152D02*
X82015351Y-72250771D01*
X82015351Y-72250771D02*
X81967732Y-72346009D01*
X81967732Y-72346009D02*
X81967732Y-72441247D01*
X81967732Y-72441247D02*
X82443922Y-72536485D01*
X81110589Y-72869819D02*
X81110589Y-71869819D01*
X81110589Y-72822200D02*
X81205827Y-72869819D01*
X81205827Y-72869819D02*
X81396303Y-72869819D01*
X81396303Y-72869819D02*
X81491541Y-72822200D01*
X81491541Y-72822200D02*
X81539160Y-72774580D01*
X81539160Y-72774580D02*
X81586779Y-72679342D01*
X81586779Y-72679342D02*
X81586779Y-72393628D01*
X81586779Y-72393628D02*
X81539160Y-72298390D01*
X81539160Y-72298390D02*
X81491541Y-72250771D01*
X81491541Y-72250771D02*
X81396303Y-72203152D01*
X81396303Y-72203152D02*
X81205827Y-72203152D01*
X81205827Y-72203152D02*
X81110589Y-72250771D01*
X79396303Y-72869819D02*
X79872493Y-72869819D01*
X79872493Y-72869819D02*
X79872493Y-71869819D01*
X78539160Y-72869819D02*
X79110588Y-72869819D01*
X78824874Y-72869819D02*
X78824874Y-71869819D01*
X78824874Y-71869819D02*
X78920112Y-72012676D01*
X78920112Y-72012676D02*
X79015350Y-72107914D01*
X79015350Y-72107914D02*
X79110588Y-72155533D01*
X89872494Y-74869819D02*
X89253447Y-74869819D01*
X89253447Y-74869819D02*
X89586780Y-75250771D01*
X89586780Y-75250771D02*
X89443923Y-75250771D01*
X89443923Y-75250771D02*
X89348685Y-75298390D01*
X89348685Y-75298390D02*
X89301066Y-75346009D01*
X89301066Y-75346009D02*
X89253447Y-75441247D01*
X89253447Y-75441247D02*
X89253447Y-75679342D01*
X89253447Y-75679342D02*
X89301066Y-75774580D01*
X89301066Y-75774580D02*
X89348685Y-75822200D01*
X89348685Y-75822200D02*
X89443923Y-75869819D01*
X89443923Y-75869819D02*
X89729637Y-75869819D01*
X89729637Y-75869819D02*
X89824875Y-75822200D01*
X89824875Y-75822200D02*
X89872494Y-75774580D01*
X88682018Y-75298390D02*
X88777256Y-75250771D01*
X88777256Y-75250771D02*
X88824875Y-75203152D01*
X88824875Y-75203152D02*
X88872494Y-75107914D01*
X88872494Y-75107914D02*
X88872494Y-75060295D01*
X88872494Y-75060295D02*
X88824875Y-74965057D01*
X88824875Y-74965057D02*
X88777256Y-74917438D01*
X88777256Y-74917438D02*
X88682018Y-74869819D01*
X88682018Y-74869819D02*
X88491542Y-74869819D01*
X88491542Y-74869819D02*
X88396304Y-74917438D01*
X88396304Y-74917438D02*
X88348685Y-74965057D01*
X88348685Y-74965057D02*
X88301066Y-75060295D01*
X88301066Y-75060295D02*
X88301066Y-75107914D01*
X88301066Y-75107914D02*
X88348685Y-75203152D01*
X88348685Y-75203152D02*
X88396304Y-75250771D01*
X88396304Y-75250771D02*
X88491542Y-75298390D01*
X88491542Y-75298390D02*
X88682018Y-75298390D01*
X88682018Y-75298390D02*
X88777256Y-75346009D01*
X88777256Y-75346009D02*
X88824875Y-75393628D01*
X88824875Y-75393628D02*
X88872494Y-75488866D01*
X88872494Y-75488866D02*
X88872494Y-75679342D01*
X88872494Y-75679342D02*
X88824875Y-75774580D01*
X88824875Y-75774580D02*
X88777256Y-75822200D01*
X88777256Y-75822200D02*
X88682018Y-75869819D01*
X88682018Y-75869819D02*
X88491542Y-75869819D01*
X88491542Y-75869819D02*
X88396304Y-75822200D01*
X88396304Y-75822200D02*
X88348685Y-75774580D01*
X88348685Y-75774580D02*
X88301066Y-75679342D01*
X88301066Y-75679342D02*
X88301066Y-75488866D01*
X88301066Y-75488866D02*
X88348685Y-75393628D01*
X88348685Y-75393628D02*
X88396304Y-75346009D01*
X88396304Y-75346009D02*
X88491542Y-75298390D01*
X87110589Y-75488866D02*
X86348685Y-75488866D01*
X85158208Y-75822200D02*
X85015351Y-75869819D01*
X85015351Y-75869819D02*
X84777256Y-75869819D01*
X84777256Y-75869819D02*
X84682018Y-75822200D01*
X84682018Y-75822200D02*
X84634399Y-75774580D01*
X84634399Y-75774580D02*
X84586780Y-75679342D01*
X84586780Y-75679342D02*
X84586780Y-75584104D01*
X84586780Y-75584104D02*
X84634399Y-75488866D01*
X84634399Y-75488866D02*
X84682018Y-75441247D01*
X84682018Y-75441247D02*
X84777256Y-75393628D01*
X84777256Y-75393628D02*
X84967732Y-75346009D01*
X84967732Y-75346009D02*
X85062970Y-75298390D01*
X85062970Y-75298390D02*
X85110589Y-75250771D01*
X85110589Y-75250771D02*
X85158208Y-75155533D01*
X85158208Y-75155533D02*
X85158208Y-75060295D01*
X85158208Y-75060295D02*
X85110589Y-74965057D01*
X85110589Y-74965057D02*
X85062970Y-74917438D01*
X85062970Y-74917438D02*
X84967732Y-74869819D01*
X84967732Y-74869819D02*
X84729637Y-74869819D01*
X84729637Y-74869819D02*
X84586780Y-74917438D01*
X84158208Y-75203152D02*
X84158208Y-76203152D01*
X84158208Y-75250771D02*
X84062970Y-75203152D01*
X84062970Y-75203152D02*
X83872494Y-75203152D01*
X83872494Y-75203152D02*
X83777256Y-75250771D01*
X83777256Y-75250771D02*
X83729637Y-75298390D01*
X83729637Y-75298390D02*
X83682018Y-75393628D01*
X83682018Y-75393628D02*
X83682018Y-75679342D01*
X83682018Y-75679342D02*
X83729637Y-75774580D01*
X83729637Y-75774580D02*
X83777256Y-75822200D01*
X83777256Y-75822200D02*
X83872494Y-75869819D01*
X83872494Y-75869819D02*
X84062970Y-75869819D01*
X84062970Y-75869819D02*
X84158208Y-75822200D01*
X82872494Y-75822200D02*
X82967732Y-75869819D01*
X82967732Y-75869819D02*
X83158208Y-75869819D01*
X83158208Y-75869819D02*
X83253446Y-75822200D01*
X83253446Y-75822200D02*
X83301065Y-75726961D01*
X83301065Y-75726961D02*
X83301065Y-75346009D01*
X83301065Y-75346009D02*
X83253446Y-75250771D01*
X83253446Y-75250771D02*
X83158208Y-75203152D01*
X83158208Y-75203152D02*
X82967732Y-75203152D01*
X82967732Y-75203152D02*
X82872494Y-75250771D01*
X82872494Y-75250771D02*
X82824875Y-75346009D01*
X82824875Y-75346009D02*
X82824875Y-75441247D01*
X82824875Y-75441247D02*
X83301065Y-75536485D01*
X82015351Y-75822200D02*
X82110589Y-75869819D01*
X82110589Y-75869819D02*
X82301065Y-75869819D01*
X82301065Y-75869819D02*
X82396303Y-75822200D01*
X82396303Y-75822200D02*
X82443922Y-75726961D01*
X82443922Y-75726961D02*
X82443922Y-75346009D01*
X82443922Y-75346009D02*
X82396303Y-75250771D01*
X82396303Y-75250771D02*
X82301065Y-75203152D01*
X82301065Y-75203152D02*
X82110589Y-75203152D01*
X82110589Y-75203152D02*
X82015351Y-75250771D01*
X82015351Y-75250771D02*
X81967732Y-75346009D01*
X81967732Y-75346009D02*
X81967732Y-75441247D01*
X81967732Y-75441247D02*
X82443922Y-75536485D01*
X81110589Y-75869819D02*
X81110589Y-74869819D01*
X81110589Y-75822200D02*
X81205827Y-75869819D01*
X81205827Y-75869819D02*
X81396303Y-75869819D01*
X81396303Y-75869819D02*
X81491541Y-75822200D01*
X81491541Y-75822200D02*
X81539160Y-75774580D01*
X81539160Y-75774580D02*
X81586779Y-75679342D01*
X81586779Y-75679342D02*
X81586779Y-75393628D01*
X81586779Y-75393628D02*
X81539160Y-75298390D01*
X81539160Y-75298390D02*
X81491541Y-75250771D01*
X81491541Y-75250771D02*
X81396303Y-75203152D01*
X81396303Y-75203152D02*
X81205827Y-75203152D01*
X81205827Y-75203152D02*
X81110589Y-75250771D01*
X79396303Y-75869819D02*
X79872493Y-75869819D01*
X79872493Y-75869819D02*
X79872493Y-74869819D01*
X79110588Y-74965057D02*
X79062969Y-74917438D01*
X79062969Y-74917438D02*
X78967731Y-74869819D01*
X78967731Y-74869819D02*
X78729636Y-74869819D01*
X78729636Y-74869819D02*
X78634398Y-74917438D01*
X78634398Y-74917438D02*
X78586779Y-74965057D01*
X78586779Y-74965057D02*
X78539160Y-75060295D01*
X78539160Y-75060295D02*
X78539160Y-75155533D01*
X78539160Y-75155533D02*
X78586779Y-75298390D01*
X78586779Y-75298390D02*
X79158207Y-75869819D01*
X79158207Y-75869819D02*
X78539160Y-75869819D01*
X88884398Y-102417438D02*
X88979636Y-102369819D01*
X88979636Y-102369819D02*
X89122493Y-102369819D01*
X89122493Y-102369819D02*
X89265350Y-102417438D01*
X89265350Y-102417438D02*
X89360588Y-102512676D01*
X89360588Y-102512676D02*
X89408207Y-102607914D01*
X89408207Y-102607914D02*
X89455826Y-102798390D01*
X89455826Y-102798390D02*
X89455826Y-102941247D01*
X89455826Y-102941247D02*
X89408207Y-103131723D01*
X89408207Y-103131723D02*
X89360588Y-103226961D01*
X89360588Y-103226961D02*
X89265350Y-103322200D01*
X89265350Y-103322200D02*
X89122493Y-103369819D01*
X89122493Y-103369819D02*
X89027255Y-103369819D01*
X89027255Y-103369819D02*
X88884398Y-103322200D01*
X88884398Y-103322200D02*
X88836779Y-103274580D01*
X88836779Y-103274580D02*
X88836779Y-102941247D01*
X88836779Y-102941247D02*
X89027255Y-102941247D01*
X88408207Y-103369819D02*
X88408207Y-102369819D01*
X88408207Y-102369819D02*
X87836779Y-103369819D01*
X87836779Y-103369819D02*
X87836779Y-102369819D01*
X87360588Y-103369819D02*
X87360588Y-102369819D01*
X87360588Y-102369819D02*
X87122493Y-102369819D01*
X87122493Y-102369819D02*
X86979636Y-102417438D01*
X86979636Y-102417438D02*
X86884398Y-102512676D01*
X86884398Y-102512676D02*
X86836779Y-102607914D01*
X86836779Y-102607914D02*
X86789160Y-102798390D01*
X86789160Y-102798390D02*
X86789160Y-102941247D01*
X86789160Y-102941247D02*
X86836779Y-103131723D01*
X86836779Y-103131723D02*
X86884398Y-103226961D01*
X86884398Y-103226961D02*
X86979636Y-103322200D01*
X86979636Y-103322200D02*
X87122493Y-103369819D01*
X87122493Y-103369819D02*
X87360588Y-103369819D01*
X124704763Y-44454819D02*
X125180953Y-44454819D01*
X125180953Y-44454819D02*
X125180953Y-43454819D01*
X124371429Y-44454819D02*
X124371429Y-43788152D01*
X124371429Y-43454819D02*
X124419048Y-43502438D01*
X124419048Y-43502438D02*
X124371429Y-43550057D01*
X124371429Y-43550057D02*
X124323810Y-43502438D01*
X124323810Y-43502438D02*
X124371429Y-43454819D01*
X124371429Y-43454819D02*
X124371429Y-43550057D01*
X123895239Y-43788152D02*
X123895239Y-44454819D01*
X123895239Y-43883390D02*
X123847620Y-43835771D01*
X123847620Y-43835771D02*
X123752382Y-43788152D01*
X123752382Y-43788152D02*
X123609525Y-43788152D01*
X123609525Y-43788152D02*
X123514287Y-43835771D01*
X123514287Y-43835771D02*
X123466668Y-43931009D01*
X123466668Y-43931009D02*
X123466668Y-44454819D01*
X122609525Y-44407200D02*
X122704763Y-44454819D01*
X122704763Y-44454819D02*
X122895239Y-44454819D01*
X122895239Y-44454819D02*
X122990477Y-44407200D01*
X122990477Y-44407200D02*
X123038096Y-44311961D01*
X123038096Y-44311961D02*
X123038096Y-43931009D01*
X123038096Y-43931009D02*
X122990477Y-43835771D01*
X122990477Y-43835771D02*
X122895239Y-43788152D01*
X122895239Y-43788152D02*
X122704763Y-43788152D01*
X122704763Y-43788152D02*
X122609525Y-43835771D01*
X122609525Y-43835771D02*
X122561906Y-43931009D01*
X122561906Y-43931009D02*
X122561906Y-44026247D01*
X122561906Y-44026247D02*
X123038096Y-44121485D01*
X121704763Y-44454819D02*
X121704763Y-43931009D01*
X121704763Y-43931009D02*
X121752382Y-43835771D01*
X121752382Y-43835771D02*
X121847620Y-43788152D01*
X121847620Y-43788152D02*
X122038096Y-43788152D01*
X122038096Y-43788152D02*
X122133334Y-43835771D01*
X121704763Y-44407200D02*
X121800001Y-44454819D01*
X121800001Y-44454819D02*
X122038096Y-44454819D01*
X122038096Y-44454819D02*
X122133334Y-44407200D01*
X122133334Y-44407200D02*
X122180953Y-44311961D01*
X122180953Y-44311961D02*
X122180953Y-44216723D01*
X122180953Y-44216723D02*
X122133334Y-44121485D01*
X122133334Y-44121485D02*
X122038096Y-44073866D01*
X122038096Y-44073866D02*
X121800001Y-44073866D01*
X121800001Y-44073866D02*
X121704763Y-44026247D01*
X121228572Y-44454819D02*
X121228572Y-43788152D01*
X121228572Y-43978628D02*
X121180953Y-43883390D01*
X121180953Y-43883390D02*
X121133334Y-43835771D01*
X121133334Y-43835771D02*
X121038096Y-43788152D01*
X121038096Y-43788152D02*
X120942858Y-43788152D01*
X119895238Y-44169104D02*
X119419048Y-44169104D01*
X119990476Y-44454819D02*
X119657143Y-43454819D01*
X119657143Y-43454819D02*
X119323810Y-44454819D01*
X118561905Y-44407200D02*
X118657143Y-44454819D01*
X118657143Y-44454819D02*
X118847619Y-44454819D01*
X118847619Y-44454819D02*
X118942857Y-44407200D01*
X118942857Y-44407200D02*
X118990476Y-44359580D01*
X118990476Y-44359580D02*
X119038095Y-44264342D01*
X119038095Y-44264342D02*
X119038095Y-43978628D01*
X119038095Y-43978628D02*
X118990476Y-43883390D01*
X118990476Y-43883390D02*
X118942857Y-43835771D01*
X118942857Y-43835771D02*
X118847619Y-43788152D01*
X118847619Y-43788152D02*
X118657143Y-43788152D01*
X118657143Y-43788152D02*
X118561905Y-43835771D01*
X118276190Y-43788152D02*
X117895238Y-43788152D01*
X118133333Y-43454819D02*
X118133333Y-44311961D01*
X118133333Y-44311961D02*
X118085714Y-44407200D01*
X118085714Y-44407200D02*
X117990476Y-44454819D01*
X117990476Y-44454819D02*
X117895238Y-44454819D01*
X117133333Y-43788152D02*
X117133333Y-44454819D01*
X117561904Y-43788152D02*
X117561904Y-44311961D01*
X117561904Y-44311961D02*
X117514285Y-44407200D01*
X117514285Y-44407200D02*
X117419047Y-44454819D01*
X117419047Y-44454819D02*
X117276190Y-44454819D01*
X117276190Y-44454819D02*
X117180952Y-44407200D01*
X117180952Y-44407200D02*
X117133333Y-44359580D01*
X116228571Y-44454819D02*
X116228571Y-43931009D01*
X116228571Y-43931009D02*
X116276190Y-43835771D01*
X116276190Y-43835771D02*
X116371428Y-43788152D01*
X116371428Y-43788152D02*
X116561904Y-43788152D01*
X116561904Y-43788152D02*
X116657142Y-43835771D01*
X116228571Y-44407200D02*
X116323809Y-44454819D01*
X116323809Y-44454819D02*
X116561904Y-44454819D01*
X116561904Y-44454819D02*
X116657142Y-44407200D01*
X116657142Y-44407200D02*
X116704761Y-44311961D01*
X116704761Y-44311961D02*
X116704761Y-44216723D01*
X116704761Y-44216723D02*
X116657142Y-44121485D01*
X116657142Y-44121485D02*
X116561904Y-44073866D01*
X116561904Y-44073866D02*
X116323809Y-44073866D01*
X116323809Y-44073866D02*
X116228571Y-44026247D01*
X115895237Y-43788152D02*
X115514285Y-43788152D01*
X115752380Y-43454819D02*
X115752380Y-44311961D01*
X115752380Y-44311961D02*
X115704761Y-44407200D01*
X115704761Y-44407200D02*
X115609523Y-44454819D01*
X115609523Y-44454819D02*
X115514285Y-44454819D01*
X115038094Y-44454819D02*
X115133332Y-44407200D01*
X115133332Y-44407200D02*
X115180951Y-44359580D01*
X115180951Y-44359580D02*
X115228570Y-44264342D01*
X115228570Y-44264342D02*
X115228570Y-43978628D01*
X115228570Y-43978628D02*
X115180951Y-43883390D01*
X115180951Y-43883390D02*
X115133332Y-43835771D01*
X115133332Y-43835771D02*
X115038094Y-43788152D01*
X115038094Y-43788152D02*
X114895237Y-43788152D01*
X114895237Y-43788152D02*
X114799999Y-43835771D01*
X114799999Y-43835771D02*
X114752380Y-43883390D01*
X114752380Y-43883390D02*
X114704761Y-43978628D01*
X114704761Y-43978628D02*
X114704761Y-44264342D01*
X114704761Y-44264342D02*
X114752380Y-44359580D01*
X114752380Y-44359580D02*
X114799999Y-44407200D01*
X114799999Y-44407200D02*
X114895237Y-44454819D01*
X114895237Y-44454819D02*
X115038094Y-44454819D01*
X114276189Y-44454819D02*
X114276189Y-43788152D01*
X114276189Y-43978628D02*
X114228570Y-43883390D01*
X114228570Y-43883390D02*
X114180951Y-43835771D01*
X114180951Y-43835771D02*
X114085713Y-43788152D01*
X114085713Y-43788152D02*
X113990475Y-43788152D01*
X112942855Y-43550057D02*
X112895236Y-43502438D01*
X112895236Y-43502438D02*
X112799998Y-43454819D01*
X112799998Y-43454819D02*
X112561903Y-43454819D01*
X112561903Y-43454819D02*
X112466665Y-43502438D01*
X112466665Y-43502438D02*
X112419046Y-43550057D01*
X112419046Y-43550057D02*
X112371427Y-43645295D01*
X112371427Y-43645295D02*
X112371427Y-43740533D01*
X112371427Y-43740533D02*
X112419046Y-43883390D01*
X112419046Y-43883390D02*
X112990474Y-44454819D01*
X112990474Y-44454819D02*
X112371427Y-44454819D01*
X154028572Y-44454819D02*
X154504762Y-44454819D01*
X154504762Y-44454819D02*
X154504762Y-43454819D01*
X153695238Y-44454819D02*
X153695238Y-43788152D01*
X153695238Y-43454819D02*
X153742857Y-43502438D01*
X153742857Y-43502438D02*
X153695238Y-43550057D01*
X153695238Y-43550057D02*
X153647619Y-43502438D01*
X153647619Y-43502438D02*
X153695238Y-43454819D01*
X153695238Y-43454819D02*
X153695238Y-43550057D01*
X153219048Y-43788152D02*
X153219048Y-44454819D01*
X153219048Y-43883390D02*
X153171429Y-43835771D01*
X153171429Y-43835771D02*
X153076191Y-43788152D01*
X153076191Y-43788152D02*
X152933334Y-43788152D01*
X152933334Y-43788152D02*
X152838096Y-43835771D01*
X152838096Y-43835771D02*
X152790477Y-43931009D01*
X152790477Y-43931009D02*
X152790477Y-44454819D01*
X151933334Y-44407200D02*
X152028572Y-44454819D01*
X152028572Y-44454819D02*
X152219048Y-44454819D01*
X152219048Y-44454819D02*
X152314286Y-44407200D01*
X152314286Y-44407200D02*
X152361905Y-44311961D01*
X152361905Y-44311961D02*
X152361905Y-43931009D01*
X152361905Y-43931009D02*
X152314286Y-43835771D01*
X152314286Y-43835771D02*
X152219048Y-43788152D01*
X152219048Y-43788152D02*
X152028572Y-43788152D01*
X152028572Y-43788152D02*
X151933334Y-43835771D01*
X151933334Y-43835771D02*
X151885715Y-43931009D01*
X151885715Y-43931009D02*
X151885715Y-44026247D01*
X151885715Y-44026247D02*
X152361905Y-44121485D01*
X151028572Y-44454819D02*
X151028572Y-43931009D01*
X151028572Y-43931009D02*
X151076191Y-43835771D01*
X151076191Y-43835771D02*
X151171429Y-43788152D01*
X151171429Y-43788152D02*
X151361905Y-43788152D01*
X151361905Y-43788152D02*
X151457143Y-43835771D01*
X151028572Y-44407200D02*
X151123810Y-44454819D01*
X151123810Y-44454819D02*
X151361905Y-44454819D01*
X151361905Y-44454819D02*
X151457143Y-44407200D01*
X151457143Y-44407200D02*
X151504762Y-44311961D01*
X151504762Y-44311961D02*
X151504762Y-44216723D01*
X151504762Y-44216723D02*
X151457143Y-44121485D01*
X151457143Y-44121485D02*
X151361905Y-44073866D01*
X151361905Y-44073866D02*
X151123810Y-44073866D01*
X151123810Y-44073866D02*
X151028572Y-44026247D01*
X150552381Y-44454819D02*
X150552381Y-43788152D01*
X150552381Y-43978628D02*
X150504762Y-43883390D01*
X150504762Y-43883390D02*
X150457143Y-43835771D01*
X150457143Y-43835771D02*
X150361905Y-43788152D01*
X150361905Y-43788152D02*
X150266667Y-43788152D01*
X148742857Y-44454819D02*
X148742857Y-43931009D01*
X148742857Y-43931009D02*
X148790476Y-43835771D01*
X148790476Y-43835771D02*
X148885714Y-43788152D01*
X148885714Y-43788152D02*
X149076190Y-43788152D01*
X149076190Y-43788152D02*
X149171428Y-43835771D01*
X148742857Y-44407200D02*
X148838095Y-44454819D01*
X148838095Y-44454819D02*
X149076190Y-44454819D01*
X149076190Y-44454819D02*
X149171428Y-44407200D01*
X149171428Y-44407200D02*
X149219047Y-44311961D01*
X149219047Y-44311961D02*
X149219047Y-44216723D01*
X149219047Y-44216723D02*
X149171428Y-44121485D01*
X149171428Y-44121485D02*
X149076190Y-44073866D01*
X149076190Y-44073866D02*
X148838095Y-44073866D01*
X148838095Y-44073866D02*
X148742857Y-44026247D01*
X147838095Y-44407200D02*
X147933333Y-44454819D01*
X147933333Y-44454819D02*
X148123809Y-44454819D01*
X148123809Y-44454819D02*
X148219047Y-44407200D01*
X148219047Y-44407200D02*
X148266666Y-44359580D01*
X148266666Y-44359580D02*
X148314285Y-44264342D01*
X148314285Y-44264342D02*
X148314285Y-43978628D01*
X148314285Y-43978628D02*
X148266666Y-43883390D01*
X148266666Y-43883390D02*
X148219047Y-43835771D01*
X148219047Y-43835771D02*
X148123809Y-43788152D01*
X148123809Y-43788152D02*
X147933333Y-43788152D01*
X147933333Y-43788152D02*
X147838095Y-43835771D01*
X147552380Y-43788152D02*
X147171428Y-43788152D01*
X147409523Y-43454819D02*
X147409523Y-44311961D01*
X147409523Y-44311961D02*
X147361904Y-44407200D01*
X147361904Y-44407200D02*
X147266666Y-44454819D01*
X147266666Y-44454819D02*
X147171428Y-44454819D01*
X146409523Y-43788152D02*
X146409523Y-44454819D01*
X146838094Y-43788152D02*
X146838094Y-44311961D01*
X146838094Y-44311961D02*
X146790475Y-44407200D01*
X146790475Y-44407200D02*
X146695237Y-44454819D01*
X146695237Y-44454819D02*
X146552380Y-44454819D01*
X146552380Y-44454819D02*
X146457142Y-44407200D01*
X146457142Y-44407200D02*
X146409523Y-44359580D01*
X145504761Y-44454819D02*
X145504761Y-43931009D01*
X145504761Y-43931009D02*
X145552380Y-43835771D01*
X145552380Y-43835771D02*
X145647618Y-43788152D01*
X145647618Y-43788152D02*
X145838094Y-43788152D01*
X145838094Y-43788152D02*
X145933332Y-43835771D01*
X145504761Y-44407200D02*
X145599999Y-44454819D01*
X145599999Y-44454819D02*
X145838094Y-44454819D01*
X145838094Y-44454819D02*
X145933332Y-44407200D01*
X145933332Y-44407200D02*
X145980951Y-44311961D01*
X145980951Y-44311961D02*
X145980951Y-44216723D01*
X145980951Y-44216723D02*
X145933332Y-44121485D01*
X145933332Y-44121485D02*
X145838094Y-44073866D01*
X145838094Y-44073866D02*
X145599999Y-44073866D01*
X145599999Y-44073866D02*
X145504761Y-44026247D01*
X145171427Y-43788152D02*
X144790475Y-43788152D01*
X145028570Y-43454819D02*
X145028570Y-44311961D01*
X145028570Y-44311961D02*
X144980951Y-44407200D01*
X144980951Y-44407200D02*
X144885713Y-44454819D01*
X144885713Y-44454819D02*
X144790475Y-44454819D01*
X144314284Y-44454819D02*
X144409522Y-44407200D01*
X144409522Y-44407200D02*
X144457141Y-44359580D01*
X144457141Y-44359580D02*
X144504760Y-44264342D01*
X144504760Y-44264342D02*
X144504760Y-43978628D01*
X144504760Y-43978628D02*
X144457141Y-43883390D01*
X144457141Y-43883390D02*
X144409522Y-43835771D01*
X144409522Y-43835771D02*
X144314284Y-43788152D01*
X144314284Y-43788152D02*
X144171427Y-43788152D01*
X144171427Y-43788152D02*
X144076189Y-43835771D01*
X144076189Y-43835771D02*
X144028570Y-43883390D01*
X144028570Y-43883390D02*
X143980951Y-43978628D01*
X143980951Y-43978628D02*
X143980951Y-44264342D01*
X143980951Y-44264342D02*
X144028570Y-44359580D01*
X144028570Y-44359580D02*
X144076189Y-44407200D01*
X144076189Y-44407200D02*
X144171427Y-44454819D01*
X144171427Y-44454819D02*
X144314284Y-44454819D01*
X143552379Y-44454819D02*
X143552379Y-43788152D01*
X143552379Y-43978628D02*
X143504760Y-43883390D01*
X143504760Y-43883390D02*
X143457141Y-43835771D01*
X143457141Y-43835771D02*
X143361903Y-43788152D01*
X143361903Y-43788152D02*
X143266665Y-43788152D01*
X141647617Y-44454819D02*
X142219045Y-44454819D01*
X141933331Y-44454819D02*
X141933331Y-43454819D01*
X141933331Y-43454819D02*
X142028569Y-43597676D01*
X142028569Y-43597676D02*
X142123807Y-43692914D01*
X142123807Y-43692914D02*
X142219045Y-43740533D01*
M02*
