%TF.GenerationSoftware,KiCad,Pcbnew,10.0.1*%
%TF.CreationDate,2026-05-15T14:17:26+10:00*%
%TF.ProjectId,Linear_Acuator_Control,4c696e65-6172-45f4-9163-7561746f725f,rev?*%
%TF.SameCoordinates,Original*%
%TF.FileFunction,Legend,Top*%
%TF.FilePolarity,Positive*%
%FSLAX46Y46*%
G04 Gerber Fmt 4.6, Leading zero omitted, Abs format (unit mm)*
G04 Created by KiCad (PCBNEW 10.0.1) date 2026-05-15 14:17:26*
%MOMM*%
%LPD*%
G01*
G04 APERTURE LIST*
%ADD10C,0.125000*%
%ADD11C,0.304800*%
%ADD12C,0.150000*%
%ADD13C,0.120000*%
%ADD14C,0.100000*%
%ADD15C,0.000000*%
G04 APERTURE END LIST*
D10*
X74106045Y-102371119D02*
X74106045Y-103085404D01*
X74106045Y-103085404D02*
X74058426Y-103228261D01*
X74058426Y-103228261D02*
X73963188Y-103323500D01*
X73963188Y-103323500D02*
X73820331Y-103371119D01*
X73820331Y-103371119D02*
X73725093Y-103371119D01*
X75058426Y-103371119D02*
X74582236Y-103371119D01*
X74582236Y-103371119D02*
X74582236Y-102371119D01*
X75963188Y-103275880D02*
X75915569Y-103323500D01*
X75915569Y-103323500D02*
X75772712Y-103371119D01*
X75772712Y-103371119D02*
X75677474Y-103371119D01*
X75677474Y-103371119D02*
X75534617Y-103323500D01*
X75534617Y-103323500D02*
X75439379Y-103228261D01*
X75439379Y-103228261D02*
X75391760Y-103133023D01*
X75391760Y-103133023D02*
X75344141Y-102942547D01*
X75344141Y-102942547D02*
X75344141Y-102799690D01*
X75344141Y-102799690D02*
X75391760Y-102609214D01*
X75391760Y-102609214D02*
X75439379Y-102513976D01*
X75439379Y-102513976D02*
X75534617Y-102418738D01*
X75534617Y-102418738D02*
X75677474Y-102371119D01*
X75677474Y-102371119D02*
X75772712Y-102371119D01*
X75772712Y-102371119D02*
X75915569Y-102418738D01*
X75915569Y-102418738D02*
X75963188Y-102466357D01*
X76677474Y-102371119D02*
X76677474Y-103085404D01*
X76677474Y-103085404D02*
X76629855Y-103228261D01*
X76629855Y-103228261D02*
X76534617Y-103323500D01*
X76534617Y-103323500D02*
X76391760Y-103371119D01*
X76391760Y-103371119D02*
X76296522Y-103371119D01*
X77629855Y-103371119D02*
X77153665Y-103371119D01*
X77153665Y-103371119D02*
X77153665Y-102371119D01*
X78534617Y-103275880D02*
X78486998Y-103323500D01*
X78486998Y-103323500D02*
X78344141Y-103371119D01*
X78344141Y-103371119D02*
X78248903Y-103371119D01*
X78248903Y-103371119D02*
X78106046Y-103323500D01*
X78106046Y-103323500D02*
X78010808Y-103228261D01*
X78010808Y-103228261D02*
X77963189Y-103133023D01*
X77963189Y-103133023D02*
X77915570Y-102942547D01*
X77915570Y-102942547D02*
X77915570Y-102799690D01*
X77915570Y-102799690D02*
X77963189Y-102609214D01*
X77963189Y-102609214D02*
X78010808Y-102513976D01*
X78010808Y-102513976D02*
X78106046Y-102418738D01*
X78106046Y-102418738D02*
X78248903Y-102371119D01*
X78248903Y-102371119D02*
X78344141Y-102371119D01*
X78344141Y-102371119D02*
X78486998Y-102418738D01*
X78486998Y-102418738D02*
X78534617Y-102466357D01*
X79248903Y-102371119D02*
X79248903Y-103085404D01*
X79248903Y-103085404D02*
X79201284Y-103228261D01*
X79201284Y-103228261D02*
X79106046Y-103323500D01*
X79106046Y-103323500D02*
X78963189Y-103371119D01*
X78963189Y-103371119D02*
X78867951Y-103371119D01*
X80201284Y-103371119D02*
X79725094Y-103371119D01*
X79725094Y-103371119D02*
X79725094Y-102371119D01*
X81106046Y-103275880D02*
X81058427Y-103323500D01*
X81058427Y-103323500D02*
X80915570Y-103371119D01*
X80915570Y-103371119D02*
X80820332Y-103371119D01*
X80820332Y-103371119D02*
X80677475Y-103323500D01*
X80677475Y-103323500D02*
X80582237Y-103228261D01*
X80582237Y-103228261D02*
X80534618Y-103133023D01*
X80534618Y-103133023D02*
X80486999Y-102942547D01*
X80486999Y-102942547D02*
X80486999Y-102799690D01*
X80486999Y-102799690D02*
X80534618Y-102609214D01*
X80534618Y-102609214D02*
X80582237Y-102513976D01*
X80582237Y-102513976D02*
X80677475Y-102418738D01*
X80677475Y-102418738D02*
X80820332Y-102371119D01*
X80820332Y-102371119D02*
X80915570Y-102371119D01*
X80915570Y-102371119D02*
X81058427Y-102418738D01*
X81058427Y-102418738D02*
X81106046Y-102466357D01*
X81820332Y-102371119D02*
X81820332Y-103085404D01*
X81820332Y-103085404D02*
X81772713Y-103228261D01*
X81772713Y-103228261D02*
X81677475Y-103323500D01*
X81677475Y-103323500D02*
X81534618Y-103371119D01*
X81534618Y-103371119D02*
X81439380Y-103371119D01*
X82772713Y-103371119D02*
X82296523Y-103371119D01*
X82296523Y-103371119D02*
X82296523Y-102371119D01*
X83677475Y-103275880D02*
X83629856Y-103323500D01*
X83629856Y-103323500D02*
X83486999Y-103371119D01*
X83486999Y-103371119D02*
X83391761Y-103371119D01*
X83391761Y-103371119D02*
X83248904Y-103323500D01*
X83248904Y-103323500D02*
X83153666Y-103228261D01*
X83153666Y-103228261D02*
X83106047Y-103133023D01*
X83106047Y-103133023D02*
X83058428Y-102942547D01*
X83058428Y-102942547D02*
X83058428Y-102799690D01*
X83058428Y-102799690D02*
X83106047Y-102609214D01*
X83106047Y-102609214D02*
X83153666Y-102513976D01*
X83153666Y-102513976D02*
X83248904Y-102418738D01*
X83248904Y-102418738D02*
X83391761Y-102371119D01*
X83391761Y-102371119D02*
X83486999Y-102371119D01*
X83486999Y-102371119D02*
X83629856Y-102418738D01*
X83629856Y-102418738D02*
X83677475Y-102466357D01*
D11*
G36*
X112159964Y-102293704D02*
G01*
X112159964Y-103240648D01*
X112162985Y-103309417D01*
X112172224Y-103374675D01*
X112186344Y-103430938D01*
X112206087Y-103483579D01*
X112229595Y-103528874D01*
X112258269Y-103570515D01*
X112290422Y-103606433D01*
X112327514Y-103638601D01*
X112368661Y-103666198D01*
X112414781Y-103689793D01*
X112522880Y-103724243D01*
X112655886Y-103740192D01*
X112694201Y-103740920D01*
X113271152Y-103740920D01*
X113271152Y-103483246D01*
X112709183Y-103483246D01*
X112648538Y-103480336D01*
X112596200Y-103471876D01*
X112554206Y-103459252D01*
X112518695Y-103442433D01*
X112490180Y-103422529D01*
X112466970Y-103399330D01*
X112434525Y-103342975D01*
X112418980Y-103270022D01*
X112417730Y-103238507D01*
X112417730Y-102293704D01*
X112159964Y-102293704D01*
G37*
G36*
X113488718Y-102610469D02*
G01*
X113488718Y-103740920D01*
X113720801Y-103740920D01*
X113720801Y-102610469D01*
X113488718Y-102610469D01*
G37*
G36*
X113488718Y-102186131D02*
G01*
X113488718Y-102454506D01*
X113722941Y-102454506D01*
X113722941Y-102186131D01*
X113488718Y-102186131D01*
G37*
G36*
X114199018Y-102609352D02*
G01*
X114152191Y-102612480D01*
X114114038Y-102622463D01*
X114090548Y-102635213D01*
X114071647Y-102652853D01*
X114047901Y-102700563D01*
X114038201Y-102778095D01*
X114038124Y-102787369D01*
X114038124Y-103740920D01*
X114270206Y-103740920D01*
X114270206Y-102862001D01*
X114273389Y-102843823D01*
X114283755Y-102834593D01*
X114294960Y-102832967D01*
X114664115Y-102832967D01*
X114731704Y-102835927D01*
X114791168Y-102844734D01*
X114838230Y-102857681D01*
X114878954Y-102875263D01*
X114911219Y-102895659D01*
X114938290Y-102919914D01*
X114976572Y-102977938D01*
X114996987Y-103052490D01*
X115000328Y-103104971D01*
X115000328Y-103740920D01*
X115234644Y-103740920D01*
X115234644Y-103104971D01*
X115231663Y-103038824D01*
X115222708Y-102976911D01*
X115208815Y-102922655D01*
X115189603Y-102872359D01*
X115166288Y-102828136D01*
X115138098Y-102787705D01*
X115105846Y-102751963D01*
X115068916Y-102720009D01*
X114980719Y-102667683D01*
X114870516Y-102630887D01*
X114734263Y-102611524D01*
X114664115Y-102609352D01*
X114199018Y-102609352D01*
G37*
G36*
X116299192Y-102609508D02*
G01*
X116414986Y-102622082D01*
X116503723Y-102652095D01*
X116539884Y-102673002D01*
X116571271Y-102697814D01*
X116598650Y-102727253D01*
X116621209Y-102760573D01*
X116640191Y-102800535D01*
X116653881Y-102844681D01*
X116663031Y-102898287D01*
X116666040Y-102956639D01*
X116665985Y-102964683D01*
X116654905Y-103061296D01*
X116626402Y-103136108D01*
X116580432Y-103194794D01*
X116549422Y-103219318D01*
X116513110Y-103239959D01*
X116468261Y-103257612D01*
X116416915Y-103270620D01*
X116353195Y-103279383D01*
X116281158Y-103282337D01*
X115748595Y-103282337D01*
X115748595Y-103361156D01*
X115748875Y-103372815D01*
X115761350Y-103431878D01*
X115791114Y-103475006D01*
X115813445Y-103491505D01*
X115841008Y-103503956D01*
X115876485Y-103512356D01*
X115918517Y-103515257D01*
X116610578Y-103515257D01*
X116610578Y-103740920D01*
X115918517Y-103740920D01*
X115887219Y-103740244D01*
X115776429Y-103724644D01*
X115730067Y-103709888D01*
X115688794Y-103690796D01*
X115652080Y-103667333D01*
X115620280Y-103639951D01*
X115592021Y-103607273D01*
X115568847Y-103570865D01*
X115549255Y-103527483D01*
X115535234Y-103480447D01*
X115525960Y-103424679D01*
X115522933Y-103365436D01*
X115522933Y-102984091D01*
X115748595Y-102984091D01*
X115748595Y-103099295D01*
X116274737Y-103099295D01*
X116340507Y-103093026D01*
X116393159Y-103071327D01*
X116411934Y-103054378D01*
X116425379Y-103033786D01*
X116435141Y-103003950D01*
X116438237Y-102969295D01*
X116430234Y-102916032D01*
X116404313Y-102873299D01*
X116383530Y-102856797D01*
X116357475Y-102844411D01*
X116322693Y-102835886D01*
X116281158Y-102832967D01*
X115918517Y-102832967D01*
X115845372Y-102842901D01*
X115817133Y-102854694D01*
X115794125Y-102870476D01*
X115774905Y-102891463D01*
X115761156Y-102916066D01*
X115751654Y-102948413D01*
X115748595Y-102984091D01*
X115522933Y-102984091D01*
X115522933Y-102981950D01*
X115524725Y-102936603D01*
X115542902Y-102840235D01*
X115578707Y-102761898D01*
X115631530Y-102699462D01*
X115664872Y-102673790D01*
X115703108Y-102652036D01*
X115747412Y-102634115D01*
X115797135Y-102620844D01*
X115854730Y-102612278D01*
X115918517Y-102609352D01*
X116283298Y-102609352D01*
X116299192Y-102609508D01*
G37*
G36*
X117691582Y-102609989D02*
G01*
X117802604Y-102625465D01*
X117849088Y-102640178D01*
X117890469Y-102659229D01*
X117927284Y-102682654D01*
X117959169Y-102709990D01*
X117987494Y-102742599D01*
X118010718Y-102778916D01*
X118030338Y-102822136D01*
X118044376Y-102868962D01*
X118053650Y-102924368D01*
X118056676Y-102983160D01*
X118056676Y-103511814D01*
X118050976Y-103595862D01*
X118031815Y-103657630D01*
X118016827Y-103680602D01*
X117997451Y-103699663D01*
X117970451Y-103716318D01*
X117936990Y-103728548D01*
X117885154Y-103737884D01*
X117821150Y-103740920D01*
X117294171Y-103740920D01*
X117281119Y-103740813D01*
X117165278Y-103728598D01*
X117076389Y-103698790D01*
X117040114Y-103677926D01*
X117008657Y-103653161D01*
X116981174Y-103623719D01*
X116958553Y-103590423D01*
X116939493Y-103550440D01*
X116925767Y-103506338D01*
X116916584Y-103452756D01*
X116913570Y-103394563D01*
X116913638Y-103385544D01*
X116914069Y-103381814D01*
X117141372Y-103381814D01*
X117148570Y-103433361D01*
X117172995Y-103475363D01*
X117193046Y-103491593D01*
X117218551Y-103503795D01*
X117253676Y-103512336D01*
X117296312Y-103515257D01*
X117769969Y-103515257D01*
X117784770Y-103514550D01*
X117815274Y-103503148D01*
X117825685Y-103486129D01*
X117828874Y-103460633D01*
X117828874Y-103252559D01*
X117300592Y-103252559D01*
X117238604Y-103258139D01*
X117186332Y-103278934D01*
X117167704Y-103295487D01*
X117154358Y-103315787D01*
X117144485Y-103346136D01*
X117141372Y-103381814D01*
X116914069Y-103381814D01*
X116924832Y-103288679D01*
X116953352Y-103213708D01*
X116999215Y-103154952D01*
X117030074Y-103130439D01*
X117066223Y-103109788D01*
X117110757Y-103092162D01*
X117161764Y-103079162D01*
X117224904Y-103070420D01*
X117296312Y-103067469D01*
X117828874Y-103067469D01*
X117828874Y-102985301D01*
X117828608Y-102974285D01*
X117816047Y-102916110D01*
X117785955Y-102873110D01*
X117763525Y-102856658D01*
X117735860Y-102844202D01*
X117700664Y-102835860D01*
X117659046Y-102832967D01*
X116981781Y-102832967D01*
X116981781Y-102609352D01*
X117661186Y-102609352D01*
X117691582Y-102609989D01*
G37*
G36*
X118676805Y-102609352D02*
G01*
X118615379Y-102612347D01*
X118561558Y-102621399D01*
X118520278Y-102634443D01*
X118484443Y-102652319D01*
X118455882Y-102673289D01*
X118431673Y-102698533D01*
X118395713Y-102761927D01*
X118374241Y-102849471D01*
X118368695Y-102940820D01*
X118368695Y-103740920D01*
X118600778Y-103740920D01*
X118600778Y-102974971D01*
X118603800Y-102934453D01*
X118613042Y-102900934D01*
X118625653Y-102878293D01*
X118642898Y-102860316D01*
X118689105Y-102838690D01*
X118742968Y-102832967D01*
X119142739Y-102832967D01*
X119142739Y-102609352D01*
X118676805Y-102609352D01*
G37*
G36*
X120544822Y-102581249D02*
G01*
X120557798Y-102559056D01*
X120574242Y-102544188D01*
X120612592Y-102534087D01*
X120614614Y-102534069D01*
X120638934Y-102537152D01*
X120658562Y-102546822D01*
X120681586Y-102579612D01*
X120682173Y-102581156D01*
X121120376Y-103740920D01*
X121406153Y-103740920D01*
X120918258Y-102457484D01*
X120898469Y-102413892D01*
X120874822Y-102376664D01*
X120849074Y-102347232D01*
X120819884Y-102322923D01*
X120751305Y-102288789D01*
X120663056Y-102271697D01*
X120616755Y-102269882D01*
X120556703Y-102272942D01*
X120502547Y-102282449D01*
X120460831Y-102296065D01*
X120423287Y-102315065D01*
X120392299Y-102337629D01*
X120364756Y-102365278D01*
X120320071Y-102436216D01*
X120310971Y-102457391D01*
X119803720Y-103740920D01*
X120087542Y-103740920D01*
X120544822Y-102581249D01*
G37*
G36*
X121974449Y-102609352D02*
G01*
X121909961Y-102612334D01*
X121849274Y-102621295D01*
X121795607Y-102635270D01*
X121745644Y-102654619D01*
X121701465Y-102678172D01*
X121660946Y-102706676D01*
X121625051Y-102739293D01*
X121592895Y-102776661D01*
X121540319Y-102865669D01*
X121503607Y-102976293D01*
X121484754Y-103112028D01*
X121482925Y-103175136D01*
X121485873Y-103254713D01*
X121494603Y-103328171D01*
X121508188Y-103392682D01*
X121526741Y-103451644D01*
X121549117Y-103503111D01*
X121575807Y-103549488D01*
X121605822Y-103589784D01*
X121639677Y-103625285D01*
X121717874Y-103681677D01*
X121811442Y-103719800D01*
X121922435Y-103739003D01*
X121974449Y-103740920D01*
X122557821Y-103740920D01*
X122557821Y-103515257D01*
X121995852Y-103515257D01*
X121940413Y-103512234D01*
X121891547Y-103502978D01*
X121854462Y-103489739D01*
X121822059Y-103471455D01*
X121796050Y-103449787D01*
X121773902Y-103423467D01*
X121740614Y-103355598D01*
X121721109Y-103259015D01*
X121717148Y-103175136D01*
X121720161Y-103101150D01*
X121729343Y-103036899D01*
X121742232Y-102989481D01*
X121759911Y-102948738D01*
X121779954Y-102917708D01*
X121804054Y-102891748D01*
X121862157Y-102855550D01*
X121939562Y-102836154D01*
X121995852Y-102832967D01*
X122557821Y-102832967D01*
X122557821Y-102609352D01*
X121974449Y-102609352D01*
G37*
G36*
X122706618Y-102609352D02*
G01*
X122706618Y-102832967D01*
X122860254Y-102832967D01*
X122860254Y-103349896D01*
X122863261Y-103431625D01*
X122872394Y-103502273D01*
X122885214Y-103554416D01*
X122902760Y-103599255D01*
X122922664Y-103633655D01*
X122946556Y-103662728D01*
X123004013Y-103704687D01*
X123080384Y-103730616D01*
X123186310Y-103740864D01*
X123196002Y-103740920D01*
X123401657Y-103740920D01*
X123401657Y-103528099D01*
X123242996Y-103528099D01*
X123198179Y-103524961D01*
X123162015Y-103514904D01*
X123140218Y-103502174D01*
X123122892Y-103484560D01*
X123101615Y-103436180D01*
X123094478Y-103362738D01*
X123094478Y-102832967D01*
X123405938Y-102832967D01*
X123405938Y-102609352D01*
X123094478Y-102609352D01*
X123094478Y-102342745D01*
X122860254Y-102342745D01*
X122860254Y-102609352D01*
X122706618Y-102609352D01*
G37*
G36*
X123612802Y-102608515D02*
G01*
X123612802Y-103294248D01*
X123615774Y-103353100D01*
X123624667Y-103408960D01*
X123638755Y-103459532D01*
X123658245Y-103506804D01*
X123682159Y-103549065D01*
X123711051Y-103587767D01*
X123744085Y-103621938D01*
X123781826Y-103652259D01*
X123823984Y-103678365D01*
X123870742Y-103700230D01*
X123979084Y-103730564D01*
X124104420Y-103740920D01*
X124313518Y-103740920D01*
X124382043Y-103737984D01*
X124445543Y-103729351D01*
X124502531Y-103715708D01*
X124554696Y-103697140D01*
X124601106Y-103674398D01*
X124642833Y-103647377D01*
X124679555Y-103616585D01*
X124711623Y-103582025D01*
X124761994Y-103501842D01*
X124793666Y-103406722D01*
X124805043Y-103294248D01*
X124805043Y-102608515D01*
X124577240Y-102608515D01*
X124577240Y-103285687D01*
X124574274Y-103324906D01*
X124565422Y-103361647D01*
X124551418Y-103394255D01*
X124532093Y-103423793D01*
X124508190Y-103449275D01*
X124479345Y-103471123D01*
X124445704Y-103488950D01*
X124407259Y-103502459D01*
X124314492Y-103515162D01*
X124304957Y-103515257D01*
X124121449Y-103515257D01*
X124070332Y-103512346D01*
X124024237Y-103503881D01*
X123984193Y-103490651D01*
X123949097Y-103472889D01*
X123919524Y-103451391D01*
X123894884Y-103426230D01*
X123860750Y-103366425D01*
X123847183Y-103294800D01*
X123847026Y-103285687D01*
X123847026Y-102608515D01*
X123612802Y-102608515D01*
G37*
G36*
X125870134Y-102609989D02*
G01*
X125981155Y-102625465D01*
X126027640Y-102640178D01*
X126069021Y-102659229D01*
X126105836Y-102682654D01*
X126137721Y-102709990D01*
X126166045Y-102742599D01*
X126189270Y-102778916D01*
X126208890Y-102822136D01*
X126222928Y-102868962D01*
X126232202Y-102924368D01*
X126235228Y-102983160D01*
X126235228Y-103511814D01*
X126229528Y-103595862D01*
X126210366Y-103657630D01*
X126195379Y-103680602D01*
X126176003Y-103699663D01*
X126149003Y-103716318D01*
X126115542Y-103728548D01*
X126063706Y-103737884D01*
X125999702Y-103740920D01*
X125472723Y-103740920D01*
X125459671Y-103740813D01*
X125343830Y-103728598D01*
X125254940Y-103698790D01*
X125218666Y-103677926D01*
X125187209Y-103653161D01*
X125159726Y-103623719D01*
X125137105Y-103590423D01*
X125118045Y-103550440D01*
X125104319Y-103506338D01*
X125095135Y-103452756D01*
X125092122Y-103394563D01*
X125092190Y-103385544D01*
X125092621Y-103381814D01*
X125319924Y-103381814D01*
X125327122Y-103433361D01*
X125351547Y-103475363D01*
X125371597Y-103491593D01*
X125397103Y-103503795D01*
X125432227Y-103512336D01*
X125474863Y-103515257D01*
X125948521Y-103515257D01*
X125963322Y-103514550D01*
X125993826Y-103503148D01*
X126004237Y-103486129D01*
X126007426Y-103460633D01*
X126007426Y-103252559D01*
X125479144Y-103252559D01*
X125417156Y-103258139D01*
X125364884Y-103278934D01*
X125346256Y-103295487D01*
X125332910Y-103315787D01*
X125323036Y-103346136D01*
X125319924Y-103381814D01*
X125092621Y-103381814D01*
X125103384Y-103288679D01*
X125131904Y-103213708D01*
X125177767Y-103154952D01*
X125208626Y-103130439D01*
X125244775Y-103109788D01*
X125289309Y-103092162D01*
X125340315Y-103079162D01*
X125403456Y-103070420D01*
X125474863Y-103067469D01*
X126007426Y-103067469D01*
X126007426Y-102985301D01*
X126007159Y-102974285D01*
X125994598Y-102916110D01*
X125964507Y-102873110D01*
X125942077Y-102856658D01*
X125914412Y-102844202D01*
X125879216Y-102835860D01*
X125837598Y-102832967D01*
X125160332Y-102832967D01*
X125160332Y-102609352D01*
X125839738Y-102609352D01*
X125870134Y-102609989D01*
G37*
G36*
X126436323Y-102609352D02*
G01*
X126436323Y-102832967D01*
X126589960Y-102832967D01*
X126589960Y-103349896D01*
X126592966Y-103431625D01*
X126602100Y-103502273D01*
X126614920Y-103554416D01*
X126632465Y-103599255D01*
X126652369Y-103633655D01*
X126676261Y-103662728D01*
X126733718Y-103704687D01*
X126810090Y-103730616D01*
X126916015Y-103740864D01*
X126925708Y-103740920D01*
X127131363Y-103740920D01*
X127131363Y-103528099D01*
X126972701Y-103528099D01*
X126927884Y-103524961D01*
X126891721Y-103514904D01*
X126869924Y-103502174D01*
X126852597Y-103484560D01*
X126831320Y-103436180D01*
X126824183Y-103362738D01*
X126824183Y-102832967D01*
X127135643Y-102832967D01*
X127135643Y-102609352D01*
X126824183Y-102609352D01*
X126824183Y-102342745D01*
X126589960Y-102342745D01*
X126589960Y-102609352D01*
X126436323Y-102609352D01*
G37*
G36*
X128076193Y-102611311D02*
G01*
X128186818Y-102630658D01*
X128280353Y-102669006D01*
X128358657Y-102725683D01*
X128392563Y-102761313D01*
X128422645Y-102801745D01*
X128449363Y-102848180D01*
X128471775Y-102899694D01*
X128490326Y-102958553D01*
X128503916Y-103022923D01*
X128512632Y-103096005D01*
X128515578Y-103175136D01*
X128513763Y-103237705D01*
X128494884Y-103373228D01*
X128458046Y-103483928D01*
X128405254Y-103573150D01*
X128372964Y-103610643D01*
X128336949Y-103643364D01*
X128296320Y-103671962D01*
X128252068Y-103695584D01*
X128202108Y-103714976D01*
X128148516Y-103728975D01*
X128088078Y-103737938D01*
X128023961Y-103740920D01*
X127787132Y-103740920D01*
X127735117Y-103739003D01*
X127624125Y-103719800D01*
X127530557Y-103681677D01*
X127452359Y-103625285D01*
X127418505Y-103589784D01*
X127388489Y-103549488D01*
X127361800Y-103503111D01*
X127339424Y-103451644D01*
X127320871Y-103392682D01*
X127307285Y-103328171D01*
X127298556Y-103254713D01*
X127295607Y-103175136D01*
X127529831Y-103175136D01*
X127533792Y-103259015D01*
X127553297Y-103355598D01*
X127586585Y-103423467D01*
X127608732Y-103449787D01*
X127634741Y-103471455D01*
X127667145Y-103489739D01*
X127704230Y-103502978D01*
X127753096Y-103512234D01*
X127808535Y-103515257D01*
X128002651Y-103515257D01*
X128059302Y-103512022D01*
X128136520Y-103492577D01*
X128194553Y-103456354D01*
X128218609Y-103430432D01*
X128238650Y-103399422D01*
X128256272Y-103358882D01*
X128269143Y-103311672D01*
X128278258Y-103248213D01*
X128281262Y-103175136D01*
X128277087Y-103090003D01*
X128257122Y-102993462D01*
X128223254Y-102925191D01*
X128200830Y-102898679D01*
X128174579Y-102876846D01*
X128142122Y-102858492D01*
X128105112Y-102845200D01*
X128056988Y-102835985D01*
X128002651Y-102832967D01*
X127808535Y-102832967D01*
X127752245Y-102836154D01*
X127674840Y-102855550D01*
X127616737Y-102891748D01*
X127592637Y-102917708D01*
X127572594Y-102948738D01*
X127554915Y-102989481D01*
X127542025Y-103036899D01*
X127532844Y-103101150D01*
X127529831Y-103175136D01*
X127295607Y-103175136D01*
X127297436Y-103112028D01*
X127316290Y-102976293D01*
X127353002Y-102865669D01*
X127405578Y-102776661D01*
X127437734Y-102739293D01*
X127473628Y-102706676D01*
X127514147Y-102678172D01*
X127558327Y-102654619D01*
X127608290Y-102635270D01*
X127661956Y-102621295D01*
X127722644Y-102612334D01*
X127787132Y-102609352D01*
X128023961Y-102609352D01*
X128076193Y-102611311D01*
G37*
G36*
X129085736Y-102609352D02*
G01*
X129024310Y-102612347D01*
X128970489Y-102621399D01*
X128929209Y-102634443D01*
X128893374Y-102652319D01*
X128864813Y-102673289D01*
X128840604Y-102698533D01*
X128804644Y-102761927D01*
X128783171Y-102849471D01*
X128777626Y-102940820D01*
X128777626Y-103740920D01*
X129009709Y-103740920D01*
X129009709Y-102974971D01*
X129012731Y-102934453D01*
X129021973Y-102900934D01*
X129034583Y-102878293D01*
X129051829Y-102860316D01*
X129098035Y-102838690D01*
X129151899Y-102832967D01*
X129551670Y-102832967D01*
X129551670Y-102609352D01*
X129085736Y-102609352D01*
G37*
G36*
X130948820Y-102293704D02*
G01*
X130870005Y-102296685D01*
X130795885Y-102305635D01*
X130730314Y-102319570D01*
X130669062Y-102338847D01*
X130614727Y-102362221D01*
X130564440Y-102390477D01*
X130519592Y-102422553D01*
X130478660Y-102459240D01*
X130409357Y-102545547D01*
X130355517Y-102651355D01*
X130317616Y-102779825D01*
X130297539Y-102934924D01*
X130295098Y-103018429D01*
X130298064Y-103110219D01*
X130306914Y-103195724D01*
X130320654Y-103270913D01*
X130339545Y-103340486D01*
X130362280Y-103401557D01*
X130389583Y-103457547D01*
X130420184Y-103506730D01*
X130454936Y-103551205D01*
X130493036Y-103590287D01*
X130535043Y-103624850D01*
X130630875Y-103680565D01*
X130744708Y-103718868D01*
X130879739Y-103738671D01*
X130948820Y-103740920D01*
X131508649Y-103740920D01*
X131508649Y-103483246D01*
X130948820Y-103483246D01*
X130881268Y-103480235D01*
X130820521Y-103471069D01*
X130772325Y-103457667D01*
X130729226Y-103439152D01*
X130693805Y-103417355D01*
X130662567Y-103390957D01*
X130613249Y-103325631D01*
X130578056Y-103238316D01*
X130557266Y-103120464D01*
X130552865Y-103018429D01*
X130555870Y-102933157D01*
X130564992Y-102857207D01*
X130578177Y-102797992D01*
X130596315Y-102745602D01*
X130617127Y-102703866D01*
X130642182Y-102667469D01*
X130669902Y-102637798D01*
X130701572Y-102612697D01*
X130777092Y-102575750D01*
X130874748Y-102555188D01*
X130948820Y-102551471D01*
X131508649Y-102551471D01*
X131508649Y-102293704D01*
X130948820Y-102293704D01*
G37*
G36*
X132517595Y-102611311D02*
G01*
X132628219Y-102630658D01*
X132721754Y-102669006D01*
X132800059Y-102725683D01*
X132833965Y-102761313D01*
X132864047Y-102801745D01*
X132890765Y-102848180D01*
X132913177Y-102899694D01*
X132931728Y-102958553D01*
X132945318Y-103022923D01*
X132954034Y-103096005D01*
X132956980Y-103175136D01*
X132955165Y-103237705D01*
X132936286Y-103373228D01*
X132899448Y-103483928D01*
X132846656Y-103573150D01*
X132814366Y-103610643D01*
X132778351Y-103643364D01*
X132737722Y-103671962D01*
X132693470Y-103695584D01*
X132643510Y-103714976D01*
X132589917Y-103728975D01*
X132529480Y-103737938D01*
X132465363Y-103740920D01*
X132228534Y-103740920D01*
X132176519Y-103739003D01*
X132065527Y-103719800D01*
X131971959Y-103681677D01*
X131893761Y-103625285D01*
X131859907Y-103589784D01*
X131829891Y-103549488D01*
X131803201Y-103503111D01*
X131780826Y-103451644D01*
X131762272Y-103392682D01*
X131748687Y-103328171D01*
X131739958Y-103254713D01*
X131737009Y-103175136D01*
X131971233Y-103175136D01*
X131975194Y-103259015D01*
X131994698Y-103355598D01*
X132027987Y-103423467D01*
X132050134Y-103449787D01*
X132076143Y-103471455D01*
X132108547Y-103489739D01*
X132145632Y-103502978D01*
X132194498Y-103512234D01*
X132249937Y-103515257D01*
X132444053Y-103515257D01*
X132500704Y-103512022D01*
X132577922Y-103492577D01*
X132635954Y-103456354D01*
X132660011Y-103430432D01*
X132680052Y-103399422D01*
X132697673Y-103358882D01*
X132710545Y-103311672D01*
X132719660Y-103248213D01*
X132722664Y-103175136D01*
X132718489Y-103090003D01*
X132698524Y-102993462D01*
X132664656Y-102925191D01*
X132642232Y-102898679D01*
X132615981Y-102876846D01*
X132583524Y-102858492D01*
X132546514Y-102845200D01*
X132498390Y-102835985D01*
X132444053Y-102832967D01*
X132249937Y-102832967D01*
X132193647Y-102836154D01*
X132116242Y-102855550D01*
X132058139Y-102891748D01*
X132034039Y-102917708D01*
X132013996Y-102948738D01*
X131996317Y-102989481D01*
X131983427Y-103036899D01*
X131974246Y-103101150D01*
X131971233Y-103175136D01*
X131737009Y-103175136D01*
X131738838Y-103112028D01*
X131757692Y-102976293D01*
X131794404Y-102865669D01*
X131846980Y-102776661D01*
X131879135Y-102739293D01*
X131915030Y-102706676D01*
X131955549Y-102678172D01*
X131999729Y-102654619D01*
X132049692Y-102635270D01*
X132103358Y-102621295D01*
X132164046Y-102612334D01*
X132228534Y-102609352D01*
X132465363Y-102609352D01*
X132517595Y-102611311D01*
G37*
G36*
X133382062Y-102609352D02*
G01*
X133335235Y-102612480D01*
X133297083Y-102622463D01*
X133273592Y-102635213D01*
X133254691Y-102652853D01*
X133230946Y-102700563D01*
X133221245Y-102778095D01*
X133221168Y-102787369D01*
X133221168Y-103740920D01*
X133453251Y-103740920D01*
X133453251Y-102862001D01*
X133456433Y-102843823D01*
X133466799Y-102834593D01*
X133478004Y-102832967D01*
X133847159Y-102832967D01*
X133914749Y-102835927D01*
X133974213Y-102844734D01*
X134021275Y-102857681D01*
X134061998Y-102875263D01*
X134094263Y-102895659D01*
X134121335Y-102919914D01*
X134159616Y-102977938D01*
X134180031Y-103052490D01*
X134183372Y-103104971D01*
X134183372Y-103740920D01*
X134417689Y-103740920D01*
X134417689Y-103104971D01*
X134414708Y-103038824D01*
X134405752Y-102976911D01*
X134391859Y-102922655D01*
X134372648Y-102872359D01*
X134349333Y-102828136D01*
X134321143Y-102787705D01*
X134288890Y-102751963D01*
X134251960Y-102720009D01*
X134163763Y-102667683D01*
X134053560Y-102630887D01*
X133917308Y-102611524D01*
X133847159Y-102609352D01*
X133382062Y-102609352D01*
G37*
G36*
X134616364Y-102609352D02*
G01*
X134616364Y-102832967D01*
X134770001Y-102832967D01*
X134770001Y-103349896D01*
X134773007Y-103431625D01*
X134782141Y-103502273D01*
X134794960Y-103554416D01*
X134812506Y-103599255D01*
X134832410Y-103633655D01*
X134856302Y-103662728D01*
X134913759Y-103704687D01*
X134990131Y-103730616D01*
X135096056Y-103740864D01*
X135105748Y-103740920D01*
X135311403Y-103740920D01*
X135311403Y-103528099D01*
X135152742Y-103528099D01*
X135107925Y-103524961D01*
X135071761Y-103514904D01*
X135049964Y-103502174D01*
X135032638Y-103484560D01*
X135011361Y-103436180D01*
X135004224Y-103362738D01*
X135004224Y-102832967D01*
X135315684Y-102832967D01*
X135315684Y-102609352D01*
X135004224Y-102609352D01*
X135004224Y-102342745D01*
X134770001Y-102342745D01*
X134770001Y-102609352D01*
X134616364Y-102609352D01*
G37*
G36*
X135834939Y-102609352D02*
G01*
X135773514Y-102612347D01*
X135719693Y-102621399D01*
X135678412Y-102634443D01*
X135642578Y-102652319D01*
X135614017Y-102673289D01*
X135589807Y-102698533D01*
X135553847Y-102761927D01*
X135532375Y-102849471D01*
X135526829Y-102940820D01*
X135526829Y-103740920D01*
X135758912Y-103740920D01*
X135758912Y-102974971D01*
X135761934Y-102934453D01*
X135771176Y-102900934D01*
X135783787Y-102878293D01*
X135801033Y-102860316D01*
X135847239Y-102838690D01*
X135901103Y-102832967D01*
X136300873Y-102832967D01*
X136300873Y-102609352D01*
X135834939Y-102609352D01*
G37*
G36*
X137243377Y-102611311D02*
G01*
X137354002Y-102630658D01*
X137447537Y-102669006D01*
X137525841Y-102725683D01*
X137559747Y-102761313D01*
X137589829Y-102801745D01*
X137616547Y-102848180D01*
X137638959Y-102899694D01*
X137657510Y-102958553D01*
X137671100Y-103022923D01*
X137679816Y-103096005D01*
X137682763Y-103175136D01*
X137680947Y-103237705D01*
X137662068Y-103373228D01*
X137625231Y-103483928D01*
X137572438Y-103573150D01*
X137540149Y-103610643D01*
X137504133Y-103643364D01*
X137463505Y-103671962D01*
X137419252Y-103695584D01*
X137369292Y-103714976D01*
X137315700Y-103728975D01*
X137255262Y-103737938D01*
X137191145Y-103740920D01*
X136954316Y-103740920D01*
X136902302Y-103739003D01*
X136791309Y-103719800D01*
X136697741Y-103681677D01*
X136619544Y-103625285D01*
X136585689Y-103589784D01*
X136555674Y-103549488D01*
X136528984Y-103503111D01*
X136506608Y-103451644D01*
X136488055Y-103392682D01*
X136474470Y-103328171D01*
X136465740Y-103254713D01*
X136462792Y-103175136D01*
X136697015Y-103175136D01*
X136700977Y-103259015D01*
X136720481Y-103355598D01*
X136753769Y-103423467D01*
X136775917Y-103449787D01*
X136801926Y-103471455D01*
X136834329Y-103489739D01*
X136871414Y-103502978D01*
X136920281Y-103512234D01*
X136975719Y-103515257D01*
X137169835Y-103515257D01*
X137226487Y-103512022D01*
X137303704Y-103492577D01*
X137361737Y-103456354D01*
X137385793Y-103430432D01*
X137405834Y-103399422D01*
X137423456Y-103358882D01*
X137436327Y-103311672D01*
X137445443Y-103248213D01*
X137448446Y-103175136D01*
X137444271Y-103090003D01*
X137424306Y-102993462D01*
X137390439Y-102925191D01*
X137368014Y-102898679D01*
X137341763Y-102876846D01*
X137309307Y-102858492D01*
X137272296Y-102845200D01*
X137224172Y-102835985D01*
X137169835Y-102832967D01*
X136975719Y-102832967D01*
X136919430Y-102836154D01*
X136842024Y-102855550D01*
X136783921Y-102891748D01*
X136759822Y-102917708D01*
X136739778Y-102948738D01*
X136722099Y-102989481D01*
X136709210Y-103036899D01*
X136700028Y-103101150D01*
X136697015Y-103175136D01*
X136462792Y-103175136D01*
X136464621Y-103112028D01*
X136483474Y-102976293D01*
X136520186Y-102865669D01*
X136572763Y-102776661D01*
X136604918Y-102739293D01*
X136640813Y-102706676D01*
X136681332Y-102678172D01*
X136725511Y-102654619D01*
X136775474Y-102635270D01*
X136829141Y-102621295D01*
X136889828Y-102612334D01*
X136954316Y-102609352D01*
X137191145Y-102609352D01*
X137243377Y-102611311D01*
G37*
G36*
X137946950Y-102119875D02*
G01*
X137946950Y-103740920D01*
X138179033Y-103740920D01*
X138179033Y-102119875D01*
X137946950Y-102119875D01*
G37*
G36*
X138496356Y-102119875D02*
G01*
X138496356Y-103740920D01*
X138728439Y-103740920D01*
X138728439Y-102119875D01*
X138496356Y-102119875D01*
G37*
G36*
X139798570Y-102609508D02*
G01*
X139914364Y-102622082D01*
X140003101Y-102652095D01*
X140039262Y-102673002D01*
X140070649Y-102697814D01*
X140098028Y-102727253D01*
X140120587Y-102760573D01*
X140139569Y-102800535D01*
X140153259Y-102844681D01*
X140162409Y-102898287D01*
X140165418Y-102956639D01*
X140165363Y-102964683D01*
X140154283Y-103061296D01*
X140125780Y-103136108D01*
X140079810Y-103194794D01*
X140048800Y-103219318D01*
X140012489Y-103239959D01*
X139967640Y-103257612D01*
X139916293Y-103270620D01*
X139852573Y-103279383D01*
X139780536Y-103282337D01*
X139247974Y-103282337D01*
X139247974Y-103361156D01*
X139248253Y-103372815D01*
X139260728Y-103431878D01*
X139290492Y-103475006D01*
X139312823Y-103491505D01*
X139340386Y-103503956D01*
X139375863Y-103512356D01*
X139417895Y-103515257D01*
X140109956Y-103515257D01*
X140109956Y-103740920D01*
X139417895Y-103740920D01*
X139386597Y-103740244D01*
X139275807Y-103724644D01*
X139229445Y-103709888D01*
X139188172Y-103690796D01*
X139151458Y-103667333D01*
X139119658Y-103639951D01*
X139091399Y-103607273D01*
X139068226Y-103570865D01*
X139048633Y-103527483D01*
X139034612Y-103480447D01*
X139025338Y-103424679D01*
X139022312Y-103365436D01*
X139022312Y-102984091D01*
X139247974Y-102984091D01*
X139247974Y-103099295D01*
X139774115Y-103099295D01*
X139839885Y-103093026D01*
X139892537Y-103071327D01*
X139911312Y-103054378D01*
X139924757Y-103033786D01*
X139934519Y-103003950D01*
X139937615Y-102969295D01*
X139929612Y-102916032D01*
X139903691Y-102873299D01*
X139882908Y-102856797D01*
X139856853Y-102844411D01*
X139822071Y-102835886D01*
X139780536Y-102832967D01*
X139417895Y-102832967D01*
X139344750Y-102842901D01*
X139316511Y-102854694D01*
X139293503Y-102870476D01*
X139274283Y-102891463D01*
X139260534Y-102916066D01*
X139251033Y-102948413D01*
X139247974Y-102984091D01*
X139022312Y-102984091D01*
X139022312Y-102981950D01*
X139024103Y-102936603D01*
X139042280Y-102840235D01*
X139078085Y-102761898D01*
X139130909Y-102699462D01*
X139164251Y-102673790D01*
X139202486Y-102652036D01*
X139246790Y-102634115D01*
X139296513Y-102620844D01*
X139354108Y-102612278D01*
X139417895Y-102609352D01*
X139782676Y-102609352D01*
X139798570Y-102609508D01*
G37*
G36*
X140742368Y-102609352D02*
G01*
X140680943Y-102612347D01*
X140627121Y-102621399D01*
X140585841Y-102634443D01*
X140550006Y-102652319D01*
X140521446Y-102673289D01*
X140497236Y-102698533D01*
X140461276Y-102761927D01*
X140439804Y-102849471D01*
X140434258Y-102940820D01*
X140434258Y-103740920D01*
X140666341Y-103740920D01*
X140666341Y-102974971D01*
X140669363Y-102934453D01*
X140678605Y-102900934D01*
X140691216Y-102878293D01*
X140708461Y-102860316D01*
X140754668Y-102838690D01*
X140808531Y-102832967D01*
X141208302Y-102832967D01*
X141208302Y-102609352D01*
X140742368Y-102609352D01*
G37*
G36*
X142000865Y-102293704D02*
G01*
X142000865Y-102551471D01*
X142793241Y-102551471D01*
X142834876Y-102554362D01*
X142871303Y-102562689D01*
X142901989Y-102575580D01*
X142927929Y-102592682D01*
X142966388Y-102638218D01*
X142987431Y-102698581D01*
X142990800Y-102738887D01*
X142987755Y-102778932D01*
X142978352Y-102817114D01*
X142964191Y-102848706D01*
X142944310Y-102876862D01*
X142921351Y-102898457D01*
X142893339Y-102915880D01*
X142862024Y-102927918D01*
X142825828Y-102935075D01*
X142793241Y-102936911D01*
X142232110Y-102936911D01*
X142178244Y-102939938D01*
X142132002Y-102949216D01*
X142098779Y-102962117D01*
X142070711Y-102979851D01*
X142049357Y-103000562D01*
X142032158Y-103025642D01*
X142009577Y-103090843D01*
X142003005Y-103168250D01*
X142003005Y-103740920D01*
X142260679Y-103740920D01*
X142260679Y-103217290D01*
X142263666Y-103199394D01*
X142272671Y-103188702D01*
X142293993Y-103183976D01*
X142667801Y-103183976D01*
X142996383Y-103740920D01*
X143282811Y-103740920D01*
X142947063Y-103163690D01*
X142995541Y-103147017D01*
X143039363Y-103125919D01*
X143114965Y-103070799D01*
X143174969Y-102999142D01*
X143218934Y-102911351D01*
X143244848Y-102808986D01*
X143250707Y-102728185D01*
X143247702Y-102670382D01*
X143238578Y-102614438D01*
X143224189Y-102563846D01*
X143204054Y-102515991D01*
X143179724Y-102473908D01*
X143150065Y-102435153D01*
X143116782Y-102401756D01*
X143078470Y-102372145D01*
X143036373Y-102347378D01*
X142989351Y-102326878D01*
X142937793Y-102311108D01*
X142881219Y-102300204D01*
X142784680Y-102293704D01*
X142000865Y-102293704D01*
G37*
G36*
X144193815Y-102609508D02*
G01*
X144309610Y-102622082D01*
X144398347Y-102652095D01*
X144434508Y-102673002D01*
X144465895Y-102697814D01*
X144493274Y-102727253D01*
X144515832Y-102760573D01*
X144534815Y-102800535D01*
X144548504Y-102844681D01*
X144557655Y-102898287D01*
X144560664Y-102956639D01*
X144560609Y-102964683D01*
X144549529Y-103061296D01*
X144521026Y-103136108D01*
X144475056Y-103194794D01*
X144444046Y-103219318D01*
X144407734Y-103239959D01*
X144362885Y-103257612D01*
X144311539Y-103270620D01*
X144247819Y-103279383D01*
X144175782Y-103282337D01*
X143643219Y-103282337D01*
X143643219Y-103361156D01*
X143643499Y-103372815D01*
X143655974Y-103431878D01*
X143685738Y-103475006D01*
X143708069Y-103491505D01*
X143735632Y-103503956D01*
X143771108Y-103512356D01*
X143813141Y-103515257D01*
X144505202Y-103515257D01*
X144505202Y-103740920D01*
X143813141Y-103740920D01*
X143781842Y-103740244D01*
X143671052Y-103724644D01*
X143624691Y-103709888D01*
X143583418Y-103690796D01*
X143546704Y-103667333D01*
X143514904Y-103639951D01*
X143486645Y-103607273D01*
X143463471Y-103570865D01*
X143443879Y-103527483D01*
X143429858Y-103480447D01*
X143420584Y-103424679D01*
X143417557Y-103365436D01*
X143417557Y-102984091D01*
X143643219Y-102984091D01*
X143643219Y-103099295D01*
X144169361Y-103099295D01*
X144235131Y-103093026D01*
X144287783Y-103071327D01*
X144306558Y-103054378D01*
X144320003Y-103033786D01*
X144329765Y-103003950D01*
X144332861Y-102969295D01*
X144324858Y-102916032D01*
X144298937Y-102873299D01*
X144278154Y-102856797D01*
X144252099Y-102844411D01*
X144217317Y-102835886D01*
X144175782Y-102832967D01*
X143813141Y-102832967D01*
X143739996Y-102842901D01*
X143711757Y-102854694D01*
X143688749Y-102870476D01*
X143669529Y-102891463D01*
X143655780Y-102916066D01*
X143646278Y-102948413D01*
X143643219Y-102984091D01*
X143417557Y-102984091D01*
X143417557Y-102981950D01*
X143419348Y-102936603D01*
X143437526Y-102840235D01*
X143473331Y-102761898D01*
X143526154Y-102699462D01*
X143559496Y-102673790D01*
X143597732Y-102652036D01*
X143642036Y-102634115D01*
X143691759Y-102620844D01*
X143749354Y-102612278D01*
X143813141Y-102609352D01*
X144177922Y-102609352D01*
X144193815Y-102609508D01*
G37*
G36*
X144669819Y-102609352D02*
G01*
X145085409Y-103616038D01*
X145103807Y-103653086D01*
X145126255Y-103684407D01*
X145151183Y-103708898D01*
X145179805Y-103728687D01*
X145249496Y-103755189D01*
X145344200Y-103764742D01*
X145401028Y-103761670D01*
X145451653Y-103752074D01*
X145489487Y-103738559D01*
X145523128Y-103719705D01*
X145550507Y-103697296D01*
X145574459Y-103669798D01*
X145605130Y-103616131D01*
X146042217Y-102609352D01*
X145792453Y-102609352D01*
X145401243Y-103513675D01*
X145390497Y-103529984D01*
X145375504Y-103540415D01*
X145344200Y-103545966D01*
X145321186Y-103542884D01*
X145303977Y-103533223D01*
X145291530Y-103513769D01*
X144915209Y-102609352D01*
X144669819Y-102609352D01*
G37*
G36*
X146705617Y-102293704D02*
G01*
X146705617Y-102551471D01*
X146838780Y-102551471D01*
X146875086Y-102554541D01*
X146902494Y-102564120D01*
X146918016Y-102576237D01*
X146929157Y-102592767D01*
X146939888Y-102641682D01*
X146940305Y-102657369D01*
X146940305Y-103740920D01*
X147198072Y-103740920D01*
X147198072Y-102640340D01*
X147194914Y-102559384D01*
X147184724Y-102490335D01*
X147171666Y-102445625D01*
X147153487Y-102407192D01*
X147133162Y-102378699D01*
X147108307Y-102354610D01*
X147046092Y-102319878D01*
X146957460Y-102299164D01*
X146860090Y-102293704D01*
X146705617Y-102293704D01*
G37*
D12*
X78333333Y-81954819D02*
X78000000Y-81478628D01*
X77761905Y-81954819D02*
X77761905Y-80954819D01*
X77761905Y-80954819D02*
X78142857Y-80954819D01*
X78142857Y-80954819D02*
X78238095Y-81002438D01*
X78238095Y-81002438D02*
X78285714Y-81050057D01*
X78285714Y-81050057D02*
X78333333Y-81145295D01*
X78333333Y-81145295D02*
X78333333Y-81288152D01*
X78333333Y-81288152D02*
X78285714Y-81383390D01*
X78285714Y-81383390D02*
X78238095Y-81431009D01*
X78238095Y-81431009D02*
X78142857Y-81478628D01*
X78142857Y-81478628D02*
X77761905Y-81478628D01*
X78714286Y-81050057D02*
X78761905Y-81002438D01*
X78761905Y-81002438D02*
X78857143Y-80954819D01*
X78857143Y-80954819D02*
X79095238Y-80954819D01*
X79095238Y-80954819D02*
X79190476Y-81002438D01*
X79190476Y-81002438D02*
X79238095Y-81050057D01*
X79238095Y-81050057D02*
X79285714Y-81145295D01*
X79285714Y-81145295D02*
X79285714Y-81240533D01*
X79285714Y-81240533D02*
X79238095Y-81383390D01*
X79238095Y-81383390D02*
X78666667Y-81954819D01*
X78666667Y-81954819D02*
X79285714Y-81954819D01*
X71374408Y-76074915D02*
X71326789Y-76170153D01*
X71326789Y-76170153D02*
X71231551Y-76265391D01*
X71231551Y-76265391D02*
X71088693Y-76408248D01*
X71088693Y-76408248D02*
X71041074Y-76503486D01*
X71041074Y-76503486D02*
X71041074Y-76598724D01*
X71279170Y-76551105D02*
X71231551Y-76646343D01*
X71231551Y-76646343D02*
X71136312Y-76741581D01*
X71136312Y-76741581D02*
X70945836Y-76789200D01*
X70945836Y-76789200D02*
X70612503Y-76789200D01*
X70612503Y-76789200D02*
X70422027Y-76741581D01*
X70422027Y-76741581D02*
X70326789Y-76646343D01*
X70326789Y-76646343D02*
X70279170Y-76551105D01*
X70279170Y-76551105D02*
X70279170Y-76360629D01*
X70279170Y-76360629D02*
X70326789Y-76265391D01*
X70326789Y-76265391D02*
X70422027Y-76170153D01*
X70422027Y-76170153D02*
X70612503Y-76122534D01*
X70612503Y-76122534D02*
X70945836Y-76122534D01*
X70945836Y-76122534D02*
X71136312Y-76170153D01*
X71136312Y-76170153D02*
X71231551Y-76265391D01*
X71231551Y-76265391D02*
X71279170Y-76360629D01*
X71279170Y-76360629D02*
X71279170Y-76551105D01*
X70279170Y-75789200D02*
X70279170Y-75170153D01*
X70279170Y-75170153D02*
X70660122Y-75503486D01*
X70660122Y-75503486D02*
X70660122Y-75360629D01*
X70660122Y-75360629D02*
X70707741Y-75265391D01*
X70707741Y-75265391D02*
X70755360Y-75217772D01*
X70755360Y-75217772D02*
X70850598Y-75170153D01*
X70850598Y-75170153D02*
X71088693Y-75170153D01*
X71088693Y-75170153D02*
X71183931Y-75217772D01*
X71183931Y-75217772D02*
X71231551Y-75265391D01*
X71231551Y-75265391D02*
X71279170Y-75360629D01*
X71279170Y-75360629D02*
X71279170Y-75646343D01*
X71279170Y-75646343D02*
X71231551Y-75741581D01*
X71231551Y-75741581D02*
X71183931Y-75789200D01*
X110954819Y-73078094D02*
X109954819Y-73078094D01*
X110954819Y-72506666D02*
X110383390Y-72935237D01*
X109954819Y-72506666D02*
X110526247Y-73078094D01*
X110954819Y-71554285D02*
X110954819Y-72125713D01*
X110954819Y-71839999D02*
X109954819Y-71839999D01*
X109954819Y-71839999D02*
X110097676Y-71935237D01*
X110097676Y-71935237D02*
X110192914Y-72030475D01*
X110192914Y-72030475D02*
X110240533Y-72125713D01*
X78333333Y-83454819D02*
X78000000Y-82978628D01*
X77761905Y-83454819D02*
X77761905Y-82454819D01*
X77761905Y-82454819D02*
X78142857Y-82454819D01*
X78142857Y-82454819D02*
X78238095Y-82502438D01*
X78238095Y-82502438D02*
X78285714Y-82550057D01*
X78285714Y-82550057D02*
X78333333Y-82645295D01*
X78333333Y-82645295D02*
X78333333Y-82788152D01*
X78333333Y-82788152D02*
X78285714Y-82883390D01*
X78285714Y-82883390D02*
X78238095Y-82931009D01*
X78238095Y-82931009D02*
X78142857Y-82978628D01*
X78142857Y-82978628D02*
X77761905Y-82978628D01*
X78666667Y-82454819D02*
X79285714Y-82454819D01*
X79285714Y-82454819D02*
X78952381Y-82835771D01*
X78952381Y-82835771D02*
X79095238Y-82835771D01*
X79095238Y-82835771D02*
X79190476Y-82883390D01*
X79190476Y-82883390D02*
X79238095Y-82931009D01*
X79238095Y-82931009D02*
X79285714Y-83026247D01*
X79285714Y-83026247D02*
X79285714Y-83264342D01*
X79285714Y-83264342D02*
X79238095Y-83359580D01*
X79238095Y-83359580D02*
X79190476Y-83407200D01*
X79190476Y-83407200D02*
X79095238Y-83454819D01*
X79095238Y-83454819D02*
X78809524Y-83454819D01*
X78809524Y-83454819D02*
X78714286Y-83407200D01*
X78714286Y-83407200D02*
X78666667Y-83359580D01*
X96454819Y-72166666D02*
X95978628Y-72499999D01*
X96454819Y-72738094D02*
X95454819Y-72738094D01*
X95454819Y-72738094D02*
X95454819Y-72357142D01*
X95454819Y-72357142D02*
X95502438Y-72261904D01*
X95502438Y-72261904D02*
X95550057Y-72214285D01*
X95550057Y-72214285D02*
X95645295Y-72166666D01*
X95645295Y-72166666D02*
X95788152Y-72166666D01*
X95788152Y-72166666D02*
X95883390Y-72214285D01*
X95883390Y-72214285D02*
X95931009Y-72261904D01*
X95931009Y-72261904D02*
X95978628Y-72357142D01*
X95978628Y-72357142D02*
X95978628Y-72738094D01*
X95454819Y-71833332D02*
X95454819Y-71166666D01*
X95454819Y-71166666D02*
X96454819Y-71595237D01*
X78333333Y-84954819D02*
X78000000Y-84478628D01*
X77761905Y-84954819D02*
X77761905Y-83954819D01*
X77761905Y-83954819D02*
X78142857Y-83954819D01*
X78142857Y-83954819D02*
X78238095Y-84002438D01*
X78238095Y-84002438D02*
X78285714Y-84050057D01*
X78285714Y-84050057D02*
X78333333Y-84145295D01*
X78333333Y-84145295D02*
X78333333Y-84288152D01*
X78333333Y-84288152D02*
X78285714Y-84383390D01*
X78285714Y-84383390D02*
X78238095Y-84431009D01*
X78238095Y-84431009D02*
X78142857Y-84478628D01*
X78142857Y-84478628D02*
X77761905Y-84478628D01*
X79190476Y-84288152D02*
X79190476Y-84954819D01*
X78952381Y-83907200D02*
X78714286Y-84621485D01*
X78714286Y-84621485D02*
X79333333Y-84621485D01*
X147261905Y-92454819D02*
X147261905Y-91454819D01*
X147261905Y-91454819D02*
X147500000Y-91454819D01*
X147500000Y-91454819D02*
X147642857Y-91502438D01*
X147642857Y-91502438D02*
X147738095Y-91597676D01*
X147738095Y-91597676D02*
X147785714Y-91692914D01*
X147785714Y-91692914D02*
X147833333Y-91883390D01*
X147833333Y-91883390D02*
X147833333Y-92026247D01*
X147833333Y-92026247D02*
X147785714Y-92216723D01*
X147785714Y-92216723D02*
X147738095Y-92311961D01*
X147738095Y-92311961D02*
X147642857Y-92407200D01*
X147642857Y-92407200D02*
X147500000Y-92454819D01*
X147500000Y-92454819D02*
X147261905Y-92454819D01*
X148166667Y-91454819D02*
X148785714Y-91454819D01*
X148785714Y-91454819D02*
X148452381Y-91835771D01*
X148452381Y-91835771D02*
X148595238Y-91835771D01*
X148595238Y-91835771D02*
X148690476Y-91883390D01*
X148690476Y-91883390D02*
X148738095Y-91931009D01*
X148738095Y-91931009D02*
X148785714Y-92026247D01*
X148785714Y-92026247D02*
X148785714Y-92264342D01*
X148785714Y-92264342D02*
X148738095Y-92359580D01*
X148738095Y-92359580D02*
X148690476Y-92407200D01*
X148690476Y-92407200D02*
X148595238Y-92454819D01*
X148595238Y-92454819D02*
X148309524Y-92454819D01*
X148309524Y-92454819D02*
X148214286Y-92407200D01*
X148214286Y-92407200D02*
X148166667Y-92359580D01*
X120801905Y-92504819D02*
X120801905Y-91504819D01*
X120801905Y-91504819D02*
X121040000Y-91504819D01*
X121040000Y-91504819D02*
X121182857Y-91552438D01*
X121182857Y-91552438D02*
X121278095Y-91647676D01*
X121278095Y-91647676D02*
X121325714Y-91742914D01*
X121325714Y-91742914D02*
X121373333Y-91933390D01*
X121373333Y-91933390D02*
X121373333Y-92076247D01*
X121373333Y-92076247D02*
X121325714Y-92266723D01*
X121325714Y-92266723D02*
X121278095Y-92361961D01*
X121278095Y-92361961D02*
X121182857Y-92457200D01*
X121182857Y-92457200D02*
X121040000Y-92504819D01*
X121040000Y-92504819D02*
X120801905Y-92504819D01*
X121754286Y-91600057D02*
X121801905Y-91552438D01*
X121801905Y-91552438D02*
X121897143Y-91504819D01*
X121897143Y-91504819D02*
X122135238Y-91504819D01*
X122135238Y-91504819D02*
X122230476Y-91552438D01*
X122230476Y-91552438D02*
X122278095Y-91600057D01*
X122278095Y-91600057D02*
X122325714Y-91695295D01*
X122325714Y-91695295D02*
X122325714Y-91790533D01*
X122325714Y-91790533D02*
X122278095Y-91933390D01*
X122278095Y-91933390D02*
X121706667Y-92504819D01*
X121706667Y-92504819D02*
X122325714Y-92504819D01*
X128454819Y-49666666D02*
X127978628Y-49999999D01*
X128454819Y-50238094D02*
X127454819Y-50238094D01*
X127454819Y-50238094D02*
X127454819Y-49857142D01*
X127454819Y-49857142D02*
X127502438Y-49761904D01*
X127502438Y-49761904D02*
X127550057Y-49714285D01*
X127550057Y-49714285D02*
X127645295Y-49666666D01*
X127645295Y-49666666D02*
X127788152Y-49666666D01*
X127788152Y-49666666D02*
X127883390Y-49714285D01*
X127883390Y-49714285D02*
X127931009Y-49761904D01*
X127931009Y-49761904D02*
X127978628Y-49857142D01*
X127978628Y-49857142D02*
X127978628Y-50238094D01*
X127454819Y-48809523D02*
X127454819Y-48999999D01*
X127454819Y-48999999D02*
X127502438Y-49095237D01*
X127502438Y-49095237D02*
X127550057Y-49142856D01*
X127550057Y-49142856D02*
X127692914Y-49238094D01*
X127692914Y-49238094D02*
X127883390Y-49285713D01*
X127883390Y-49285713D02*
X128264342Y-49285713D01*
X128264342Y-49285713D02*
X128359580Y-49238094D01*
X128359580Y-49238094D02*
X128407200Y-49190475D01*
X128407200Y-49190475D02*
X128454819Y-49095237D01*
X128454819Y-49095237D02*
X128454819Y-48904761D01*
X128454819Y-48904761D02*
X128407200Y-48809523D01*
X128407200Y-48809523D02*
X128359580Y-48761904D01*
X128359580Y-48761904D02*
X128264342Y-48714285D01*
X128264342Y-48714285D02*
X128026247Y-48714285D01*
X128026247Y-48714285D02*
X127931009Y-48761904D01*
X127931009Y-48761904D02*
X127883390Y-48809523D01*
X127883390Y-48809523D02*
X127835771Y-48904761D01*
X127835771Y-48904761D02*
X127835771Y-49095237D01*
X127835771Y-49095237D02*
X127883390Y-49190475D01*
X127883390Y-49190475D02*
X127931009Y-49238094D01*
X127931009Y-49238094D02*
X128026247Y-49285713D01*
X126359580Y-58166666D02*
X126407200Y-58214285D01*
X126407200Y-58214285D02*
X126454819Y-58357142D01*
X126454819Y-58357142D02*
X126454819Y-58452380D01*
X126454819Y-58452380D02*
X126407200Y-58595237D01*
X126407200Y-58595237D02*
X126311961Y-58690475D01*
X126311961Y-58690475D02*
X126216723Y-58738094D01*
X126216723Y-58738094D02*
X126026247Y-58785713D01*
X126026247Y-58785713D02*
X125883390Y-58785713D01*
X125883390Y-58785713D02*
X125692914Y-58738094D01*
X125692914Y-58738094D02*
X125597676Y-58690475D01*
X125597676Y-58690475D02*
X125502438Y-58595237D01*
X125502438Y-58595237D02*
X125454819Y-58452380D01*
X125454819Y-58452380D02*
X125454819Y-58357142D01*
X125454819Y-58357142D02*
X125502438Y-58214285D01*
X125502438Y-58214285D02*
X125550057Y-58166666D01*
X126454819Y-57214285D02*
X126454819Y-57785713D01*
X126454819Y-57499999D02*
X125454819Y-57499999D01*
X125454819Y-57499999D02*
X125597676Y-57595237D01*
X125597676Y-57595237D02*
X125692914Y-57690475D01*
X125692914Y-57690475D02*
X125740533Y-57785713D01*
X78333333Y-80454819D02*
X78000000Y-79978628D01*
X77761905Y-80454819D02*
X77761905Y-79454819D01*
X77761905Y-79454819D02*
X78142857Y-79454819D01*
X78142857Y-79454819D02*
X78238095Y-79502438D01*
X78238095Y-79502438D02*
X78285714Y-79550057D01*
X78285714Y-79550057D02*
X78333333Y-79645295D01*
X78333333Y-79645295D02*
X78333333Y-79788152D01*
X78333333Y-79788152D02*
X78285714Y-79883390D01*
X78285714Y-79883390D02*
X78238095Y-79931009D01*
X78238095Y-79931009D02*
X78142857Y-79978628D01*
X78142857Y-79978628D02*
X77761905Y-79978628D01*
X79285714Y-80454819D02*
X78714286Y-80454819D01*
X79000000Y-80454819D02*
X79000000Y-79454819D01*
X79000000Y-79454819D02*
X78904762Y-79597676D01*
X78904762Y-79597676D02*
X78809524Y-79692914D01*
X78809524Y-79692914D02*
X78714286Y-79740533D01*
X132157630Y-65601709D02*
X132110011Y-65696947D01*
X132110011Y-65696947D02*
X132014773Y-65792185D01*
X132014773Y-65792185D02*
X131871915Y-65935042D01*
X131871915Y-65935042D02*
X131824296Y-66030280D01*
X131824296Y-66030280D02*
X131824296Y-66125518D01*
X132062392Y-66077899D02*
X132014773Y-66173137D01*
X132014773Y-66173137D02*
X131919534Y-66268375D01*
X131919534Y-66268375D02*
X131729058Y-66315994D01*
X131729058Y-66315994D02*
X131395725Y-66315994D01*
X131395725Y-66315994D02*
X131205249Y-66268375D01*
X131205249Y-66268375D02*
X131110011Y-66173137D01*
X131110011Y-66173137D02*
X131062392Y-66077899D01*
X131062392Y-66077899D02*
X131062392Y-65887423D01*
X131062392Y-65887423D02*
X131110011Y-65792185D01*
X131110011Y-65792185D02*
X131205249Y-65696947D01*
X131205249Y-65696947D02*
X131395725Y-65649328D01*
X131395725Y-65649328D02*
X131729058Y-65649328D01*
X131729058Y-65649328D02*
X131919534Y-65696947D01*
X131919534Y-65696947D02*
X132014773Y-65792185D01*
X132014773Y-65792185D02*
X132062392Y-65887423D01*
X132062392Y-65887423D02*
X132062392Y-66077899D01*
X132062392Y-64696947D02*
X132062392Y-65268375D01*
X132062392Y-64982661D02*
X131062392Y-64982661D01*
X131062392Y-64982661D02*
X131205249Y-65077899D01*
X131205249Y-65077899D02*
X131300487Y-65173137D01*
X131300487Y-65173137D02*
X131348106Y-65268375D01*
X129833333Y-44954819D02*
X129357143Y-44954819D01*
X129357143Y-44954819D02*
X129357143Y-43954819D01*
X130119048Y-44050057D02*
X130166667Y-44002438D01*
X130166667Y-44002438D02*
X130261905Y-43954819D01*
X130261905Y-43954819D02*
X130500000Y-43954819D01*
X130500000Y-43954819D02*
X130595238Y-44002438D01*
X130595238Y-44002438D02*
X130642857Y-44050057D01*
X130642857Y-44050057D02*
X130690476Y-44145295D01*
X130690476Y-44145295D02*
X130690476Y-44240533D01*
X130690476Y-44240533D02*
X130642857Y-44383390D01*
X130642857Y-44383390D02*
X130071429Y-44954819D01*
X130071429Y-44954819D02*
X130690476Y-44954819D01*
X111128571Y-56614700D02*
X112271429Y-56614700D01*
X123428571Y-56614700D02*
X124571429Y-56614700D01*
X124000000Y-57186128D02*
X124000000Y-56043271D01*
X100597557Y-74135238D02*
X100549938Y-74230476D01*
X100549938Y-74230476D02*
X100454700Y-74325714D01*
X100454700Y-74325714D02*
X100311842Y-74468571D01*
X100311842Y-74468571D02*
X100264223Y-74563809D01*
X100264223Y-74563809D02*
X100264223Y-74659047D01*
X100502319Y-74611428D02*
X100454700Y-74706666D01*
X100454700Y-74706666D02*
X100359461Y-74801904D01*
X100359461Y-74801904D02*
X100168985Y-74849523D01*
X100168985Y-74849523D02*
X99835652Y-74849523D01*
X99835652Y-74849523D02*
X99645176Y-74801904D01*
X99645176Y-74801904D02*
X99549938Y-74706666D01*
X99549938Y-74706666D02*
X99502319Y-74611428D01*
X99502319Y-74611428D02*
X99502319Y-74420952D01*
X99502319Y-74420952D02*
X99549938Y-74325714D01*
X99549938Y-74325714D02*
X99645176Y-74230476D01*
X99645176Y-74230476D02*
X99835652Y-74182857D01*
X99835652Y-74182857D02*
X100168985Y-74182857D01*
X100168985Y-74182857D02*
X100359461Y-74230476D01*
X100359461Y-74230476D02*
X100454700Y-74325714D01*
X100454700Y-74325714D02*
X100502319Y-74420952D01*
X100502319Y-74420952D02*
X100502319Y-74611428D01*
X99597557Y-73801904D02*
X99549938Y-73754285D01*
X99549938Y-73754285D02*
X99502319Y-73659047D01*
X99502319Y-73659047D02*
X99502319Y-73420952D01*
X99502319Y-73420952D02*
X99549938Y-73325714D01*
X99549938Y-73325714D02*
X99597557Y-73278095D01*
X99597557Y-73278095D02*
X99692795Y-73230476D01*
X99692795Y-73230476D02*
X99788033Y-73230476D01*
X99788033Y-73230476D02*
X99930890Y-73278095D01*
X99930890Y-73278095D02*
X100502319Y-73849523D01*
X100502319Y-73849523D02*
X100502319Y-73230476D01*
X157833333Y-44954819D02*
X157357143Y-44954819D01*
X157357143Y-44954819D02*
X157357143Y-43954819D01*
X158690476Y-44954819D02*
X158119048Y-44954819D01*
X158404762Y-44954819D02*
X158404762Y-43954819D01*
X158404762Y-43954819D02*
X158309524Y-44097676D01*
X158309524Y-44097676D02*
X158214286Y-44192914D01*
X158214286Y-44192914D02*
X158119048Y-44240533D01*
X141128571Y-56614700D02*
X142271429Y-56614700D01*
X153428571Y-56614700D02*
X154571429Y-56614700D01*
X154000000Y-57186128D02*
X154000000Y-56043271D01*
X75150057Y-76095238D02*
X75102438Y-76190476D01*
X75102438Y-76190476D02*
X75007200Y-76285714D01*
X75007200Y-76285714D02*
X74864342Y-76428571D01*
X74864342Y-76428571D02*
X74816723Y-76523809D01*
X74816723Y-76523809D02*
X74816723Y-76619047D01*
X75054819Y-76571428D02*
X75007200Y-76666666D01*
X75007200Y-76666666D02*
X74911961Y-76761904D01*
X74911961Y-76761904D02*
X74721485Y-76809523D01*
X74721485Y-76809523D02*
X74388152Y-76809523D01*
X74388152Y-76809523D02*
X74197676Y-76761904D01*
X74197676Y-76761904D02*
X74102438Y-76666666D01*
X74102438Y-76666666D02*
X74054819Y-76571428D01*
X74054819Y-76571428D02*
X74054819Y-76380952D01*
X74054819Y-76380952D02*
X74102438Y-76285714D01*
X74102438Y-76285714D02*
X74197676Y-76190476D01*
X74197676Y-76190476D02*
X74388152Y-76142857D01*
X74388152Y-76142857D02*
X74721485Y-76142857D01*
X74721485Y-76142857D02*
X74911961Y-76190476D01*
X74911961Y-76190476D02*
X75007200Y-76285714D01*
X75007200Y-76285714D02*
X75054819Y-76380952D01*
X75054819Y-76380952D02*
X75054819Y-76571428D01*
X74054819Y-75238095D02*
X74054819Y-75714285D01*
X74054819Y-75714285D02*
X74531009Y-75761904D01*
X74531009Y-75761904D02*
X74483390Y-75714285D01*
X74483390Y-75714285D02*
X74435771Y-75619047D01*
X74435771Y-75619047D02*
X74435771Y-75380952D01*
X74435771Y-75380952D02*
X74483390Y-75285714D01*
X74483390Y-75285714D02*
X74531009Y-75238095D01*
X74531009Y-75238095D02*
X74626247Y-75190476D01*
X74626247Y-75190476D02*
X74864342Y-75190476D01*
X74864342Y-75190476D02*
X74959580Y-75238095D01*
X74959580Y-75238095D02*
X75007200Y-75285714D01*
X75007200Y-75285714D02*
X75054819Y-75380952D01*
X75054819Y-75380952D02*
X75054819Y-75619047D01*
X75054819Y-75619047D02*
X75007200Y-75714285D01*
X75007200Y-75714285D02*
X74959580Y-75761904D01*
X101259580Y-67066666D02*
X101307200Y-67114285D01*
X101307200Y-67114285D02*
X101354819Y-67257142D01*
X101354819Y-67257142D02*
X101354819Y-67352380D01*
X101354819Y-67352380D02*
X101307200Y-67495237D01*
X101307200Y-67495237D02*
X101211961Y-67590475D01*
X101211961Y-67590475D02*
X101116723Y-67638094D01*
X101116723Y-67638094D02*
X100926247Y-67685713D01*
X100926247Y-67685713D02*
X100783390Y-67685713D01*
X100783390Y-67685713D02*
X100592914Y-67638094D01*
X100592914Y-67638094D02*
X100497676Y-67590475D01*
X100497676Y-67590475D02*
X100402438Y-67495237D01*
X100402438Y-67495237D02*
X100354819Y-67352380D01*
X100354819Y-67352380D02*
X100354819Y-67257142D01*
X100354819Y-67257142D02*
X100402438Y-67114285D01*
X100402438Y-67114285D02*
X100450057Y-67066666D01*
X100450057Y-66685713D02*
X100402438Y-66638094D01*
X100402438Y-66638094D02*
X100354819Y-66542856D01*
X100354819Y-66542856D02*
X100354819Y-66304761D01*
X100354819Y-66304761D02*
X100402438Y-66209523D01*
X100402438Y-66209523D02*
X100450057Y-66161904D01*
X100450057Y-66161904D02*
X100545295Y-66114285D01*
X100545295Y-66114285D02*
X100640533Y-66114285D01*
X100640533Y-66114285D02*
X100783390Y-66161904D01*
X100783390Y-66161904D02*
X101354819Y-66733332D01*
X101354819Y-66733332D02*
X101354819Y-66114285D01*
X102683333Y-104304819D02*
X102207143Y-104304819D01*
X102207143Y-104304819D02*
X102207143Y-103304819D01*
X102921429Y-103304819D02*
X103540476Y-103304819D01*
X103540476Y-103304819D02*
X103207143Y-103685771D01*
X103207143Y-103685771D02*
X103350000Y-103685771D01*
X103350000Y-103685771D02*
X103445238Y-103733390D01*
X103445238Y-103733390D02*
X103492857Y-103781009D01*
X103492857Y-103781009D02*
X103540476Y-103876247D01*
X103540476Y-103876247D02*
X103540476Y-104114342D01*
X103540476Y-104114342D02*
X103492857Y-104209580D01*
X103492857Y-104209580D02*
X103445238Y-104257200D01*
X103445238Y-104257200D02*
X103350000Y-104304819D01*
X103350000Y-104304819D02*
X103064286Y-104304819D01*
X103064286Y-104304819D02*
X102969048Y-104257200D01*
X102969048Y-104257200D02*
X102921429Y-104209580D01*
X97583333Y-83900057D02*
X97630952Y-83852438D01*
X97630952Y-83852438D02*
X97726190Y-83804819D01*
X97726190Y-83804819D02*
X97964285Y-83804819D01*
X97964285Y-83804819D02*
X98059523Y-83852438D01*
X98059523Y-83852438D02*
X98107142Y-83900057D01*
X98107142Y-83900057D02*
X98154761Y-83995295D01*
X98154761Y-83995295D02*
X98154761Y-84090533D01*
X98154761Y-84090533D02*
X98107142Y-84233390D01*
X98107142Y-84233390D02*
X97535714Y-84804819D01*
X97535714Y-84804819D02*
X98154761Y-84804819D01*
X99011904Y-84138152D02*
X99011904Y-84804819D01*
X98773809Y-83757200D02*
X98535714Y-84471485D01*
X98535714Y-84471485D02*
X99154761Y-84471485D01*
X99440476Y-84138152D02*
X99678571Y-84804819D01*
X99678571Y-84804819D02*
X99916666Y-84138152D01*
X101011905Y-83900057D02*
X101059524Y-83852438D01*
X101059524Y-83852438D02*
X101154762Y-83804819D01*
X101154762Y-83804819D02*
X101392857Y-83804819D01*
X101392857Y-83804819D02*
X101488095Y-83852438D01*
X101488095Y-83852438D02*
X101535714Y-83900057D01*
X101535714Y-83900057D02*
X101583333Y-83995295D01*
X101583333Y-83995295D02*
X101583333Y-84090533D01*
X101583333Y-84090533D02*
X101535714Y-84233390D01*
X101535714Y-84233390D02*
X100964286Y-84804819D01*
X100964286Y-84804819D02*
X101583333Y-84804819D01*
X102202381Y-83804819D02*
X102297619Y-83804819D01*
X102297619Y-83804819D02*
X102392857Y-83852438D01*
X102392857Y-83852438D02*
X102440476Y-83900057D01*
X102440476Y-83900057D02*
X102488095Y-83995295D01*
X102488095Y-83995295D02*
X102535714Y-84185771D01*
X102535714Y-84185771D02*
X102535714Y-84423866D01*
X102535714Y-84423866D02*
X102488095Y-84614342D01*
X102488095Y-84614342D02*
X102440476Y-84709580D01*
X102440476Y-84709580D02*
X102392857Y-84757200D01*
X102392857Y-84757200D02*
X102297619Y-84804819D01*
X102297619Y-84804819D02*
X102202381Y-84804819D01*
X102202381Y-84804819D02*
X102107143Y-84757200D01*
X102107143Y-84757200D02*
X102059524Y-84709580D01*
X102059524Y-84709580D02*
X102011905Y-84614342D01*
X102011905Y-84614342D02*
X101964286Y-84423866D01*
X101964286Y-84423866D02*
X101964286Y-84185771D01*
X101964286Y-84185771D02*
X102011905Y-83995295D01*
X102011905Y-83995295D02*
X102059524Y-83900057D01*
X102059524Y-83900057D02*
X102107143Y-83852438D01*
X102107143Y-83852438D02*
X102202381Y-83804819D01*
X102916667Y-84519104D02*
X103392857Y-84519104D01*
X102821429Y-84804819D02*
X103154762Y-83804819D01*
X103154762Y-83804819D02*
X103488095Y-84804819D01*
X104583334Y-84804819D02*
X104583334Y-83804819D01*
X105059524Y-84138152D02*
X105059524Y-84804819D01*
X105059524Y-84233390D02*
X105107143Y-84185771D01*
X105107143Y-84185771D02*
X105202381Y-84138152D01*
X105202381Y-84138152D02*
X105345238Y-84138152D01*
X105345238Y-84138152D02*
X105440476Y-84185771D01*
X105440476Y-84185771D02*
X105488095Y-84281009D01*
X105488095Y-84281009D02*
X105488095Y-84804819D01*
X105964286Y-84138152D02*
X105964286Y-85138152D01*
X105964286Y-84185771D02*
X106059524Y-84138152D01*
X106059524Y-84138152D02*
X106250000Y-84138152D01*
X106250000Y-84138152D02*
X106345238Y-84185771D01*
X106345238Y-84185771D02*
X106392857Y-84233390D01*
X106392857Y-84233390D02*
X106440476Y-84328628D01*
X106440476Y-84328628D02*
X106440476Y-84614342D01*
X106440476Y-84614342D02*
X106392857Y-84709580D01*
X106392857Y-84709580D02*
X106345238Y-84757200D01*
X106345238Y-84757200D02*
X106250000Y-84804819D01*
X106250000Y-84804819D02*
X106059524Y-84804819D01*
X106059524Y-84804819D02*
X105964286Y-84757200D01*
X107297619Y-84138152D02*
X107297619Y-84804819D01*
X106869048Y-84138152D02*
X106869048Y-84661961D01*
X106869048Y-84661961D02*
X106916667Y-84757200D01*
X106916667Y-84757200D02*
X107011905Y-84804819D01*
X107011905Y-84804819D02*
X107154762Y-84804819D01*
X107154762Y-84804819D02*
X107250000Y-84757200D01*
X107250000Y-84757200D02*
X107297619Y-84709580D01*
X107630953Y-84138152D02*
X108011905Y-84138152D01*
X107773810Y-83804819D02*
X107773810Y-84661961D01*
X107773810Y-84661961D02*
X107821429Y-84757200D01*
X107821429Y-84757200D02*
X107916667Y-84804819D01*
X107916667Y-84804819D02*
X108011905Y-84804819D01*
X96278571Y-85964700D02*
X97421429Y-85964700D01*
X96850000Y-86536128D02*
X96850000Y-85393271D01*
X108578571Y-85964700D02*
X109721429Y-85964700D01*
X117261905Y-92454819D02*
X117261905Y-91454819D01*
X117261905Y-91454819D02*
X117500000Y-91454819D01*
X117500000Y-91454819D02*
X117642857Y-91502438D01*
X117642857Y-91502438D02*
X117738095Y-91597676D01*
X117738095Y-91597676D02*
X117785714Y-91692914D01*
X117785714Y-91692914D02*
X117833333Y-91883390D01*
X117833333Y-91883390D02*
X117833333Y-92026247D01*
X117833333Y-92026247D02*
X117785714Y-92216723D01*
X117785714Y-92216723D02*
X117738095Y-92311961D01*
X117738095Y-92311961D02*
X117642857Y-92407200D01*
X117642857Y-92407200D02*
X117500000Y-92454819D01*
X117500000Y-92454819D02*
X117261905Y-92454819D01*
X118690476Y-91788152D02*
X118690476Y-92454819D01*
X118452381Y-91407200D02*
X118214286Y-92121485D01*
X118214286Y-92121485D02*
X118833333Y-92121485D01*
X78438095Y-48134819D02*
X78438095Y-48944342D01*
X78438095Y-48944342D02*
X78485714Y-49039580D01*
X78485714Y-49039580D02*
X78533333Y-49087200D01*
X78533333Y-49087200D02*
X78628571Y-49134819D01*
X78628571Y-49134819D02*
X78819047Y-49134819D01*
X78819047Y-49134819D02*
X78914285Y-49087200D01*
X78914285Y-49087200D02*
X78961904Y-49039580D01*
X78961904Y-49039580D02*
X79009523Y-48944342D01*
X79009523Y-48944342D02*
X79009523Y-48134819D01*
X80009523Y-49134819D02*
X79438095Y-49134819D01*
X79723809Y-49134819D02*
X79723809Y-48134819D01*
X79723809Y-48134819D02*
X79628571Y-48277676D01*
X79628571Y-48277676D02*
X79533333Y-48372914D01*
X79533333Y-48372914D02*
X79438095Y-48420533D01*
X140454819Y-73738094D02*
X139454819Y-73738094D01*
X140454819Y-73166666D02*
X139883390Y-73595237D01*
X139454819Y-73166666D02*
X140026247Y-73738094D01*
X139454819Y-72833332D02*
X139454819Y-72214285D01*
X139454819Y-72214285D02*
X139835771Y-72547618D01*
X139835771Y-72547618D02*
X139835771Y-72404761D01*
X139835771Y-72404761D02*
X139883390Y-72309523D01*
X139883390Y-72309523D02*
X139931009Y-72261904D01*
X139931009Y-72261904D02*
X140026247Y-72214285D01*
X140026247Y-72214285D02*
X140264342Y-72214285D01*
X140264342Y-72214285D02*
X140359580Y-72261904D01*
X140359580Y-72261904D02*
X140407200Y-72309523D01*
X140407200Y-72309523D02*
X140454819Y-72404761D01*
X140454819Y-72404761D02*
X140454819Y-72690475D01*
X140454819Y-72690475D02*
X140407200Y-72785713D01*
X140407200Y-72785713D02*
X140359580Y-72833332D01*
X143601905Y-93554819D02*
X143601905Y-92554819D01*
X143601905Y-92554819D02*
X143840000Y-92554819D01*
X143840000Y-92554819D02*
X143982857Y-92602438D01*
X143982857Y-92602438D02*
X144078095Y-92697676D01*
X144078095Y-92697676D02*
X144125714Y-92792914D01*
X144125714Y-92792914D02*
X144173333Y-92983390D01*
X144173333Y-92983390D02*
X144173333Y-93126247D01*
X144173333Y-93126247D02*
X144125714Y-93316723D01*
X144125714Y-93316723D02*
X144078095Y-93411961D01*
X144078095Y-93411961D02*
X143982857Y-93507200D01*
X143982857Y-93507200D02*
X143840000Y-93554819D01*
X143840000Y-93554819D02*
X143601905Y-93554819D01*
X145125714Y-93554819D02*
X144554286Y-93554819D01*
X144840000Y-93554819D02*
X144840000Y-92554819D01*
X144840000Y-92554819D02*
X144744762Y-92697676D01*
X144744762Y-92697676D02*
X144649524Y-92792914D01*
X144649524Y-92792914D02*
X144554286Y-92840533D01*
%TO.C,R2*%
D13*
X75762742Y-80977500D02*
X76237258Y-80977500D01*
X75762742Y-82022500D02*
X76237258Y-82022500D01*
%TO.C,Q3*%
X71664351Y-75219677D02*
X72664351Y-75219677D01*
X71664351Y-76739677D02*
X71664351Y-75219677D01*
X71714351Y-76739677D02*
X71664351Y-76739677D01*
X73614351Y-76739677D02*
X72834351Y-76739677D01*
X73784351Y-75219677D02*
X74784351Y-75219677D01*
X74784351Y-75219677D02*
X74784351Y-76739677D01*
X74784351Y-76739677D02*
X74734351Y-76739677D01*
X73174351Y-77519677D02*
X72844351Y-77279677D01*
X73174351Y-77039677D01*
X73174351Y-77519677D01*
G36*
X73174351Y-77519677D02*
G01*
X72844351Y-77279677D01*
X73174351Y-77039677D01*
X73174351Y-77519677D01*
G37*
%TO.C,K1*%
X111700000Y-57990000D02*
X111700000Y-87390000D01*
X111700000Y-87390000D02*
X124800000Y-87390000D01*
X114380000Y-81030000D02*
X114380000Y-82300000D01*
X115650000Y-79760000D02*
X115650000Y-82300000D01*
X115650000Y-81030000D02*
X114380000Y-81030000D01*
X115650000Y-82300000D02*
X120730000Y-82300000D01*
D14*
X119460000Y-82300000D02*
X118190000Y-79760000D01*
D13*
X120730000Y-79760000D02*
X115650000Y-79760000D01*
X120730000Y-81030000D02*
X120730000Y-79760000D01*
X120730000Y-82300000D02*
X120730000Y-81030000D01*
X122000000Y-81030000D02*
X120730000Y-81030000D01*
X122000000Y-82300000D02*
X122000000Y-81030000D01*
X123500000Y-87590000D02*
X125000000Y-87590000D01*
X124800000Y-57990000D02*
X111700000Y-57990000D01*
X124800000Y-87390000D02*
X124800000Y-57990000D01*
X125000000Y-87590000D02*
X125000000Y-86090000D01*
D15*
%TO.C,*%
G36*
X101897023Y-42398887D02*
G01*
X101897023Y-42646258D01*
X101875408Y-42646258D01*
X101853793Y-42646258D01*
X101853793Y-42398887D01*
X101853793Y-42151515D01*
X101875408Y-42151515D01*
X101897023Y-42151515D01*
X101897023Y-42398887D01*
G37*
G36*
X101820170Y-42511165D02*
G01*
X101820170Y-42577811D01*
X101805160Y-42580813D01*
X101782049Y-42583245D01*
X101758281Y-42582255D01*
X101743036Y-42579260D01*
X101722678Y-42570156D01*
X101707527Y-42556145D01*
X101696910Y-42536070D01*
X101690153Y-42508775D01*
X101687269Y-42483628D01*
X101684253Y-42444518D01*
X101752212Y-42444518D01*
X101820170Y-42444518D01*
X101820170Y-42511165D01*
G37*
G36*
X102064291Y-42486853D02*
G01*
X102061544Y-42516378D01*
X102055943Y-42538337D01*
X102046585Y-42554570D01*
X102032566Y-42566920D01*
X102021983Y-42573007D01*
X101999556Y-42580855D01*
X101973175Y-42583079D01*
X101943856Y-42580375D01*
X101930647Y-42578373D01*
X101930647Y-42511446D01*
X101930647Y-42444518D01*
X101998481Y-42444518D01*
X102066315Y-42444518D01*
X102064291Y-42486853D01*
G37*
G36*
X101824973Y-42286009D02*
G01*
X101824973Y-42420502D01*
X101740452Y-42420502D01*
X101655931Y-42420502D01*
X101657607Y-42313628D01*
X101658241Y-42278145D01*
X101658969Y-42250867D01*
X101659918Y-42230391D01*
X101661213Y-42215315D01*
X101662978Y-42204236D01*
X101665340Y-42195752D01*
X101668423Y-42188462D01*
X101668878Y-42187540D01*
X101677333Y-42173782D01*
X101687901Y-42163908D01*
X101702191Y-42157335D01*
X101721814Y-42153483D01*
X101748381Y-42151768D01*
X101768534Y-42151523D01*
X101824973Y-42151515D01*
X101824973Y-42286009D01*
G37*
G36*
X101990387Y-42152344D02*
G01*
X102016452Y-42153049D01*
X102034768Y-42153913D01*
X102047193Y-42155297D01*
X102055582Y-42157559D01*
X102061794Y-42161058D01*
X102067683Y-42166154D01*
X102069189Y-42167591D01*
X102076818Y-42176197D01*
X102082747Y-42186459D01*
X102087178Y-42199626D01*
X102090311Y-42216947D01*
X102092347Y-42239672D01*
X102093487Y-42269051D01*
X102093931Y-42306332D01*
X102093960Y-42321759D01*
X102093960Y-42420502D01*
X102009902Y-42420502D01*
X101925843Y-42420502D01*
X101925843Y-42285636D01*
X101925843Y-42150771D01*
X101990387Y-42152344D01*
G37*
G36*
X100445468Y-47402754D02*
G01*
X100444017Y-47427971D01*
X100361159Y-47429286D01*
X100278302Y-47430600D01*
X100278302Y-47483323D01*
X100278302Y-47536046D01*
X100352753Y-47536046D01*
X100427205Y-47536046D01*
X100427205Y-47562465D01*
X100427205Y-47588883D01*
X100352753Y-47588883D01*
X100278302Y-47588883D01*
X100278302Y-47644121D01*
X100278302Y-47699360D01*
X100362611Y-47699360D01*
X100446920Y-47699360D01*
X100445468Y-47724577D01*
X100444017Y-47749794D01*
X100334741Y-47751086D01*
X100225465Y-47752377D01*
X100225465Y-47564957D01*
X100225465Y-47377537D01*
X100336193Y-47377537D01*
X100446920Y-47377537D01*
X100445468Y-47402754D01*
G37*
G36*
X102511849Y-47403955D02*
G01*
X102511849Y-47430373D01*
X102430193Y-47430373D01*
X102348536Y-47430373D01*
X102348536Y-47483210D01*
X102348536Y-47536046D01*
X102422988Y-47536046D01*
X102497439Y-47536046D01*
X102497439Y-47562465D01*
X102497439Y-47588883D01*
X102422988Y-47588883D01*
X102348536Y-47588883D01*
X102348536Y-47644121D01*
X102348536Y-47699360D01*
X102430193Y-47699360D01*
X102511849Y-47699360D01*
X102511849Y-47725778D01*
X102511849Y-47752196D01*
X102403775Y-47752196D01*
X102295700Y-47752196D01*
X102295700Y-47564866D01*
X102295700Y-47377537D01*
X102403775Y-47377537D01*
X102511849Y-47377537D01*
X102511849Y-47403955D01*
G37*
G36*
X105754096Y-47403955D02*
G01*
X105754096Y-47430373D01*
X105718071Y-47430373D01*
X105682046Y-47430373D01*
X105682046Y-47564664D01*
X105682046Y-47698955D01*
X105719272Y-47700358D01*
X105756498Y-47701761D01*
X105756498Y-47725778D01*
X105756498Y-47749794D01*
X105656829Y-47751093D01*
X105557160Y-47752391D01*
X105557160Y-47725875D01*
X105557160Y-47699360D01*
X105593185Y-47699360D01*
X105629209Y-47699360D01*
X105629209Y-47564866D01*
X105629209Y-47430373D01*
X105593185Y-47430373D01*
X105557160Y-47430373D01*
X105557160Y-47403955D01*
X105557160Y-47377537D01*
X105655628Y-47377537D01*
X105754096Y-47377537D01*
X105754096Y-47403955D01*
G37*
G36*
X106061509Y-47403955D02*
G01*
X106061509Y-47430373D01*
X105979852Y-47430373D01*
X105898196Y-47430373D01*
X105898196Y-47483210D01*
X105898196Y-47536046D01*
X105972647Y-47536046D01*
X106047099Y-47536046D01*
X106047099Y-47562465D01*
X106047099Y-47588883D01*
X105972647Y-47588883D01*
X105898196Y-47588883D01*
X105898196Y-47644121D01*
X105898196Y-47699360D01*
X105979852Y-47699360D01*
X106061509Y-47699360D01*
X106061509Y-47725778D01*
X106061509Y-47752196D01*
X105953434Y-47752196D01*
X105845359Y-47752196D01*
X105845359Y-47564866D01*
X105845359Y-47377537D01*
X105953434Y-47377537D01*
X106061509Y-47377537D01*
X106061509Y-47403955D01*
G37*
G36*
X106364119Y-47403955D02*
G01*
X106364119Y-47430373D01*
X106318487Y-47430373D01*
X106272855Y-47430373D01*
X106272855Y-47591285D01*
X106272855Y-47752196D01*
X106249639Y-47752196D01*
X106235410Y-47751583D01*
X106225501Y-47750027D01*
X106223221Y-47748994D01*
X106222451Y-47743587D01*
X106221747Y-47729727D01*
X106221133Y-47708568D01*
X106220631Y-47681262D01*
X106220265Y-47648965D01*
X106220058Y-47612828D01*
X106220019Y-47588263D01*
X106220019Y-47430734D01*
X106175588Y-47429353D01*
X106131157Y-47427971D01*
X106129705Y-47402754D01*
X106128254Y-47377537D01*
X106246186Y-47377537D01*
X106364119Y-47377537D01*
X106364119Y-47403955D01*
G37*
G36*
X101631779Y-42328038D02*
G01*
X101633119Y-42391682D01*
X101617369Y-42391119D01*
X101609422Y-42390229D01*
X101593051Y-42387912D01*
X101569304Y-42384331D01*
X101539229Y-42379651D01*
X101503877Y-42374037D01*
X101464295Y-42367653D01*
X101421533Y-42360664D01*
X101391239Y-42355660D01*
X101347506Y-42348365D01*
X101306750Y-42341487D01*
X101269935Y-42335195D01*
X101238029Y-42329658D01*
X101211998Y-42325044D01*
X101192808Y-42321523D01*
X101181425Y-42319263D01*
X101178600Y-42318506D01*
X101177154Y-42312827D01*
X101175847Y-42300640D01*
X101175232Y-42290321D01*
X101174122Y-42264394D01*
X101402281Y-42264394D01*
X101630439Y-42264394D01*
X101631779Y-42328038D01*
G37*
G36*
X99249440Y-47402754D02*
G01*
X99247988Y-47427971D01*
X99213164Y-47429383D01*
X99178340Y-47430794D01*
X99178340Y-47565077D01*
X99178340Y-47699360D01*
X99214365Y-47699360D01*
X99250389Y-47699360D01*
X99250389Y-47725778D01*
X99250389Y-47752196D01*
X99152722Y-47752196D01*
X99123016Y-47752045D01*
X99096632Y-47751625D01*
X99075060Y-47750981D01*
X99059788Y-47750162D01*
X99052305Y-47749215D01*
X99051852Y-47748994D01*
X99049974Y-47742673D01*
X99048822Y-47730236D01*
X99048650Y-47722576D01*
X99048650Y-47699360D01*
X99087076Y-47699360D01*
X99125503Y-47699360D01*
X99125503Y-47565068D01*
X99125503Y-47430777D01*
X99088277Y-47429374D01*
X99051051Y-47427971D01*
X99049600Y-47402754D01*
X99048148Y-47377537D01*
X99149520Y-47377537D01*
X99250892Y-47377537D01*
X99249440Y-47402754D01*
G37*
G36*
X102579096Y-42290430D02*
G01*
X102578808Y-42306357D01*
X102577237Y-42315186D01*
X102573320Y-42319423D01*
X102565995Y-42321575D01*
X102565887Y-42321597D01*
X102556707Y-42323282D01*
X102539657Y-42326204D01*
X102515906Y-42330176D01*
X102486626Y-42335009D01*
X102452988Y-42340516D01*
X102416161Y-42346507D01*
X102377316Y-42352794D01*
X102337624Y-42359190D01*
X102298255Y-42365505D01*
X102260381Y-42371553D01*
X102225171Y-42377143D01*
X102193796Y-42382089D01*
X102167427Y-42386202D01*
X102147235Y-42389293D01*
X102134389Y-42391174D01*
X102130155Y-42391682D01*
X102127143Y-42390415D01*
X102125061Y-42385669D01*
X102123750Y-42376027D01*
X102123048Y-42360074D01*
X102122793Y-42336392D01*
X102122780Y-42326837D01*
X102122780Y-42261992D01*
X102350938Y-42261992D01*
X102579096Y-42261992D01*
X102579096Y-42290430D01*
G37*
G36*
X106501300Y-47459512D02*
G01*
X106513290Y-47485357D01*
X106524021Y-47508051D01*
X106532820Y-47526201D01*
X106539010Y-47538414D01*
X106541917Y-47543297D01*
X106541935Y-47543309D01*
X106544766Y-47539747D01*
X106550886Y-47528747D01*
X106559622Y-47511622D01*
X106570307Y-47489687D01*
X106582268Y-47464257D01*
X106582751Y-47463215D01*
X106594952Y-47437332D01*
X106606125Y-47414580D01*
X106615545Y-47396363D01*
X106622484Y-47384086D01*
X106626216Y-47379153D01*
X106626234Y-47379145D01*
X106633989Y-47378178D01*
X106647596Y-47378084D01*
X106656738Y-47378465D01*
X106681627Y-47379938D01*
X106627345Y-47488013D01*
X106573063Y-47596088D01*
X106570662Y-47672941D01*
X106568260Y-47749794D01*
X106543043Y-47751246D01*
X106517825Y-47752698D01*
X106517825Y-47680359D01*
X106517825Y-47608019D01*
X106460166Y-47492778D01*
X106402507Y-47377537D01*
X106433060Y-47377537D01*
X106463613Y-47377537D01*
X106501300Y-47459512D01*
G37*
G36*
X99556853Y-47402754D02*
G01*
X99555401Y-47427971D01*
X99472543Y-47429286D01*
X99389686Y-47430600D01*
X99389686Y-47483323D01*
X99389686Y-47536046D01*
X99466790Y-47536046D01*
X99543895Y-47536046D01*
X99542443Y-47561264D01*
X99540991Y-47586481D01*
X99465338Y-47587804D01*
X99389686Y-47589127D01*
X99389686Y-47644243D01*
X99389686Y-47699360D01*
X99473995Y-47699360D01*
X99558305Y-47699360D01*
X99556853Y-47724577D01*
X99555401Y-47749794D01*
X99449417Y-47751085D01*
X99418430Y-47751317D01*
X99390717Y-47751249D01*
X99367705Y-47750907D01*
X99350820Y-47750317D01*
X99341487Y-47749504D01*
X99340141Y-47749083D01*
X99339407Y-47743701D01*
X99338730Y-47729775D01*
X99338128Y-47708370D01*
X99337621Y-47680549D01*
X99337227Y-47647376D01*
X99336964Y-47609914D01*
X99336852Y-47569226D01*
X99336849Y-47561664D01*
X99336849Y-47377537D01*
X99447577Y-47377537D01*
X99558305Y-47377537D01*
X99556853Y-47402754D01*
G37*
G36*
X103991275Y-47403955D02*
G01*
X103991275Y-47430373D01*
X103907216Y-47430373D01*
X103823158Y-47430373D01*
X103823158Y-47483210D01*
X103823158Y-47536046D01*
X103900011Y-47536046D01*
X103976865Y-47536046D01*
X103976865Y-47562465D01*
X103976865Y-47588883D01*
X103900011Y-47588883D01*
X103823158Y-47588883D01*
X103823158Y-47644121D01*
X103823158Y-47699360D01*
X103907216Y-47699360D01*
X103991275Y-47699360D01*
X103991275Y-47725778D01*
X103991275Y-47752196D01*
X103884000Y-47752196D01*
X103852824Y-47752059D01*
X103824923Y-47751674D01*
X103801713Y-47751082D01*
X103784610Y-47750324D01*
X103775028Y-47749442D01*
X103773524Y-47748994D01*
X103772809Y-47743632D01*
X103772151Y-47729726D01*
X103771565Y-47708340D01*
X103771072Y-47680535D01*
X103770689Y-47647375D01*
X103770433Y-47609923D01*
X103770324Y-47569242D01*
X103770321Y-47561664D01*
X103770321Y-47377537D01*
X103880798Y-47377537D01*
X103991275Y-47377537D01*
X103991275Y-47403955D01*
G37*
G36*
X97207831Y-47563435D02*
G01*
X97206573Y-47749794D01*
X97182557Y-47749794D01*
X97158540Y-47749794D01*
X97157171Y-47620105D01*
X97155803Y-47490415D01*
X97128794Y-47554291D01*
X97101785Y-47618167D01*
X97080436Y-47616734D01*
X97059088Y-47615301D01*
X97035136Y-47557661D01*
X97025927Y-47535813D01*
X97017848Y-47517225D01*
X97011691Y-47503682D01*
X97008250Y-47496968D01*
X97008009Y-47496652D01*
X97007170Y-47500332D01*
X97006415Y-47512418D01*
X97005773Y-47531707D01*
X97005275Y-47556999D01*
X97004951Y-47587092D01*
X97004834Y-47620786D01*
X97004834Y-47621539D01*
X97004834Y-47749794D01*
X96983040Y-47751217D01*
X96969221Y-47751378D01*
X96959702Y-47750131D01*
X96957822Y-47749215D01*
X96957059Y-47743803D01*
X96956354Y-47729848D01*
X96955728Y-47708416D01*
X96955201Y-47680570D01*
X96954791Y-47647377D01*
X96954518Y-47609899D01*
X96954401Y-47569203D01*
X96954399Y-47561664D01*
X96954399Y-47377537D01*
X96982358Y-47377537D01*
X97010318Y-47377537D01*
X97043069Y-47455591D01*
X97053883Y-47481132D01*
X97063579Y-47503606D01*
X97071494Y-47521502D01*
X97076959Y-47533311D01*
X97079179Y-47537432D01*
X97082009Y-47534463D01*
X97087843Y-47523915D01*
X97096043Y-47507101D01*
X97105968Y-47485330D01*
X97116697Y-47460579D01*
X97150856Y-47379938D01*
X97179972Y-47378507D01*
X97209088Y-47377075D01*
X97207831Y-47563435D01*
G37*
G36*
X101508171Y-47378106D02*
G01*
X101537272Y-47380070D01*
X101559897Y-47383809D01*
X101577588Y-47389704D01*
X101591884Y-47398137D01*
X101604323Y-47409488D01*
X101605568Y-47410847D01*
X101621615Y-47435298D01*
X101630932Y-47464109D01*
X101633493Y-47494896D01*
X101629270Y-47525274D01*
X101618234Y-47552859D01*
X101607402Y-47568153D01*
X101592128Y-47582969D01*
X101575395Y-47593156D01*
X101555086Y-47599436D01*
X101529083Y-47602527D01*
X101504351Y-47603187D01*
X101455117Y-47603293D01*
X101455117Y-47677745D01*
X101455117Y-47752196D01*
X101431901Y-47752196D01*
X101417672Y-47751583D01*
X101407762Y-47750027D01*
X101405483Y-47748994D01*
X101404769Y-47743632D01*
X101404110Y-47729726D01*
X101403525Y-47708340D01*
X101403031Y-47680535D01*
X101402648Y-47647375D01*
X101402392Y-47609923D01*
X101402283Y-47569242D01*
X101402281Y-47561664D01*
X101402281Y-47556406D01*
X101455117Y-47556406D01*
X101499548Y-47554361D01*
X101524019Y-47552474D01*
X101542959Y-47549469D01*
X101554393Y-47545667D01*
X101554788Y-47545427D01*
X101568123Y-47531700D01*
X101576627Y-47512331D01*
X101579673Y-47490316D01*
X101576634Y-47468649D01*
X101572826Y-47459246D01*
X101564852Y-47446605D01*
X101555121Y-47438195D01*
X101541614Y-47433219D01*
X101522316Y-47430881D01*
X101499680Y-47430373D01*
X101455117Y-47430373D01*
X101455117Y-47493389D01*
X101455117Y-47556406D01*
X101402281Y-47556406D01*
X101402281Y-47493389D01*
X101402281Y-47377537D01*
X101471057Y-47377537D01*
X101508171Y-47378106D01*
G37*
G36*
X103542072Y-47518034D02*
G01*
X103551597Y-47553448D01*
X103560442Y-47585995D01*
X103568275Y-47614476D01*
X103574763Y-47637695D01*
X103579575Y-47654455D01*
X103582376Y-47663557D01*
X103582829Y-47664729D01*
X103584799Y-47661827D01*
X103588895Y-47650685D01*
X103594796Y-47632354D01*
X103602181Y-47607885D01*
X103610729Y-47578327D01*
X103620118Y-47544730D01*
X103625260Y-47525893D01*
X103634976Y-47490165D01*
X103643939Y-47457511D01*
X103651832Y-47429064D01*
X103658337Y-47405952D01*
X103663138Y-47389307D01*
X103665918Y-47380259D01*
X103666445Y-47378942D01*
X103671907Y-47378126D01*
X103683932Y-47378060D01*
X103694551Y-47378481D01*
X103720740Y-47379938D01*
X103669709Y-47560063D01*
X103658302Y-47600149D01*
X103647594Y-47637438D01*
X103637891Y-47670894D01*
X103629496Y-47699480D01*
X103622716Y-47722159D01*
X103617854Y-47737896D01*
X103615217Y-47745653D01*
X103614961Y-47746192D01*
X103607762Y-47749895D01*
X103592849Y-47751919D01*
X103582842Y-47752196D01*
X103554440Y-47752196D01*
X103547302Y-47726979D01*
X103541412Y-47706189D01*
X103533956Y-47679903D01*
X103525289Y-47649372D01*
X103515768Y-47615847D01*
X103505748Y-47580578D01*
X103495585Y-47544817D01*
X103485634Y-47509816D01*
X103476251Y-47476824D01*
X103467792Y-47447092D01*
X103460611Y-47421873D01*
X103455066Y-47402417D01*
X103451512Y-47389975D01*
X103450349Y-47385942D01*
X103450110Y-47381227D01*
X103454269Y-47378682D01*
X103464779Y-47377672D01*
X103476165Y-47377537D01*
X103504479Y-47377537D01*
X103542072Y-47518034D01*
G37*
G36*
X98194588Y-47515632D02*
G01*
X98195123Y-47559089D01*
X98195845Y-47594027D01*
X98196958Y-47621535D01*
X98198672Y-47642700D01*
X98201193Y-47658612D01*
X98204729Y-47670357D01*
X98209486Y-47679024D01*
X98215673Y-47685702D01*
X98223497Y-47691477D01*
X98228715Y-47694751D01*
X98250753Y-47702996D01*
X98273942Y-47702980D01*
X98295857Y-47695360D01*
X98314072Y-47680792D01*
X98321913Y-47669551D01*
X98324467Y-47663984D01*
X98326501Y-47656918D01*
X98328089Y-47647207D01*
X98329308Y-47633705D01*
X98330231Y-47615264D01*
X98330936Y-47590739D01*
X98331497Y-47558982D01*
X98331989Y-47518847D01*
X98332023Y-47515632D01*
X98333495Y-47377537D01*
X98359643Y-47377537D01*
X98385790Y-47377537D01*
X98385715Y-47506026D01*
X98385505Y-47552008D01*
X98384829Y-47589573D01*
X98383534Y-47619905D01*
X98381463Y-47644187D01*
X98378463Y-47663605D01*
X98374378Y-47679343D01*
X98369054Y-47692584D01*
X98362335Y-47704512D01*
X98359128Y-47709319D01*
X98337816Y-47732242D01*
X98310989Y-47747371D01*
X98278492Y-47754787D01*
X98271352Y-47755348D01*
X98245784Y-47755139D01*
X98225087Y-47751696D01*
X98221320Y-47750459D01*
X98197600Y-47739501D01*
X98180020Y-47725668D01*
X98165114Y-47706228D01*
X98164990Y-47706032D01*
X98158218Y-47693837D01*
X98152789Y-47680099D01*
X98148567Y-47663667D01*
X98145417Y-47643391D01*
X98143203Y-47618121D01*
X98141789Y-47586704D01*
X98141040Y-47547990D01*
X98140821Y-47500829D01*
X98140821Y-47377537D01*
X98166968Y-47377537D01*
X98193116Y-47377537D01*
X98194588Y-47515632D01*
G37*
G36*
X102066473Y-41163533D02*
G01*
X102069967Y-41168672D01*
X102073222Y-41178394D01*
X102076429Y-41193645D01*
X102079775Y-41215370D01*
X102083451Y-41244516D01*
X102087644Y-41282028D01*
X102088933Y-41294121D01*
X102097668Y-41371263D01*
X102106706Y-41439639D01*
X102116238Y-41500088D01*
X102126453Y-41553450D01*
X102137543Y-41600566D01*
X102149699Y-41642274D01*
X102163110Y-41679415D01*
X102177968Y-41712828D01*
X102188602Y-41733145D01*
X102201276Y-41753076D01*
X102218499Y-41775195D01*
X102240881Y-41800133D01*
X102269028Y-41828519D01*
X102303548Y-41860982D01*
X102345049Y-41898152D01*
X102362946Y-41913790D01*
X102408512Y-41953890D01*
X102447011Y-41989100D01*
X102479070Y-42020279D01*
X102505316Y-42048289D01*
X102526376Y-42073991D01*
X102542876Y-42098248D01*
X102555443Y-42121919D01*
X102564704Y-42145867D01*
X102571285Y-42170953D01*
X102575814Y-42198037D01*
X102577009Y-42207954D01*
X102580337Y-42237975D01*
X102352243Y-42237975D01*
X102124148Y-42237975D01*
X102121069Y-42208515D01*
X102114367Y-42176178D01*
X102101833Y-42151359D01*
X102083517Y-42134145D01*
X102075947Y-42130025D01*
X102055533Y-42120542D01*
X102055533Y-41641286D01*
X102055547Y-41561963D01*
X102055593Y-41491713D01*
X102055679Y-41430006D01*
X102055813Y-41376309D01*
X102056003Y-41330089D01*
X102056257Y-41290814D01*
X102056582Y-41257952D01*
X102056986Y-41230970D01*
X102057477Y-41209337D01*
X102058062Y-41192519D01*
X102058751Y-41179985D01*
X102059550Y-41171203D01*
X102060466Y-41165639D01*
X102061509Y-41162762D01*
X102062553Y-41162030D01*
X102066473Y-41163533D01*
G37*
G36*
X97376876Y-47377585D02*
G01*
X97408313Y-47377633D01*
X97457669Y-47558910D01*
X97468584Y-47599158D01*
X97478655Y-47636606D01*
X97487611Y-47670217D01*
X97495180Y-47698957D01*
X97501088Y-47721790D01*
X97505064Y-47737681D01*
X97506836Y-47745593D01*
X97506903Y-47746192D01*
X97502410Y-47750152D01*
X97488938Y-47752020D01*
X97480548Y-47752196D01*
X97454315Y-47752196D01*
X97449067Y-47731782D01*
X97444525Y-47714582D01*
X97439071Y-47694541D01*
X97436694Y-47685995D01*
X97429569Y-47660622D01*
X97376117Y-47661978D01*
X97322665Y-47663335D01*
X97310783Y-47707765D01*
X97298902Y-47752196D01*
X97273952Y-47752196D01*
X97259374Y-47751758D01*
X97249211Y-47750637D01*
X97246534Y-47749727D01*
X97247222Y-47744710D01*
X97250226Y-47731435D01*
X97255289Y-47710900D01*
X97262155Y-47684103D01*
X97270567Y-47652042D01*
X97280267Y-47615714D01*
X97281030Y-47612900D01*
X97335126Y-47612900D01*
X97375322Y-47612900D01*
X97397588Y-47612326D01*
X97410813Y-47610556D01*
X97415497Y-47607522D01*
X97415518Y-47607252D01*
X97414345Y-47600186D01*
X97411178Y-47586176D01*
X97406549Y-47567239D01*
X97400986Y-47545394D01*
X97395019Y-47522658D01*
X97389180Y-47501047D01*
X97383996Y-47482581D01*
X97380000Y-47469276D01*
X97377719Y-47463149D01*
X97377640Y-47463045D01*
X97375534Y-47466297D01*
X97371571Y-47477423D01*
X97366204Y-47494972D01*
X97359882Y-47517492D01*
X97354908Y-47536296D01*
X97335126Y-47612900D01*
X97281030Y-47612900D01*
X97290999Y-47576117D01*
X97294752Y-47562397D01*
X97345439Y-47377537D01*
X97376876Y-47377585D01*
G37*
G36*
X98852616Y-47378499D02*
G01*
X98884700Y-47381745D01*
X98909997Y-47387810D01*
X98929835Y-47397229D01*
X98945543Y-47410538D01*
X98958452Y-47428274D01*
X98964134Y-47438696D01*
X98973532Y-47467449D01*
X98974694Y-47497856D01*
X98968251Y-47527878D01*
X98954835Y-47555475D01*
X98935077Y-47578605D01*
X98916816Y-47591607D01*
X98913666Y-47593956D01*
X98912281Y-47597545D01*
X98913077Y-47603673D01*
X98916473Y-47613639D01*
X98922884Y-47628742D01*
X98932729Y-47650283D01*
X98942094Y-47670330D01*
X98953500Y-47694905D01*
X98963316Y-47716522D01*
X98970866Y-47733660D01*
X98975477Y-47744793D01*
X98976600Y-47748291D01*
X98972246Y-47750365D01*
X98960915Y-47751389D01*
X98947456Y-47751225D01*
X98918312Y-47749794D01*
X98886213Y-47676648D01*
X98854115Y-47603501D01*
X98826621Y-47603397D01*
X98799127Y-47603293D01*
X98797801Y-47676544D01*
X98796475Y-47749794D01*
X98771257Y-47751246D01*
X98746040Y-47752698D01*
X98746040Y-47565117D01*
X98746040Y-47550456D01*
X98798877Y-47550456D01*
X98838504Y-47550386D01*
X98858678Y-47549643D01*
X98876291Y-47547735D01*
X98888168Y-47545035D01*
X98889677Y-47544381D01*
X98906325Y-47530793D01*
X98916759Y-47511580D01*
X98920331Y-47488949D01*
X98916393Y-47465104D01*
X98914462Y-47459931D01*
X98906648Y-47446873D01*
X98894894Y-47438047D01*
X98877618Y-47432825D01*
X98853236Y-47430580D01*
X98839943Y-47430373D01*
X98798877Y-47430373D01*
X98798877Y-47490415D01*
X98798877Y-47550456D01*
X98746040Y-47550456D01*
X98746040Y-47490415D01*
X98746040Y-47377537D01*
X98812415Y-47377537D01*
X98852616Y-47378499D01*
G37*
G36*
X98639880Y-47558666D02*
G01*
X98650849Y-47598885D01*
X98661010Y-47636254D01*
X98670087Y-47669746D01*
X98677802Y-47698336D01*
X98683879Y-47720996D01*
X98688041Y-47736701D01*
X98690012Y-47744426D01*
X98690130Y-47744991D01*
X98686167Y-47747824D01*
X98675226Y-47750159D01*
X98663909Y-47751213D01*
X98637017Y-47752632D01*
X98625077Y-47707983D01*
X98613136Y-47663335D01*
X98559684Y-47661978D01*
X98506232Y-47660622D01*
X98499108Y-47685995D01*
X98493820Y-47705167D01*
X98488637Y-47724493D01*
X98486735Y-47731782D01*
X98481487Y-47752196D01*
X98455254Y-47752196D01*
X98439885Y-47751696D01*
X98431944Y-47749734D01*
X98429283Y-47745616D01*
X98429194Y-47743790D01*
X98430477Y-47737405D01*
X98434060Y-47722829D01*
X98439660Y-47701126D01*
X98446996Y-47673360D01*
X98455788Y-47640595D01*
X98464840Y-47607252D01*
X98520284Y-47607252D01*
X98524369Y-47610380D01*
X98536960Y-47612239D01*
X98558556Y-47612897D01*
X98560480Y-47612900D01*
X98600676Y-47612900D01*
X98580894Y-47536296D01*
X98574159Y-47511056D01*
X98568048Y-47489725D01*
X98563013Y-47473754D01*
X98559503Y-47464594D01*
X98558161Y-47463045D01*
X98556015Y-47468618D01*
X98552116Y-47481504D01*
X98546996Y-47499688D01*
X98541184Y-47521150D01*
X98535209Y-47543875D01*
X98529603Y-47565843D01*
X98524894Y-47585037D01*
X98521613Y-47599441D01*
X98520289Y-47607036D01*
X98520284Y-47607252D01*
X98464840Y-47607252D01*
X98465752Y-47603893D01*
X98476609Y-47564318D01*
X98478446Y-47557661D01*
X98527524Y-47379938D01*
X98558913Y-47378541D01*
X98590303Y-47377144D01*
X98639880Y-47558666D01*
G37*
G36*
X101891733Y-47558666D02*
G01*
X101902702Y-47598885D01*
X101912863Y-47636254D01*
X101921940Y-47669746D01*
X101929655Y-47698336D01*
X101935732Y-47720996D01*
X101939894Y-47736701D01*
X101941865Y-47744426D01*
X101941983Y-47744991D01*
X101938020Y-47747824D01*
X101927079Y-47750159D01*
X101915763Y-47751213D01*
X101888870Y-47752632D01*
X101876930Y-47707983D01*
X101864990Y-47663335D01*
X101811538Y-47661978D01*
X101758086Y-47660622D01*
X101750961Y-47685995D01*
X101745674Y-47705167D01*
X101740490Y-47724493D01*
X101738588Y-47731782D01*
X101733340Y-47752196D01*
X101707107Y-47752196D01*
X101691738Y-47751696D01*
X101683798Y-47749734D01*
X101681136Y-47745616D01*
X101681047Y-47743790D01*
X101682331Y-47737405D01*
X101685913Y-47722829D01*
X101691513Y-47701126D01*
X101698850Y-47673360D01*
X101707641Y-47640595D01*
X101716694Y-47607252D01*
X101772137Y-47607252D01*
X101776223Y-47610380D01*
X101788814Y-47612239D01*
X101810409Y-47612897D01*
X101812333Y-47612900D01*
X101852529Y-47612900D01*
X101832747Y-47536296D01*
X101826012Y-47511056D01*
X101819901Y-47489725D01*
X101814866Y-47473754D01*
X101811357Y-47464594D01*
X101810014Y-47463045D01*
X101807868Y-47468618D01*
X101803970Y-47481504D01*
X101798849Y-47499688D01*
X101793037Y-47521150D01*
X101787063Y-47543875D01*
X101781456Y-47565843D01*
X101776747Y-47585037D01*
X101773466Y-47599441D01*
X101772142Y-47607036D01*
X101772137Y-47607252D01*
X101716694Y-47607252D01*
X101717606Y-47603893D01*
X101728462Y-47564318D01*
X101730299Y-47557661D01*
X101779377Y-47379938D01*
X101810767Y-47378541D01*
X101842156Y-47377144D01*
X101891733Y-47558666D01*
G37*
G36*
X104173088Y-47378268D02*
G01*
X104202556Y-47380483D01*
X104223287Y-47384211D01*
X104224892Y-47384668D01*
X104251752Y-47397059D01*
X104272569Y-47415519D01*
X104287243Y-47438566D01*
X104295672Y-47464719D01*
X104297757Y-47492500D01*
X104293397Y-47520426D01*
X104282490Y-47547018D01*
X104264936Y-47570794D01*
X104240635Y-47590275D01*
X104238944Y-47591285D01*
X104236281Y-47593811D01*
X104235524Y-47598166D01*
X104237092Y-47605628D01*
X104241407Y-47617475D01*
X104248886Y-47634984D01*
X104259949Y-47659435D01*
X104264719Y-47669810D01*
X104275955Y-47694440D01*
X104285622Y-47716099D01*
X104293055Y-47733259D01*
X104297590Y-47744391D01*
X104298688Y-47747864D01*
X104294329Y-47750173D01*
X104283025Y-47751744D01*
X104270545Y-47752196D01*
X104242403Y-47752196D01*
X104209595Y-47677745D01*
X104176788Y-47603293D01*
X104149001Y-47603293D01*
X104121215Y-47603293D01*
X104119889Y-47676544D01*
X104118563Y-47749794D01*
X104093345Y-47751246D01*
X104068128Y-47752698D01*
X104068128Y-47565117D01*
X104068128Y-47550456D01*
X104120964Y-47550456D01*
X104163826Y-47550456D01*
X104184901Y-47550207D01*
X104198968Y-47549089D01*
X104208620Y-47546544D01*
X104216450Y-47542016D01*
X104221379Y-47538094D01*
X104235577Y-47520950D01*
X104243121Y-47500598D01*
X104244034Y-47479395D01*
X104238341Y-47459698D01*
X104226066Y-47443867D01*
X104220372Y-47439768D01*
X104209950Y-47434831D01*
X104196912Y-47431918D01*
X104178625Y-47430598D01*
X104162994Y-47430391D01*
X104120964Y-47430373D01*
X104120964Y-47490415D01*
X104120964Y-47550456D01*
X104068128Y-47550456D01*
X104068128Y-47490415D01*
X104068128Y-47377537D01*
X104134503Y-47377537D01*
X104173088Y-47378268D01*
G37*
G36*
X97710000Y-47376961D02*
G01*
X97740012Y-47389118D01*
X97764513Y-47409040D01*
X97783082Y-47436414D01*
X97792627Y-47460851D01*
X97796691Y-47475235D01*
X97799284Y-47485760D01*
X97799784Y-47488885D01*
X97795426Y-47490979D01*
X97784118Y-47492405D01*
X97771617Y-47492816D01*
X97743450Y-47492816D01*
X97735471Y-47471925D01*
X97724189Y-47449728D01*
X97709609Y-47435659D01*
X97690031Y-47428372D01*
X97678537Y-47426902D01*
X97652916Y-47428825D01*
X97631989Y-47438805D01*
X97615682Y-47456949D01*
X97603921Y-47483365D01*
X97596631Y-47518162D01*
X97594044Y-47550097D01*
X97593966Y-47589132D01*
X97597327Y-47620822D01*
X97604447Y-47646909D01*
X97615646Y-47669136D01*
X97616091Y-47669828D01*
X97633568Y-47689510D01*
X97654559Y-47700739D01*
X97678096Y-47703020D01*
X97680553Y-47702736D01*
X97703240Y-47696437D01*
X97720201Y-47683632D01*
X97733190Y-47662946D01*
X97734245Y-47660604D01*
X97744546Y-47637143D01*
X97772547Y-47637029D01*
X97800548Y-47636916D01*
X97797168Y-47652527D01*
X97785819Y-47685031D01*
X97767715Y-47712501D01*
X97744197Y-47734143D01*
X97716603Y-47749160D01*
X97686275Y-47756756D01*
X97654551Y-47756137D01*
X97632326Y-47750423D01*
X97605521Y-47735801D01*
X97582018Y-47713152D01*
X97562861Y-47683789D01*
X97549093Y-47649022D01*
X97547740Y-47644121D01*
X97543306Y-47619842D01*
X97540767Y-47590060D01*
X97540118Y-47557923D01*
X97541353Y-47526577D01*
X97544467Y-47499168D01*
X97547996Y-47483210D01*
X97562853Y-47444501D01*
X97581905Y-47414340D01*
X97605386Y-47392524D01*
X97633532Y-47378847D01*
X97666578Y-47373105D01*
X97674898Y-47372886D01*
X97710000Y-47376961D01*
G37*
G36*
X103317054Y-47375651D02*
G01*
X103346953Y-47386554D01*
X103365830Y-47399400D01*
X103386546Y-47422996D01*
X103402834Y-47453454D01*
X103414553Y-47489039D01*
X103421562Y-47528014D01*
X103423719Y-47568645D01*
X103420884Y-47609196D01*
X103412914Y-47647932D01*
X103399670Y-47683117D01*
X103390288Y-47700009D01*
X103368883Y-47725483D01*
X103342419Y-47743766D01*
X103312527Y-47754279D01*
X103280843Y-47756440D01*
X103249773Y-47749947D01*
X103222670Y-47735358D01*
X103198986Y-47712751D01*
X103179621Y-47683380D01*
X103165479Y-47648498D01*
X103159776Y-47624908D01*
X103156621Y-47596643D01*
X103156517Y-47589594D01*
X103209249Y-47589594D01*
X103213744Y-47625343D01*
X103223084Y-47654155D01*
X103237534Y-47676852D01*
X103256480Y-47693665D01*
X103276906Y-47702067D01*
X103299469Y-47702188D01*
X103321643Y-47694147D01*
X103327564Y-47690359D01*
X103343908Y-47673276D01*
X103356687Y-47648710D01*
X103365506Y-47618248D01*
X103369971Y-47583476D01*
X103369687Y-47545980D01*
X103367875Y-47528421D01*
X103360138Y-47491575D01*
X103347949Y-47462621D01*
X103331499Y-47441808D01*
X103310979Y-47429382D01*
X103288375Y-47425570D01*
X103264960Y-47430114D01*
X103244713Y-47443643D01*
X103227846Y-47466001D01*
X103224265Y-47472781D01*
X103217816Y-47487689D01*
X103213592Y-47502974D01*
X103210962Y-47521745D01*
X103209340Y-47546086D01*
X103209249Y-47589594D01*
X103156517Y-47589594D01*
X103156135Y-47563568D01*
X103158100Y-47529062D01*
X103162299Y-47496503D01*
X103168512Y-47469269D01*
X103170123Y-47464342D01*
X103182184Y-47438837D01*
X103198994Y-47415168D01*
X103218590Y-47395479D01*
X103239009Y-47381912D01*
X103249160Y-47378026D01*
X103283912Y-47372709D01*
X103317054Y-47375651D01*
G37*
G36*
X100596522Y-47378244D02*
G01*
X100625773Y-47378948D01*
X100647220Y-47379776D01*
X100662667Y-47380997D01*
X100673914Y-47382878D01*
X100682766Y-47385689D01*
X100691024Y-47389699D01*
X100697264Y-47393275D01*
X100719981Y-47411833D01*
X100736247Y-47435876D01*
X100745835Y-47463569D01*
X100748518Y-47493079D01*
X100744069Y-47522571D01*
X100732262Y-47550213D01*
X100718914Y-47568116D01*
X100707571Y-47579330D01*
X100698018Y-47586870D01*
X100693461Y-47588883D01*
X100685810Y-47591668D01*
X100684542Y-47593106D01*
X100685591Y-47598663D01*
X100690150Y-47611365D01*
X100697605Y-47629682D01*
X100707338Y-47652082D01*
X100715480Y-47670026D01*
X100726654Y-47694513D01*
X100736252Y-47716062D01*
X100743600Y-47733122D01*
X100748027Y-47744143D01*
X100749028Y-47747460D01*
X100744670Y-47749984D01*
X100733367Y-47751702D01*
X100720886Y-47752196D01*
X100692743Y-47752196D01*
X100659936Y-47677745D01*
X100627128Y-47603293D01*
X100599342Y-47603293D01*
X100571555Y-47603293D01*
X100570229Y-47676544D01*
X100568903Y-47749794D01*
X100543686Y-47751246D01*
X100518468Y-47752698D01*
X100518468Y-47564624D01*
X100518468Y-47550456D01*
X100571305Y-47550456D01*
X100612593Y-47550456D01*
X100637717Y-47549680D01*
X100655255Y-47547166D01*
X100667114Y-47542639D01*
X100667280Y-47542541D01*
X100680565Y-47530207D01*
X100690925Y-47512543D01*
X100696012Y-47493806D01*
X100696191Y-47490098D01*
X100692684Y-47470416D01*
X100683476Y-47452293D01*
X100670538Y-47439376D01*
X100667988Y-47437897D01*
X100652473Y-47433096D01*
X100628776Y-47430702D01*
X100612372Y-47430373D01*
X100571305Y-47430373D01*
X100571305Y-47490415D01*
X100571305Y-47550456D01*
X100518468Y-47550456D01*
X100518468Y-47490415D01*
X100518468Y-47376549D01*
X100596522Y-47378244D01*
G37*
G36*
X100037686Y-47378538D02*
G01*
X100069092Y-47379938D01*
X100118154Y-47557661D01*
X100129129Y-47597605D01*
X100139265Y-47634849D01*
X100148279Y-47668331D01*
X100155889Y-47696985D01*
X100161813Y-47719749D01*
X100165769Y-47735560D01*
X100167475Y-47743353D01*
X100167520Y-47743790D01*
X100166152Y-47748725D01*
X100160156Y-47751280D01*
X100147390Y-47752156D01*
X100141748Y-47752196D01*
X100115670Y-47752196D01*
X100108487Y-47726979D01*
X100103113Y-47707786D01*
X100097821Y-47688380D01*
X100095911Y-47681192D01*
X100090518Y-47660623D01*
X100036708Y-47661979D01*
X99982897Y-47663335D01*
X99972609Y-47702580D01*
X99967516Y-47721213D01*
X99962972Y-47736438D01*
X99959747Y-47745710D01*
X99959116Y-47747011D01*
X99952952Y-47749868D01*
X99941058Y-47751619D01*
X99927080Y-47752154D01*
X99914662Y-47751361D01*
X99907450Y-47749130D01*
X99907001Y-47748594D01*
X99907794Y-47743322D01*
X99910907Y-47729805D01*
X99916079Y-47709052D01*
X99923048Y-47682069D01*
X99931554Y-47649867D01*
X99941333Y-47613452D01*
X99941483Y-47612900D01*
X99995789Y-47612900D01*
X100036175Y-47612900D01*
X100054531Y-47612504D01*
X100068550Y-47611449D01*
X100076008Y-47609933D01*
X100076660Y-47609297D01*
X100075550Y-47602795D01*
X100072446Y-47589211D01*
X100067868Y-47570540D01*
X100062338Y-47548776D01*
X100056376Y-47525912D01*
X100050505Y-47503944D01*
X100045246Y-47484865D01*
X100041121Y-47470669D01*
X100038649Y-47463351D01*
X100038371Y-47462852D01*
X100036250Y-47466040D01*
X100032281Y-47477111D01*
X100026912Y-47494618D01*
X100020593Y-47517117D01*
X100015578Y-47536103D01*
X99995789Y-47612900D01*
X99941483Y-47612900D01*
X99952125Y-47573834D01*
X99955634Y-47561065D01*
X100006280Y-47377138D01*
X100037686Y-47378538D01*
G37*
G36*
X105098666Y-47376979D02*
G01*
X105127789Y-47389442D01*
X105152186Y-47409796D01*
X105171598Y-47437670D01*
X105185765Y-47472692D01*
X105194427Y-47514488D01*
X105197324Y-47562465D01*
X105195239Y-47608686D01*
X105188816Y-47647297D01*
X105177668Y-47679442D01*
X105161409Y-47706268D01*
X105141833Y-47727034D01*
X105114057Y-47745531D01*
X105083117Y-47754982D01*
X105049176Y-47755353D01*
X105026806Y-47751036D01*
X105007264Y-47741922D01*
X104987097Y-47725868D01*
X104968468Y-47705129D01*
X104953537Y-47681957D01*
X104947416Y-47668271D01*
X104936762Y-47628501D01*
X104931554Y-47584022D01*
X104931619Y-47573450D01*
X104984907Y-47573450D01*
X104986494Y-47601569D01*
X104989673Y-47625783D01*
X104993066Y-47639468D01*
X105006314Y-47668370D01*
X105023443Y-47688615D01*
X105044343Y-47700114D01*
X105068905Y-47702779D01*
X105071844Y-47702528D01*
X105086967Y-47699483D01*
X105099199Y-47692555D01*
X105111198Y-47681100D01*
X105125221Y-47662837D01*
X105135000Y-47641840D01*
X105140949Y-47616432D01*
X105143479Y-47584937D01*
X105143205Y-47550888D01*
X105142099Y-47525946D01*
X105140555Y-47508082D01*
X105138080Y-47494764D01*
X105134179Y-47483464D01*
X105128360Y-47471650D01*
X105127402Y-47469880D01*
X105110576Y-47446517D01*
X105091124Y-47431709D01*
X105070271Y-47425210D01*
X105049237Y-47426771D01*
X105029247Y-47436147D01*
X105011522Y-47453091D01*
X104997286Y-47477354D01*
X104990307Y-47497583D01*
X104986751Y-47518266D01*
X104984971Y-47544619D01*
X104984907Y-47573450D01*
X104931619Y-47573450D01*
X104931835Y-47538065D01*
X104937645Y-47493864D01*
X104944828Y-47466296D01*
X104960109Y-47432366D01*
X104981199Y-47405606D01*
X105007499Y-47386480D01*
X105038409Y-47375455D01*
X105065076Y-47372780D01*
X105098666Y-47376979D01*
G37*
G36*
X100965436Y-47379677D02*
G01*
X100992424Y-47393620D01*
X101015335Y-47414768D01*
X101021091Y-47422416D01*
X101038024Y-47452562D01*
X101049320Y-47486403D01*
X101055420Y-47525664D01*
X101056855Y-47562465D01*
X101054770Y-47608686D01*
X101048347Y-47647297D01*
X101037199Y-47679442D01*
X101020940Y-47706268D01*
X101001364Y-47727034D01*
X100973588Y-47745531D01*
X100942648Y-47754982D01*
X100908707Y-47755353D01*
X100886337Y-47751036D01*
X100866789Y-47741919D01*
X100846620Y-47725861D01*
X100827988Y-47705114D01*
X100813057Y-47681932D01*
X100806940Y-47668252D01*
X100795735Y-47627602D01*
X100790408Y-47584293D01*
X100790500Y-47573410D01*
X100844341Y-47573410D01*
X100845969Y-47601593D01*
X100849201Y-47625877D01*
X100852584Y-47639431D01*
X100865836Y-47668350D01*
X100882962Y-47688605D01*
X100903857Y-47700110D01*
X100928417Y-47702781D01*
X100931375Y-47702528D01*
X100946498Y-47699483D01*
X100958730Y-47692555D01*
X100970729Y-47681100D01*
X100984752Y-47662837D01*
X100994531Y-47641840D01*
X101000480Y-47616432D01*
X101003010Y-47584937D01*
X101002736Y-47550888D01*
X101001630Y-47525946D01*
X101000086Y-47508082D01*
X100997611Y-47494764D01*
X100993710Y-47483464D01*
X100987891Y-47471650D01*
X100986933Y-47469880D01*
X100970101Y-47446492D01*
X100950659Y-47431672D01*
X100929819Y-47425176D01*
X100908794Y-47426757D01*
X100888797Y-47436170D01*
X100871040Y-47453172D01*
X100856736Y-47477515D01*
X100849739Y-47497620D01*
X100846162Y-47518208D01*
X100844384Y-47544544D01*
X100844341Y-47573410D01*
X100790500Y-47573410D01*
X100790777Y-47540408D01*
X100796657Y-47498025D01*
X100807864Y-47459228D01*
X100824214Y-47426095D01*
X100828969Y-47419098D01*
X100850786Y-47396565D01*
X100877045Y-47381386D01*
X100906043Y-47373531D01*
X100936074Y-47372971D01*
X100965436Y-47379677D01*
G37*
G36*
X102959760Y-47378324D02*
G01*
X102989249Y-47379026D01*
X103010927Y-47379889D01*
X103026589Y-47381159D01*
X103038031Y-47383082D01*
X103047048Y-47385904D01*
X103055434Y-47389871D01*
X103059216Y-47391947D01*
X103075298Y-47403591D01*
X103090515Y-47418722D01*
X103095162Y-47424672D01*
X103103242Y-47437661D01*
X103108002Y-47450338D01*
X103110525Y-47466424D01*
X103111494Y-47480771D01*
X103109692Y-47516248D01*
X103100505Y-47545983D01*
X103084055Y-47569688D01*
X103067735Y-47582891D01*
X103046608Y-47596289D01*
X103081838Y-47672559D01*
X103093271Y-47697413D01*
X103103155Y-47719099D01*
X103110841Y-47736176D01*
X103115679Y-47747203D01*
X103117069Y-47750742D01*
X103112703Y-47751525D01*
X103101322Y-47751672D01*
X103087222Y-47751225D01*
X103057376Y-47749794D01*
X103025333Y-47677745D01*
X102993290Y-47605695D01*
X102963916Y-47604265D01*
X102934542Y-47602835D01*
X102934542Y-47677515D01*
X102934542Y-47752196D01*
X102911326Y-47752196D01*
X102897097Y-47751583D01*
X102887187Y-47750027D01*
X102884908Y-47748994D01*
X102884194Y-47743633D01*
X102883536Y-47729726D01*
X102882952Y-47708336D01*
X102882458Y-47680525D01*
X102882075Y-47647353D01*
X102881819Y-47609883D01*
X102881709Y-47569176D01*
X102881706Y-47561251D01*
X102881706Y-47550456D01*
X102934542Y-47550456D01*
X102975609Y-47550456D01*
X103004872Y-47549214D01*
X103025004Y-47545496D01*
X103030766Y-47543170D01*
X103045837Y-47530402D01*
X103055425Y-47512166D01*
X103059196Y-47491108D01*
X103056812Y-47469873D01*
X103047936Y-47451105D01*
X103043182Y-47445556D01*
X103036582Y-47439650D01*
X103029479Y-47435795D01*
X103019595Y-47433450D01*
X103004650Y-47432072D01*
X102982476Y-47431124D01*
X102934542Y-47429473D01*
X102934542Y-47489965D01*
X102934542Y-47550456D01*
X102881706Y-47550456D01*
X102881706Y-47489965D01*
X102881706Y-47376710D01*
X102959760Y-47378324D01*
G37*
G36*
X105394042Y-47376089D02*
G01*
X105414324Y-47380993D01*
X105420582Y-47383663D01*
X105440105Y-47397571D01*
X105458111Y-47417147D01*
X105472791Y-47439700D01*
X105482336Y-47462540D01*
X105485063Y-47479607D01*
X105484596Y-47486979D01*
X105481609Y-47490924D01*
X105473819Y-47492513D01*
X105458942Y-47492816D01*
X105456890Y-47492816D01*
X105441081Y-47492566D01*
X105432344Y-47491011D01*
X105428143Y-47486948D01*
X105425944Y-47479173D01*
X105425708Y-47478002D01*
X105416774Y-47454667D01*
X105401207Y-47437839D01*
X105380049Y-47428247D01*
X105354342Y-47426623D01*
X105352639Y-47426799D01*
X105329849Y-47433476D01*
X105311411Y-47448043D01*
X105297131Y-47470776D01*
X105286818Y-47501946D01*
X105282178Y-47526667D01*
X105279342Y-47563855D01*
X105281419Y-47599734D01*
X105287991Y-47632589D01*
X105298637Y-47660700D01*
X105312940Y-47682350D01*
X105322212Y-47690880D01*
X105342737Y-47700515D01*
X105366263Y-47702871D01*
X105389190Y-47697650D01*
X105391435Y-47696640D01*
X105404379Y-47688331D01*
X105414347Y-47675895D01*
X105421276Y-47662474D01*
X105432977Y-47636916D01*
X105459043Y-47636916D01*
X105473945Y-47637508D01*
X105482381Y-47640414D01*
X105485103Y-47647327D01*
X105482861Y-47659943D01*
X105477154Y-47677766D01*
X105463081Y-47704993D01*
X105442075Y-47727345D01*
X105415915Y-47743993D01*
X105386383Y-47754107D01*
X105355258Y-47756860D01*
X105324321Y-47751421D01*
X105321244Y-47750373D01*
X105291865Y-47734923D01*
X105267722Y-47711573D01*
X105248954Y-47680560D01*
X105235699Y-47642126D01*
X105228093Y-47596510D01*
X105227257Y-47586481D01*
X105227026Y-47541028D01*
X105232649Y-47499066D01*
X105243677Y-47461563D01*
X105259658Y-47429488D01*
X105280143Y-47403811D01*
X105304679Y-47385501D01*
X105324492Y-47377454D01*
X105345316Y-47374074D01*
X105369770Y-47373700D01*
X105394042Y-47376089D01*
G37*
G36*
X102142993Y-47377029D02*
G01*
X102173335Y-47389120D01*
X102198391Y-47408449D01*
X102217161Y-47434302D01*
X102226189Y-47456462D01*
X102231292Y-47474570D01*
X102232516Y-47485373D01*
X102228769Y-47490757D01*
X102218963Y-47492609D01*
X102205197Y-47492816D01*
X102177137Y-47492816D01*
X102171681Y-47474604D01*
X102160840Y-47453355D01*
X102143889Y-47437436D01*
X102122977Y-47427802D01*
X102100251Y-47425407D01*
X102077859Y-47431205D01*
X102076006Y-47432124D01*
X102058325Y-47446497D01*
X102044228Y-47468963D01*
X102034068Y-47498567D01*
X102028200Y-47534354D01*
X102026827Y-47564866D01*
X102028919Y-47605325D01*
X102035437Y-47638057D01*
X102046747Y-47664045D01*
X102063214Y-47684269D01*
X102074698Y-47693355D01*
X102095415Y-47702226D01*
X102117224Y-47702884D01*
X102138090Y-47696200D01*
X102155982Y-47683047D01*
X102168866Y-47664295D01*
X102173264Y-47651101D01*
X102175534Y-47643196D01*
X102179591Y-47638957D01*
X102187974Y-47637245D01*
X102203220Y-47636917D01*
X102204818Y-47636916D01*
X102220614Y-47637312D01*
X102229647Y-47639644D01*
X102232711Y-47645629D01*
X102230599Y-47656983D01*
X102224105Y-47675422D01*
X102223441Y-47677201D01*
X102208199Y-47706381D01*
X102187110Y-47729676D01*
X102161607Y-47745655D01*
X102150989Y-47749531D01*
X102119441Y-47755528D01*
X102088181Y-47755427D01*
X102066173Y-47750963D01*
X102042884Y-47738856D01*
X102021205Y-47718836D01*
X102002381Y-47692589D01*
X101987655Y-47661802D01*
X101979237Y-47633077D01*
X101975683Y-47607564D01*
X101974127Y-47576810D01*
X101974515Y-47544386D01*
X101976790Y-47513863D01*
X101980900Y-47488813D01*
X101981469Y-47486518D01*
X101989097Y-47460918D01*
X101997846Y-47441154D01*
X102009649Y-47423485D01*
X102020981Y-47410122D01*
X102043443Y-47390158D01*
X102068556Y-47378144D01*
X102098498Y-47373152D01*
X102108370Y-47372886D01*
X102142993Y-47377029D01*
G37*
G36*
X101643709Y-42685163D02*
G01*
X101650611Y-42688641D01*
X101654691Y-42691468D01*
X101658823Y-42694951D01*
X101661109Y-42699301D01*
X101661590Y-42706492D01*
X101660307Y-42718496D01*
X101657300Y-42737285D01*
X101655822Y-42745982D01*
X101640803Y-42813032D01*
X101617915Y-42884869D01*
X101587381Y-42961102D01*
X101549425Y-43041338D01*
X101504270Y-43125187D01*
X101452139Y-43212258D01*
X101393255Y-43302159D01*
X101327841Y-43394498D01*
X101256120Y-43488885D01*
X101178315Y-43584928D01*
X101175928Y-43587785D01*
X101123063Y-43650031D01*
X101069346Y-43711290D01*
X101013973Y-43772389D01*
X100956141Y-43834157D01*
X100895047Y-43897420D01*
X100829886Y-43963006D01*
X100759856Y-44031744D01*
X100684152Y-44104461D01*
X100601972Y-44181984D01*
X100571459Y-44210473D01*
X100544886Y-44235222D01*
X100520870Y-44223046D01*
X100471703Y-44196671D01*
X100416994Y-44164761D01*
X100358236Y-44128329D01*
X100296916Y-44088388D01*
X100234525Y-44045948D01*
X100172553Y-44002024D01*
X100112490Y-43957626D01*
X100055826Y-43913766D01*
X100006934Y-43873887D01*
X99978379Y-43849341D01*
X99945861Y-43820467D01*
X99911100Y-43788866D01*
X99875815Y-43756142D01*
X99841723Y-43723897D01*
X99810544Y-43693734D01*
X99783997Y-43667256D01*
X99771551Y-43654378D01*
X99737927Y-43618932D01*
X99759542Y-43617857D01*
X99806652Y-43614826D01*
X99855880Y-43610441D01*
X99904033Y-43605047D01*
X99947914Y-43598990D01*
X99973310Y-43594737D01*
X100103343Y-43566519D01*
X100235579Y-43529199D01*
X100369700Y-43482945D01*
X100505393Y-43427927D01*
X100642342Y-43364313D01*
X100780230Y-43292272D01*
X100918742Y-43211972D01*
X101057562Y-43123584D01*
X101196376Y-43027274D01*
X101334867Y-42923213D01*
X101472720Y-42811568D01*
X101531192Y-42761729D01*
X101560985Y-42736088D01*
X101584576Y-42716274D01*
X101602943Y-42701732D01*
X101617062Y-42691906D01*
X101627911Y-42686240D01*
X101636468Y-42684177D01*
X101643709Y-42685163D01*
G37*
G36*
X101696232Y-41162000D02*
G01*
X101696993Y-41176206D01*
X101697674Y-41199667D01*
X101698274Y-41232210D01*
X101698792Y-41273658D01*
X101699225Y-41323838D01*
X101699573Y-41382573D01*
X101699832Y-41449690D01*
X101700002Y-41525012D01*
X101700081Y-41608364D01*
X101700087Y-41639579D01*
X101700087Y-42121932D01*
X101685944Y-42125038D01*
X101674437Y-42130417D01*
X101661183Y-42140573D01*
X101654994Y-42146748D01*
X101644694Y-42160003D01*
X101638017Y-42174174D01*
X101633989Y-42192168D01*
X101631671Y-42216360D01*
X101630439Y-42235574D01*
X101404328Y-42236821D01*
X101358651Y-42237023D01*
X101315963Y-42237117D01*
X101277213Y-42237107D01*
X101243353Y-42236998D01*
X101215334Y-42236794D01*
X101194104Y-42236500D01*
X101180616Y-42236121D01*
X101175831Y-42235681D01*
X101174758Y-42229312D01*
X101175474Y-42215985D01*
X101177623Y-42198102D01*
X101180845Y-42178068D01*
X101184785Y-42158287D01*
X101189083Y-42141163D01*
X101190638Y-42136145D01*
X101197554Y-42118193D01*
X101206582Y-42100401D01*
X101218391Y-42082023D01*
X101233649Y-42062316D01*
X101253025Y-42040534D01*
X101277186Y-42015934D01*
X101306802Y-41987771D01*
X101342541Y-41955302D01*
X101385071Y-41917780D01*
X101392674Y-41911151D01*
X101429840Y-41878646D01*
X101460501Y-41851402D01*
X101485510Y-41828499D01*
X101505716Y-41809019D01*
X101521971Y-41792042D01*
X101535126Y-41776650D01*
X101546033Y-41761924D01*
X101555543Y-41746946D01*
X101564507Y-41730795D01*
X101570421Y-41719279D01*
X101584869Y-41688382D01*
X101597795Y-41655795D01*
X101609417Y-41620533D01*
X101619953Y-41581614D01*
X101629618Y-41538055D01*
X101638630Y-41488871D01*
X101647208Y-41433079D01*
X101655566Y-41369696D01*
X101663924Y-41297739D01*
X101664321Y-41294121D01*
X101669037Y-41252955D01*
X101673278Y-41220481D01*
X101677249Y-41195806D01*
X101681150Y-41178040D01*
X101685186Y-41166290D01*
X101689557Y-41159666D01*
X101694466Y-41157276D01*
X101695394Y-41157226D01*
X101696232Y-41162000D01*
G37*
G36*
X101890224Y-40556494D02*
G01*
X101905381Y-40569217D01*
X101921609Y-40589068D01*
X101938328Y-40614939D01*
X101954956Y-40645722D01*
X101970912Y-40680310D01*
X101985615Y-40717596D01*
X101998485Y-40756470D01*
X102008939Y-40795826D01*
X102012010Y-40809948D01*
X102013444Y-40817168D01*
X102014732Y-40824366D01*
X102015883Y-40832070D01*
X102016903Y-40840806D01*
X102017801Y-40851101D01*
X102018584Y-40863481D01*
X102019260Y-40878474D01*
X102019837Y-40896606D01*
X102020322Y-40918404D01*
X102020724Y-40944395D01*
X102021050Y-40975105D01*
X102021307Y-41011062D01*
X102021504Y-41052792D01*
X102021648Y-41100822D01*
X102021747Y-41155678D01*
X102021809Y-41217888D01*
X102021841Y-41287978D01*
X102021851Y-41366475D01*
X102021847Y-41453906D01*
X102021844Y-41479804D01*
X102021814Y-41556447D01*
X102021742Y-41630536D01*
X102021631Y-41701492D01*
X102021483Y-41768737D01*
X102021301Y-41831692D01*
X102021088Y-41889779D01*
X102020846Y-41942418D01*
X102020579Y-41989032D01*
X102020288Y-42029042D01*
X102019978Y-42061868D01*
X102019649Y-42086933D01*
X102019306Y-42103657D01*
X102018951Y-42111463D01*
X102018882Y-42111888D01*
X102015986Y-42122695D01*
X101872266Y-42122695D01*
X101728545Y-42122695D01*
X101730158Y-41480250D01*
X101730378Y-41388104D01*
X101730567Y-41305036D01*
X101730746Y-41230516D01*
X101730938Y-41164015D01*
X101731164Y-41105005D01*
X101731446Y-41052956D01*
X101731805Y-41007339D01*
X101732264Y-40967626D01*
X101732844Y-40933286D01*
X101733567Y-40903792D01*
X101734454Y-40878614D01*
X101735529Y-40857222D01*
X101736812Y-40839089D01*
X101738324Y-40823684D01*
X101740089Y-40810480D01*
X101742128Y-40798946D01*
X101744462Y-40788553D01*
X101747113Y-40778774D01*
X101750104Y-40769078D01*
X101753455Y-40758937D01*
X101757189Y-40747821D01*
X101760770Y-40736935D01*
X101773763Y-40700847D01*
X101788734Y-40666173D01*
X101804961Y-40634065D01*
X101821721Y-40605676D01*
X101838292Y-40582158D01*
X101853952Y-40564664D01*
X101867977Y-40554346D01*
X101876719Y-40552007D01*
X101890224Y-40556494D01*
G37*
G36*
X101252944Y-47376547D02*
G01*
X101281568Y-47387267D01*
X101304356Y-47404225D01*
X101320375Y-47426707D01*
X101328691Y-47453999D01*
X101329034Y-47456704D01*
X101331480Y-47478406D01*
X101305638Y-47478232D01*
X101290557Y-47477780D01*
X101281786Y-47475419D01*
X101276025Y-47469249D01*
X101270189Y-47457818D01*
X101256419Y-47438663D01*
X101237950Y-47426770D01*
X101216827Y-47422626D01*
X101195098Y-47426718D01*
X101178884Y-47436068D01*
X101170722Y-47444934D01*
X101167329Y-47456798D01*
X101166917Y-47466378D01*
X101170646Y-47487443D01*
X101182234Y-47504820D01*
X101202285Y-47519214D01*
X101218489Y-47526656D01*
X101254941Y-47542168D01*
X101283102Y-47556788D01*
X101304113Y-47571456D01*
X101319112Y-47587110D01*
X101329241Y-47604688D01*
X101335057Y-47622601D01*
X101338654Y-47654848D01*
X101333159Y-47684040D01*
X101318505Y-47710412D01*
X101306518Y-47723800D01*
X101284941Y-47741272D01*
X101263712Y-47750877D01*
X101261679Y-47751419D01*
X101236165Y-47755617D01*
X101210149Y-47756189D01*
X101188062Y-47753071D01*
X101186100Y-47752512D01*
X101154969Y-47738650D01*
X101130719Y-47718090D01*
X101113338Y-47690818D01*
X101102812Y-47656818D01*
X101102464Y-47654929D01*
X101099236Y-47636916D01*
X101128273Y-47636916D01*
X101144339Y-47637190D01*
X101153041Y-47638591D01*
X101156619Y-47641992D01*
X101157311Y-47648214D01*
X101160851Y-47662026D01*
X101169805Y-47677594D01*
X101181671Y-47691228D01*
X101191078Y-47698018D01*
X101208454Y-47702917D01*
X101229638Y-47703630D01*
X101249831Y-47700234D01*
X101258277Y-47696908D01*
X101272467Y-47686450D01*
X101280019Y-47672032D01*
X101282197Y-47651809D01*
X101279735Y-47634857D01*
X101271683Y-47620169D01*
X101257040Y-47606812D01*
X101234807Y-47593852D01*
X101206968Y-47581549D01*
X101173282Y-47566156D01*
X101148085Y-47550172D01*
X101130268Y-47532600D01*
X101118721Y-47512445D01*
X101114231Y-47498246D01*
X101110583Y-47465815D01*
X101115458Y-47436930D01*
X101128167Y-47412412D01*
X101148022Y-47393084D01*
X101174333Y-47379767D01*
X101206412Y-47373283D01*
X101219415Y-47372780D01*
X101252944Y-47376547D01*
G37*
G36*
X104802655Y-47376613D02*
G01*
X104831013Y-47387693D01*
X104853732Y-47405236D01*
X104869800Y-47428458D01*
X104878203Y-47456574D01*
X104878240Y-47456837D01*
X104881196Y-47478406D01*
X104855201Y-47478406D01*
X104840093Y-47478079D01*
X104831330Y-47475845D01*
X104825652Y-47469828D01*
X104819799Y-47458152D01*
X104819724Y-47457992D01*
X104806225Y-47438759D01*
X104788131Y-47426688D01*
X104767471Y-47422246D01*
X104746277Y-47425902D01*
X104728025Y-47436842D01*
X104719465Y-47446546D01*
X104716028Y-47458489D01*
X104715705Y-47468482D01*
X104717433Y-47482718D01*
X104722961Y-47494875D01*
X104733456Y-47505998D01*
X104750082Y-47517126D01*
X104774006Y-47529304D01*
X104793540Y-47538065D01*
X104825305Y-47553171D01*
X104848919Y-47567787D01*
X104865686Y-47583138D01*
X104876906Y-47600450D01*
X104883883Y-47620950D01*
X104884502Y-47623707D01*
X104887119Y-47656358D01*
X104880972Y-47686510D01*
X104866613Y-47712954D01*
X104844598Y-47734484D01*
X104829455Y-47743777D01*
X104809761Y-47750552D01*
X104784803Y-47754529D01*
X104758598Y-47755392D01*
X104735163Y-47752823D01*
X104730211Y-47751608D01*
X104705424Y-47739944D01*
X104683368Y-47720770D01*
X104665739Y-47696125D01*
X104654231Y-47668052D01*
X104651886Y-47657330D01*
X104648486Y-47636916D01*
X104677114Y-47636916D01*
X104705743Y-47636916D01*
X104708656Y-47655133D01*
X104716507Y-47675917D01*
X104731699Y-47691793D01*
X104752603Y-47701289D01*
X104761558Y-47702903D01*
X104788666Y-47702798D01*
X104809616Y-47695947D01*
X104823920Y-47682696D01*
X104831089Y-47663394D01*
X104831857Y-47652956D01*
X104829281Y-47635660D01*
X104820915Y-47620573D01*
X104805803Y-47606796D01*
X104782987Y-47593435D01*
X104755095Y-47581031D01*
X104719756Y-47564432D01*
X104693253Y-47546461D01*
X104674826Y-47526221D01*
X104663717Y-47502814D01*
X104659167Y-47475345D01*
X104658964Y-47467445D01*
X104662106Y-47445360D01*
X104670371Y-47422764D01*
X104681930Y-47404658D01*
X104681936Y-47404651D01*
X104698944Y-47391316D01*
X104722375Y-47380859D01*
X104749211Y-47374376D01*
X104769671Y-47372780D01*
X104802655Y-47376613D01*
G37*
G36*
X102003033Y-42733243D02*
G01*
X102015671Y-42735626D01*
X102020801Y-42738722D01*
X102024304Y-42746442D01*
X102028394Y-42760299D01*
X102031403Y-42773546D01*
X102051190Y-42858942D01*
X102076671Y-42944054D01*
X102108229Y-43029731D01*
X102146245Y-43116825D01*
X102191100Y-43206184D01*
X102243177Y-43298659D01*
X102302856Y-43395101D01*
X102326703Y-43431602D01*
X102407471Y-43548185D01*
X102496595Y-43666761D01*
X102593278Y-43786409D01*
X102696722Y-43906207D01*
X102806130Y-44025235D01*
X102920705Y-44142569D01*
X103039648Y-44257290D01*
X103048842Y-44265875D01*
X103098297Y-44311943D01*
X103029629Y-44340769D01*
X102874122Y-44400882D01*
X102715779Y-44451842D01*
X102554541Y-44493663D01*
X102390352Y-44526359D01*
X102223152Y-44549942D01*
X102081952Y-44562612D01*
X102048707Y-44564908D01*
X102023855Y-44566539D01*
X102006192Y-44567225D01*
X101994512Y-44566691D01*
X101987609Y-44564658D01*
X101984278Y-44560848D01*
X101983314Y-44554984D01*
X101983511Y-44546788D01*
X101983692Y-44539970D01*
X101983629Y-44532348D01*
X101983402Y-44515614D01*
X101983019Y-44490263D01*
X101982490Y-44456790D01*
X101981822Y-44415688D01*
X101981023Y-44367452D01*
X101980102Y-44312575D01*
X101979068Y-44251553D01*
X101977928Y-44184878D01*
X101976692Y-44113045D01*
X101975368Y-44036548D01*
X101973963Y-43955882D01*
X101972487Y-43871540D01*
X101970948Y-43784017D01*
X101969354Y-43693806D01*
X101968209Y-43629259D01*
X101966290Y-43521174D01*
X101964540Y-43422283D01*
X101962957Y-43332172D01*
X101961537Y-43250431D01*
X101960277Y-43176647D01*
X101959174Y-43110408D01*
X101958226Y-43051302D01*
X101957429Y-42998917D01*
X101956780Y-42952842D01*
X101956276Y-42912664D01*
X101955915Y-42877971D01*
X101955692Y-42848352D01*
X101955606Y-42823393D01*
X101955654Y-42802684D01*
X101955831Y-42785813D01*
X101956136Y-42772366D01*
X101956564Y-42761933D01*
X101957114Y-42754102D01*
X101957783Y-42748459D01*
X101958566Y-42744594D01*
X101959461Y-42742095D01*
X101960466Y-42740548D01*
X101961577Y-42739544D01*
X101961713Y-42739442D01*
X101972376Y-42735196D01*
X101987375Y-42733115D01*
X102003033Y-42733243D01*
G37*
G36*
X101820723Y-42734074D02*
G01*
X101833556Y-42737494D01*
X101837005Y-42739346D01*
X101838209Y-42740406D01*
X101839290Y-42742036D01*
X101840244Y-42744687D01*
X101841070Y-42748810D01*
X101841763Y-42754855D01*
X101842323Y-42763273D01*
X101842747Y-42774516D01*
X101843031Y-42789034D01*
X101843174Y-42807277D01*
X101843173Y-42829697D01*
X101843026Y-42856745D01*
X101842729Y-42888872D01*
X101842281Y-42926527D01*
X101841679Y-42970163D01*
X101840921Y-43020230D01*
X101840004Y-43077179D01*
X101838925Y-43141460D01*
X101837682Y-43213525D01*
X101836273Y-43293824D01*
X101834695Y-43382809D01*
X101832945Y-43480930D01*
X101832871Y-43485062D01*
X101831322Y-43571877D01*
X101829785Y-43658103D01*
X101828273Y-43743047D01*
X101826797Y-43826020D01*
X101825371Y-43906329D01*
X101824006Y-43983282D01*
X101822715Y-44056188D01*
X101821509Y-44124355D01*
X101820401Y-44187093D01*
X101819404Y-44243708D01*
X101818529Y-44293511D01*
X101817789Y-44335808D01*
X101817196Y-44369909D01*
X101816762Y-44395122D01*
X101816750Y-44395871D01*
X101813825Y-44567590D01*
X101786977Y-44566904D01*
X101770856Y-44566263D01*
X101748487Y-44565074D01*
X101723200Y-44563525D01*
X101704890Y-44562279D01*
X101541525Y-44546188D01*
X101379798Y-44521413D01*
X101220792Y-44488165D01*
X101065591Y-44446653D01*
X100996399Y-44425045D01*
X100957193Y-44411803D01*
X100914180Y-44396542D01*
X100869648Y-44380129D01*
X100825887Y-44363434D01*
X100785186Y-44347324D01*
X100749834Y-44332668D01*
X100730437Y-44324164D01*
X100699837Y-44310331D01*
X100785675Y-44230435D01*
X100811828Y-44205872D01*
X100837575Y-44181196D01*
X100863817Y-44155491D01*
X100891455Y-44127842D01*
X100921390Y-44097334D01*
X100954521Y-44063053D01*
X100991750Y-44024083D01*
X101033977Y-43979509D01*
X101063820Y-43947853D01*
X101130496Y-43874646D01*
X101199159Y-43794806D01*
X101268050Y-43710546D01*
X101335412Y-43624080D01*
X101399483Y-43537620D01*
X101458508Y-43453381D01*
X101468337Y-43438807D01*
X101532647Y-43338257D01*
X101590263Y-43238609D01*
X101640891Y-43140506D01*
X101684238Y-43044589D01*
X101720010Y-42951501D01*
X101747913Y-42861885D01*
X101764934Y-42790358D01*
X101770012Y-42766230D01*
X101774416Y-42749989D01*
X101779232Y-42740076D01*
X101785542Y-42734932D01*
X101794430Y-42733000D01*
X101805011Y-42732718D01*
X101820723Y-42734074D01*
G37*
G36*
X97990665Y-47374146D02*
G01*
X98018193Y-47383187D01*
X98043484Y-47399352D01*
X98065305Y-47422652D01*
X98082424Y-47453101D01*
X98087390Y-47466398D01*
X98095840Y-47501230D01*
X98100660Y-47540908D01*
X98101567Y-47581275D01*
X98098276Y-47618172D01*
X98097902Y-47620396D01*
X98090211Y-47651446D01*
X98078720Y-47680934D01*
X98064647Y-47706326D01*
X98049209Y-47725090D01*
X98046453Y-47727507D01*
X98039115Y-47733429D01*
X98034516Y-47738122D01*
X98033184Y-47743069D01*
X98035645Y-47749758D01*
X98042427Y-47759674D01*
X98054056Y-47774303D01*
X98069972Y-47793792D01*
X98082137Y-47809048D01*
X98091568Y-47821477D01*
X98096895Y-47829242D01*
X98097591Y-47830781D01*
X98093214Y-47832363D01*
X98081786Y-47833472D01*
X98067135Y-47833853D01*
X98036680Y-47833853D01*
X98004917Y-47795908D01*
X97990243Y-47778676D01*
X97979589Y-47767452D01*
X97970956Y-47760756D01*
X97962347Y-47757109D01*
X97951763Y-47755030D01*
X97949206Y-47754669D01*
X97918787Y-47745797D01*
X97891844Y-47728443D01*
X97869116Y-47703332D01*
X97851341Y-47671191D01*
X97844110Y-47651326D01*
X97839784Y-47632285D01*
X97837131Y-47607902D01*
X97835978Y-47576368D01*
X97835898Y-47564866D01*
X97835974Y-47556638D01*
X97888633Y-47556638D01*
X97888724Y-47585384D01*
X97890339Y-47611734D01*
X97893514Y-47632765D01*
X97895323Y-47639318D01*
X97906496Y-47663273D01*
X97921609Y-47683168D01*
X97938627Y-47696404D01*
X97940902Y-47697513D01*
X97961093Y-47702176D01*
X97983261Y-47700490D01*
X98002853Y-47692921D01*
X98005912Y-47690854D01*
X98022962Y-47672582D01*
X98035999Y-47646677D01*
X98044672Y-47614385D01*
X98048627Y-47576955D01*
X98047995Y-47541717D01*
X98042491Y-47504817D01*
X98031864Y-47473721D01*
X98016590Y-47449511D01*
X98001524Y-47435949D01*
X97980266Y-47426848D01*
X97958388Y-47426453D01*
X97937326Y-47434086D01*
X97918515Y-47449069D01*
X97903391Y-47470725D01*
X97897159Y-47485248D01*
X97892886Y-47503647D01*
X97890032Y-47528418D01*
X97888633Y-47556638D01*
X97835974Y-47556638D01*
X97836156Y-47537094D01*
X97837261Y-47516015D01*
X97839565Y-47498730D01*
X97843420Y-47482339D01*
X97847569Y-47468800D01*
X97862626Y-47435360D01*
X97882844Y-47408969D01*
X97906990Y-47389640D01*
X97933831Y-47377385D01*
X97962133Y-47372216D01*
X97990665Y-47374146D01*
G37*
G36*
X102177300Y-42688811D02*
G01*
X102193624Y-42699452D01*
X102214542Y-42716811D01*
X102223853Y-42725195D01*
X102257972Y-42755532D01*
X102298554Y-42790184D01*
X102344156Y-42828004D01*
X102393338Y-42867847D01*
X102444658Y-42908563D01*
X102496676Y-42949008D01*
X102547950Y-42988034D01*
X102597039Y-43024495D01*
X102629531Y-43048021D01*
X102762775Y-43139360D01*
X102897550Y-43224014D01*
X103033050Y-43301561D01*
X103168469Y-43371578D01*
X103303000Y-43433639D01*
X103435838Y-43487324D01*
X103528833Y-43520172D01*
X103602273Y-43543050D01*
X103676377Y-43563371D01*
X103749666Y-43580840D01*
X103820660Y-43595166D01*
X103887878Y-43606057D01*
X103949841Y-43613220D01*
X104005068Y-43616363D01*
X104016492Y-43616487D01*
X104035238Y-43616893D01*
X104049676Y-43617942D01*
X104057633Y-43619442D01*
X104058521Y-43620191D01*
X104055231Y-43624503D01*
X104046042Y-43634462D01*
X104031974Y-43649051D01*
X104014051Y-43667256D01*
X103993292Y-43688059D01*
X103970719Y-43710444D01*
X103947354Y-43733397D01*
X103924218Y-43755900D01*
X103902332Y-43776938D01*
X103882719Y-43795495D01*
X103875995Y-43801757D01*
X103851579Y-43823629D01*
X103821179Y-43849695D01*
X103786585Y-43878508D01*
X103749589Y-43908619D01*
X103711981Y-43938580D01*
X103675552Y-43966945D01*
X103642093Y-43992263D01*
X103624052Y-44005488D01*
X103577613Y-44038250D01*
X103528163Y-44071784D01*
X103477343Y-44105060D01*
X103426794Y-44137049D01*
X103378155Y-44166720D01*
X103333069Y-44193044D01*
X103293175Y-44214990D01*
X103276904Y-44223390D01*
X103253964Y-44234925D01*
X103208332Y-44195306D01*
X103189246Y-44178258D01*
X103164514Y-44155425D01*
X103135228Y-44127872D01*
X103102482Y-44096659D01*
X103067368Y-44062850D01*
X103030980Y-44027507D01*
X102994410Y-43991692D01*
X102958752Y-43956467D01*
X102925099Y-43922895D01*
X102894543Y-43892038D01*
X102868178Y-43864959D01*
X102864632Y-43861267D01*
X102751373Y-43739723D01*
X102647053Y-43620740D01*
X102551718Y-43504376D01*
X102465417Y-43390693D01*
X102388197Y-43279749D01*
X102324768Y-43179407D01*
X102276070Y-43094548D01*
X102234978Y-43014844D01*
X102201291Y-42939849D01*
X102174808Y-42869120D01*
X102156871Y-42808369D01*
X102147874Y-42771144D01*
X102142027Y-42742084D01*
X102139237Y-42720310D01*
X102139408Y-42704944D01*
X102142448Y-42695107D01*
X102144469Y-42692502D01*
X102153864Y-42685807D01*
X102164428Y-42684420D01*
X102177300Y-42688811D01*
G37*
G36*
X104781531Y-39175611D02*
G01*
X104836113Y-39176165D01*
X104888292Y-39177073D01*
X104936665Y-39178330D01*
X104979829Y-39179931D01*
X105016383Y-39181869D01*
X105044922Y-39184140D01*
X105048007Y-39184464D01*
X105166136Y-39199747D01*
X105275607Y-39219022D01*
X105376525Y-39242347D01*
X105468997Y-39269783D01*
X105553128Y-39301388D01*
X105629026Y-39337222D01*
X105696796Y-39377345D01*
X105756545Y-39421816D01*
X105808380Y-39470695D01*
X105852405Y-39524041D01*
X105888729Y-39581914D01*
X105917457Y-39644373D01*
X105929151Y-39677801D01*
X105944960Y-39742292D01*
X105953623Y-39812200D01*
X105955165Y-39886554D01*
X105949611Y-39964380D01*
X105936987Y-40044704D01*
X105917429Y-40126158D01*
X105890647Y-40207923D01*
X105855924Y-40291948D01*
X105814100Y-40376597D01*
X105766012Y-40460232D01*
X105712502Y-40541217D01*
X105685911Y-40577642D01*
X105628345Y-40650095D01*
X105562281Y-40726049D01*
X105488036Y-40805185D01*
X105405929Y-40887186D01*
X105316276Y-40971732D01*
X105219393Y-41058505D01*
X105133687Y-41132018D01*
X105129406Y-41134712D01*
X105126603Y-41132883D01*
X105124579Y-41124931D01*
X105122631Y-41109254D01*
X105122284Y-41105954D01*
X105120385Y-41089466D01*
X105117454Y-41066092D01*
X105113831Y-41038454D01*
X105109856Y-41009175D01*
X105108065Y-40996315D01*
X105097265Y-40919462D01*
X105155737Y-40859420D01*
X105231916Y-40776372D01*
X105301040Y-40691086D01*
X105362721Y-40604202D01*
X105416573Y-40516361D01*
X105462209Y-40428203D01*
X105499240Y-40340370D01*
X105527281Y-40253502D01*
X105531502Y-40237389D01*
X105538843Y-40200559D01*
X105543979Y-40158652D01*
X105546802Y-40114551D01*
X105547202Y-40071142D01*
X105545067Y-40031309D01*
X105540582Y-39999356D01*
X105523398Y-39937398D01*
X105497848Y-39880012D01*
X105463860Y-39827093D01*
X105421363Y-39778538D01*
X105370286Y-39734245D01*
X105345813Y-39716583D01*
X105304481Y-39690253D01*
X105262800Y-39667961D01*
X105218444Y-39648697D01*
X105169090Y-39631448D01*
X105113498Y-39615489D01*
X105038431Y-39597660D01*
X104960514Y-39583169D01*
X104878119Y-39571791D01*
X104789616Y-39563299D01*
X104698088Y-39557682D01*
X104654747Y-39556116D01*
X104611107Y-39555536D01*
X104566379Y-39556016D01*
X104519771Y-39557627D01*
X104470495Y-39560443D01*
X104417760Y-39564536D01*
X104360776Y-39569978D01*
X104298753Y-39576842D01*
X104230901Y-39585200D01*
X104156429Y-39595125D01*
X104074548Y-39606690D01*
X103984467Y-39619967D01*
X103930183Y-39628171D01*
X103751410Y-39655395D01*
X103718837Y-39633673D01*
X103700443Y-39620952D01*
X103679266Y-39605578D01*
X103656751Y-39588685D01*
X103634341Y-39571406D01*
X103613481Y-39554874D01*
X103595613Y-39540223D01*
X103582184Y-39528585D01*
X103574635Y-39521094D01*
X103573707Y-39519776D01*
X103573649Y-39512178D01*
X103577329Y-39496483D01*
X103584806Y-39472491D01*
X103596139Y-39440000D01*
X103600497Y-39428028D01*
X103610813Y-39399904D01*
X103620474Y-39373551D01*
X103628795Y-39350836D01*
X103635094Y-39333622D01*
X103638436Y-39324469D01*
X103645532Y-39304967D01*
X103737948Y-39284896D01*
X103882889Y-39255959D01*
X104035089Y-39230441D01*
X104192733Y-39208605D01*
X104354009Y-39190711D01*
X104449992Y-39182121D01*
X104482122Y-39180039D01*
X104521667Y-39178351D01*
X104567224Y-39177050D01*
X104617392Y-39176131D01*
X104670768Y-39175589D01*
X104725948Y-39175417D01*
X104781531Y-39175611D01*
G37*
G36*
X101267024Y-40282443D02*
G01*
X101267787Y-40287572D01*
X101264999Y-40293805D01*
X101255959Y-40301670D01*
X101239658Y-40311940D01*
X101225758Y-40319694D01*
X101000825Y-40443034D01*
X100785072Y-40564415D01*
X100578301Y-40683967D01*
X100380316Y-40801822D01*
X100190919Y-40918111D01*
X100009914Y-41032963D01*
X99837104Y-41146511D01*
X99672292Y-41258885D01*
X99515281Y-41370216D01*
X99365873Y-41480635D01*
X99223873Y-41590272D01*
X99089082Y-41699259D01*
X98961305Y-41807726D01*
X98885337Y-41874936D01*
X98841957Y-41914668D01*
X98794911Y-41959054D01*
X98745292Y-42006980D01*
X98694194Y-42057327D01*
X98642712Y-42108981D01*
X98591938Y-42160825D01*
X98542969Y-42211742D01*
X98496897Y-42260617D01*
X98454817Y-42306333D01*
X98417824Y-42347773D01*
X98389742Y-42380541D01*
X98318865Y-42469371D01*
X98256670Y-42555670D01*
X98203223Y-42639322D01*
X98158591Y-42720209D01*
X98122838Y-42798215D01*
X98096031Y-42873223D01*
X98082407Y-42924851D01*
X98076074Y-42962030D01*
X98072240Y-43003662D01*
X98070911Y-43047017D01*
X98072087Y-43089366D01*
X98075772Y-43127980D01*
X98081968Y-43160128D01*
X98082180Y-43160918D01*
X98103930Y-43224527D01*
X98133504Y-43283600D01*
X98171003Y-43338208D01*
X98216528Y-43388420D01*
X98270180Y-43434307D01*
X98332060Y-43475940D01*
X98402267Y-43513388D01*
X98480904Y-43546723D01*
X98568071Y-43576015D01*
X98663868Y-43601335D01*
X98733447Y-43616212D01*
X98766301Y-43622202D01*
X98803126Y-43628217D01*
X98839574Y-43633585D01*
X98871301Y-43637634D01*
X98873328Y-43637861D01*
X98902650Y-43640574D01*
X98940166Y-43643198D01*
X98984467Y-43645683D01*
X99034139Y-43647976D01*
X99087772Y-43650029D01*
X99143954Y-43651789D01*
X99201274Y-43653206D01*
X99258320Y-43654229D01*
X99313681Y-43654807D01*
X99347104Y-43654920D01*
X99465433Y-43654957D01*
X99533743Y-43726962D01*
X99557501Y-43752421D01*
X99575923Y-43773051D01*
X99588607Y-43788369D01*
X99595153Y-43797894D01*
X99595539Y-43801095D01*
X99588344Y-43802277D01*
X99572615Y-43804076D01*
X99549402Y-43806399D01*
X99519751Y-43809153D01*
X99484709Y-43812245D01*
X99445325Y-43815583D01*
X99402645Y-43819073D01*
X99357718Y-43822622D01*
X99322439Y-43825323D01*
X99273341Y-43828637D01*
X99218497Y-43831656D01*
X99159294Y-43834349D01*
X99097118Y-43836689D01*
X99033356Y-43838646D01*
X98969394Y-43840191D01*
X98906618Y-43841297D01*
X98846414Y-43841934D01*
X98790170Y-43842074D01*
X98739270Y-43841687D01*
X98695102Y-43840746D01*
X98659051Y-43839220D01*
X98657178Y-43839110D01*
X98551922Y-43830954D01*
X98452216Y-43819551D01*
X98359035Y-43805046D01*
X98273349Y-43787587D01*
X98212871Y-43772161D01*
X98123038Y-43743596D01*
X98041768Y-43710755D01*
X97968976Y-43673546D01*
X97904576Y-43631878D01*
X97848485Y-43585661D01*
X97800618Y-43534804D01*
X97760890Y-43479215D01*
X97729217Y-43418805D01*
X97705514Y-43353481D01*
X97689697Y-43283154D01*
X97681682Y-43207733D01*
X97681355Y-43201043D01*
X97682121Y-43118455D01*
X97691407Y-43032801D01*
X97708933Y-42944862D01*
X97734416Y-42855422D01*
X97767576Y-42765264D01*
X97808132Y-42675170D01*
X97855802Y-42585922D01*
X97910304Y-42498305D01*
X97958224Y-42430464D01*
X98035208Y-42332797D01*
X98121543Y-42233650D01*
X98217101Y-42133125D01*
X98321757Y-42031321D01*
X98435386Y-41928341D01*
X98557860Y-41824284D01*
X98689054Y-41719252D01*
X98828842Y-41613346D01*
X98977098Y-41506666D01*
X99133697Y-41399313D01*
X99298511Y-41291389D01*
X99471416Y-41182993D01*
X99652285Y-41074227D01*
X99652351Y-41074188D01*
X99854731Y-40957596D01*
X100063323Y-40842591D01*
X100276150Y-40730173D01*
X100491233Y-40621340D01*
X100706592Y-40517092D01*
X100920251Y-40418429D01*
X101130230Y-40326350D01*
X101145303Y-40319938D01*
X101173898Y-40307889D01*
X101199776Y-40297155D01*
X101221539Y-40288302D01*
X101237791Y-40281895D01*
X101247135Y-40278500D01*
X101248574Y-40278118D01*
X101261311Y-40277848D01*
X101267024Y-40282443D01*
G37*
G36*
X102299036Y-39198466D02*
G01*
X102302406Y-39203772D01*
X102310134Y-39216505D01*
X102321711Y-39235811D01*
X102336627Y-39260833D01*
X102354375Y-39290717D01*
X102374444Y-39324608D01*
X102396327Y-39361649D01*
X102415638Y-39394405D01*
X102439206Y-39434276D01*
X102461898Y-39472393D01*
X102483125Y-39507786D01*
X102502298Y-39539486D01*
X102518828Y-39566522D01*
X102532128Y-39587925D01*
X102541607Y-39602724D01*
X102545833Y-39608877D01*
X102566971Y-39630547D01*
X102594234Y-39648755D01*
X102624254Y-39661528D01*
X102642995Y-39665883D01*
X102652246Y-39666073D01*
X102670153Y-39665314D01*
X102695820Y-39663675D01*
X102728351Y-39661225D01*
X102766849Y-39658033D01*
X102810418Y-39654171D01*
X102858162Y-39649707D01*
X102886509Y-39646958D01*
X102932296Y-39642465D01*
X102975519Y-39638230D01*
X103015164Y-39634352D01*
X103050214Y-39630928D01*
X103079653Y-39628060D01*
X103102464Y-39625845D01*
X103117632Y-39624383D01*
X103123870Y-39623796D01*
X103134453Y-39624643D01*
X103139786Y-39628283D01*
X103136169Y-39631902D01*
X103124908Y-39639958D01*
X103106650Y-39652042D01*
X103082046Y-39667742D01*
X103051745Y-39686650D01*
X103016396Y-39708356D01*
X102976648Y-39732450D01*
X102939207Y-39754908D01*
X102898500Y-39779305D01*
X102859870Y-39802632D01*
X102824192Y-39824348D01*
X102792344Y-39843911D01*
X102765203Y-39860780D01*
X102743646Y-39874412D01*
X102728548Y-39884267D01*
X102720788Y-39889802D01*
X102720574Y-39889985D01*
X102706803Y-39905771D01*
X102693237Y-39927489D01*
X102681720Y-39951603D01*
X102674096Y-39974578D01*
X102672663Y-39981866D01*
X102672470Y-39991080D01*
X102673216Y-40008954D01*
X102674833Y-40034596D01*
X102677251Y-40067112D01*
X102680401Y-40105609D01*
X102684216Y-40149194D01*
X102688626Y-40196974D01*
X102691620Y-40228213D01*
X102696064Y-40274235D01*
X102700208Y-40317651D01*
X102703958Y-40357459D01*
X102707223Y-40392657D01*
X102709910Y-40422244D01*
X102711928Y-40445217D01*
X102713185Y-40460575D01*
X102713589Y-40467178D01*
X102711672Y-40477484D01*
X102706511Y-40479009D01*
X102698996Y-40471646D01*
X102697322Y-40469150D01*
X102693502Y-40462847D01*
X102685342Y-40449160D01*
X102673369Y-40428983D01*
X102658113Y-40403212D01*
X102640105Y-40372741D01*
X102619873Y-40338466D01*
X102597948Y-40301282D01*
X102581530Y-40273414D01*
X102558478Y-40234399D01*
X102536494Y-40197430D01*
X102516143Y-40163442D01*
X102497991Y-40133371D01*
X102482605Y-40108151D01*
X102470551Y-40088718D01*
X102462394Y-40076005D01*
X102459362Y-40071674D01*
X102433888Y-40045910D01*
X102403650Y-40026021D01*
X102378325Y-40015813D01*
X102371951Y-40014059D01*
X102365536Y-40012691D01*
X102358214Y-40011759D01*
X102349117Y-40011311D01*
X102337377Y-40011394D01*
X102322129Y-40012059D01*
X102302504Y-40013352D01*
X102277636Y-40015323D01*
X102246657Y-40018021D01*
X102208701Y-40021492D01*
X102162899Y-40025787D01*
X102109522Y-40030846D01*
X102062363Y-40035267D01*
X102018139Y-40039301D01*
X101977764Y-40042873D01*
X101942152Y-40045907D01*
X101912218Y-40048327D01*
X101888874Y-40050059D01*
X101873036Y-40051025D01*
X101865617Y-40051152D01*
X101865185Y-40051044D01*
X101864571Y-40045112D01*
X101865218Y-40043798D01*
X101869782Y-40040506D01*
X101881794Y-40032803D01*
X101900442Y-40021184D01*
X101924917Y-40006146D01*
X101954406Y-39988184D01*
X101988100Y-39967795D01*
X102025186Y-39945473D01*
X102064854Y-39921715D01*
X102067144Y-39920347D01*
X102111206Y-39893868D01*
X102152057Y-39869004D01*
X102188930Y-39846240D01*
X102221055Y-39826063D01*
X102247666Y-39808957D01*
X102267994Y-39795407D01*
X102281272Y-39785900D01*
X102285671Y-39782205D01*
X102309097Y-39752461D01*
X102324192Y-39717993D01*
X102328854Y-39697275D01*
X102329536Y-39687959D01*
X102329425Y-39673101D01*
X102328479Y-39652128D01*
X102326656Y-39624468D01*
X102323915Y-39589546D01*
X102320213Y-39546792D01*
X102315510Y-39495631D01*
X102309839Y-39436268D01*
X102305395Y-39389593D01*
X102301379Y-39345825D01*
X102297866Y-39305893D01*
X102294931Y-39270727D01*
X102292647Y-39241255D01*
X102291091Y-39218407D01*
X102290335Y-39203113D01*
X102290456Y-39196302D01*
X102290559Y-39196064D01*
X102296048Y-39195833D01*
X102299036Y-39198466D01*
G37*
G36*
X97632244Y-44918950D02*
G01*
X97707842Y-44932068D01*
X97766161Y-44947993D01*
X97837063Y-44975203D01*
X97902061Y-45009672D01*
X97960818Y-45051112D01*
X98012994Y-45099239D01*
X98058252Y-45153768D01*
X98096255Y-45214414D01*
X98107275Y-45235987D01*
X98113471Y-45249063D01*
X98119357Y-45262202D01*
X98125134Y-45276077D01*
X98131005Y-45291359D01*
X98137171Y-45308721D01*
X98143836Y-45328834D01*
X98151201Y-45352371D01*
X98159469Y-45380003D01*
X98168841Y-45412403D01*
X98179520Y-45450243D01*
X98191709Y-45494194D01*
X98205608Y-45544929D01*
X98221421Y-45603119D01*
X98239349Y-45669438D01*
X98253733Y-45722790D01*
X98266707Y-45769596D01*
X98280141Y-45815591D01*
X98293664Y-45859675D01*
X98306904Y-45900749D01*
X98319492Y-45937714D01*
X98331054Y-45969472D01*
X98341220Y-45994922D01*
X98349619Y-46012966D01*
X98354382Y-46020778D01*
X98374266Y-46041332D01*
X98396335Y-46053033D01*
X98420853Y-46056603D01*
X98447394Y-46053063D01*
X98468849Y-46041872D01*
X98483880Y-46026323D01*
X98492147Y-46013116D01*
X98501379Y-45993753D01*
X98511703Y-45967837D01*
X98523245Y-45934968D01*
X98536133Y-45894749D01*
X98550493Y-45846783D01*
X98566452Y-45790671D01*
X98584136Y-45726015D01*
X98603674Y-45652418D01*
X98606628Y-45641133D01*
X98625898Y-45568098D01*
X98643335Y-45503659D01*
X98659220Y-45447043D01*
X98673835Y-45397475D01*
X98687461Y-45354183D01*
X98700380Y-45316391D01*
X98712874Y-45283326D01*
X98725224Y-45254213D01*
X98737713Y-45228279D01*
X98750621Y-45204749D01*
X98764230Y-45182850D01*
X98778822Y-45161807D01*
X98783196Y-45155864D01*
X98809646Y-45123542D01*
X98840652Y-45090814D01*
X98873424Y-45060394D01*
X98905174Y-45034996D01*
X98913095Y-45029430D01*
X98975595Y-44992519D01*
X99042543Y-44963162D01*
X99112927Y-44941310D01*
X99185734Y-44926917D01*
X99259952Y-44919933D01*
X99334569Y-44920312D01*
X99408572Y-44928005D01*
X99480950Y-44942965D01*
X99550689Y-44965143D01*
X99616778Y-44994493D01*
X99678204Y-45030965D01*
X99726372Y-45067857D01*
X99767544Y-45109139D01*
X99803983Y-45157483D01*
X99834492Y-45211016D01*
X99857871Y-45267868D01*
X99861283Y-45278482D01*
X99872360Y-45314507D01*
X99873675Y-46243358D01*
X99873827Y-46362166D01*
X99873935Y-46471639D01*
X99873997Y-46572050D01*
X99874011Y-46663672D01*
X99873976Y-46746777D01*
X99873892Y-46821637D01*
X99873757Y-46888526D01*
X99873569Y-46947714D01*
X99873328Y-46999475D01*
X99873032Y-47044082D01*
X99872680Y-47081805D01*
X99872272Y-47112919D01*
X99871804Y-47137695D01*
X99871278Y-47156405D01*
X99870690Y-47169323D01*
X99870041Y-47176720D01*
X99869514Y-47178807D01*
X99863556Y-47180340D01*
X99849138Y-47181694D01*
X99827402Y-47182869D01*
X99799492Y-47183861D01*
X99766553Y-47184669D01*
X99729728Y-47185290D01*
X99690161Y-47185723D01*
X99648996Y-47185966D01*
X99607377Y-47186017D01*
X99566448Y-47185873D01*
X99527352Y-47185533D01*
X99491234Y-47184994D01*
X99459236Y-47184255D01*
X99432504Y-47183314D01*
X99412181Y-47182168D01*
X99399410Y-47180816D01*
X99395450Y-47179639D01*
X99394699Y-47176787D01*
X99394010Y-47169579D01*
X99393381Y-47157687D01*
X99392811Y-47140782D01*
X99392296Y-47118537D01*
X99391835Y-47090624D01*
X99391426Y-47056715D01*
X99391066Y-47016481D01*
X99390753Y-46969595D01*
X99390485Y-46915729D01*
X99390260Y-46854554D01*
X99390076Y-46785743D01*
X99389930Y-46708967D01*
X99389820Y-46623899D01*
X99389744Y-46530210D01*
X99389700Y-46427573D01*
X99389686Y-46315659D01*
X99389686Y-46314933D01*
X99389686Y-45455991D01*
X99370074Y-45434714D01*
X99342425Y-45410811D01*
X99311793Y-45395451D01*
X99279181Y-45389107D01*
X99273309Y-45388959D01*
X99241068Y-45392667D01*
X99213249Y-45404141D01*
X99189029Y-45423906D01*
X99167585Y-45452486D01*
X99163916Y-45458677D01*
X99156417Y-45474205D01*
X99146805Y-45498049D01*
X99135414Y-45529235D01*
X99122579Y-45566787D01*
X99108632Y-45609733D01*
X99093909Y-45657097D01*
X99080026Y-45703523D01*
X99072015Y-45730786D01*
X99062095Y-45764513D01*
X99051076Y-45801955D01*
X99039766Y-45840364D01*
X99028975Y-45876988D01*
X99027479Y-45882062D01*
X99001604Y-45966163D01*
X98976039Y-46041494D01*
X98950380Y-46108863D01*
X98924223Y-46169079D01*
X98897164Y-46222954D01*
X98868799Y-46271295D01*
X98838725Y-46314912D01*
X98806538Y-46354615D01*
X98775045Y-46388051D01*
X98729816Y-46428926D01*
X98684392Y-46461434D01*
X98636729Y-46486632D01*
X98584780Y-46505580D01*
X98526500Y-46519335D01*
X98518605Y-46520753D01*
X98482532Y-46525119D01*
X98441108Y-46527005D01*
X98397237Y-46526523D01*
X98353820Y-46523787D01*
X98313761Y-46518911D01*
X98279961Y-46512009D01*
X98277393Y-46511311D01*
X98215218Y-46489806D01*
X98157915Y-46461102D01*
X98105028Y-46424813D01*
X98056098Y-46380555D01*
X98010670Y-46327942D01*
X97968284Y-46266587D01*
X97949128Y-46234344D01*
X97932006Y-46202969D01*
X97915661Y-46170362D01*
X97899766Y-46135633D01*
X97883994Y-46097889D01*
X97868018Y-46056241D01*
X97851511Y-46009799D01*
X97834146Y-45957670D01*
X97815595Y-45898964D01*
X97795532Y-45832791D01*
X97773630Y-45758260D01*
X97771006Y-45749208D01*
X97752871Y-45686971D01*
X97736922Y-45633288D01*
X97722864Y-45587433D01*
X97710402Y-45548681D01*
X97699240Y-45516305D01*
X97689084Y-45489578D01*
X97679638Y-45467776D01*
X97670606Y-45450171D01*
X97661695Y-45436037D01*
X97652608Y-45424648D01*
X97643050Y-45415279D01*
X97632726Y-45407203D01*
X97631668Y-45406458D01*
X97620964Y-45399385D01*
X97611644Y-45394954D01*
X97600966Y-45392549D01*
X97586191Y-45391556D01*
X97564578Y-45391360D01*
X97564330Y-45391360D01*
X97542568Y-45391561D01*
X97527534Y-45392592D01*
X97516351Y-45395098D01*
X97506143Y-45399725D01*
X97494033Y-45407118D01*
X97477986Y-45419170D01*
X97463437Y-45433019D01*
X97456898Y-45440999D01*
X97444338Y-45459123D01*
X97444338Y-46312972D01*
X97444313Y-46434752D01*
X97444236Y-46546996D01*
X97444107Y-46649777D01*
X97443927Y-46743165D01*
X97443694Y-46827232D01*
X97443408Y-46902050D01*
X97443069Y-46967689D01*
X97442676Y-47024222D01*
X97442229Y-47071719D01*
X97441727Y-47110252D01*
X97441171Y-47139893D01*
X97440559Y-47160712D01*
X97439891Y-47172782D01*
X97439366Y-47176113D01*
X97437933Y-47178232D01*
X97435563Y-47180002D01*
X97431445Y-47181455D01*
X97424769Y-47182621D01*
X97414725Y-47183532D01*
X97400504Y-47184219D01*
X97381295Y-47184713D01*
X97356289Y-47185047D01*
X97324675Y-47185252D01*
X97285644Y-47185358D01*
X97238386Y-47185398D01*
X97199787Y-47185403D01*
X97144743Y-47185363D01*
X97098563Y-47185227D01*
X97060509Y-47184977D01*
X97029838Y-47184591D01*
X97005811Y-47184049D01*
X96987686Y-47183330D01*
X96974722Y-47182416D01*
X96966179Y-47181284D01*
X96961316Y-47179915D01*
X96959705Y-47178804D01*
X96958999Y-47175348D01*
X96958358Y-47166574D01*
X96957780Y-47152205D01*
X96957263Y-47131967D01*
X96956808Y-47105582D01*
X96956411Y-47072775D01*
X96956073Y-47033270D01*
X96955791Y-46986789D01*
X96955565Y-46933058D01*
X96955393Y-46871800D01*
X96955274Y-46802738D01*
X96955206Y-46725597D01*
X96955189Y-46640101D01*
X96955222Y-46545973D01*
X96955302Y-46442937D01*
X96955428Y-46330718D01*
X96955514Y-46267373D01*
X96956800Y-45362540D01*
X96970194Y-45314507D01*
X96983552Y-45273969D01*
X97001016Y-45231958D01*
X97021106Y-45191567D01*
X97042340Y-45155891D01*
X97054133Y-45139186D01*
X97099592Y-45087244D01*
X97151629Y-45041665D01*
X97209435Y-45002665D01*
X97272204Y-44970459D01*
X97339129Y-44945266D01*
X97409403Y-44927302D01*
X97482218Y-44916784D01*
X97556767Y-44913927D01*
X97632244Y-44918950D01*
G37*
G36*
X105997103Y-44956525D02*
G01*
X106065323Y-44956611D01*
X106131958Y-44956750D01*
X106196328Y-44956942D01*
X106257756Y-44957187D01*
X106315564Y-44957485D01*
X106369072Y-44957835D01*
X106417602Y-44958238D01*
X106460477Y-44958694D01*
X106497017Y-44959202D01*
X106526544Y-44959763D01*
X106548381Y-44960377D01*
X106561848Y-44961043D01*
X106566174Y-44961631D01*
X106568368Y-44963118D01*
X106570187Y-44965576D01*
X106571665Y-44969849D01*
X106572838Y-44976780D01*
X106573742Y-44987209D01*
X106574411Y-45001979D01*
X106574880Y-45021933D01*
X106575185Y-45047912D01*
X106575360Y-45080760D01*
X106575442Y-45121317D01*
X106575465Y-45170427D01*
X106575465Y-45184242D01*
X106575456Y-45235601D01*
X106575404Y-45278212D01*
X106575269Y-45312935D01*
X106575015Y-45340628D01*
X106574602Y-45362151D01*
X106573992Y-45378363D01*
X106573148Y-45390122D01*
X106572030Y-45398289D01*
X106570600Y-45403721D01*
X106568821Y-45407279D01*
X106566653Y-45409821D01*
X106565356Y-45411030D01*
X106563663Y-45412350D01*
X106561322Y-45413539D01*
X106557841Y-45414608D01*
X106552727Y-45415565D01*
X106545486Y-45416418D01*
X106535627Y-45417177D01*
X106522657Y-45417852D01*
X106506082Y-45418450D01*
X106485411Y-45418981D01*
X106460151Y-45419453D01*
X106429808Y-45419876D01*
X106393891Y-45420259D01*
X106351906Y-45420611D01*
X106303361Y-45420940D01*
X106247763Y-45421255D01*
X106184619Y-45421567D01*
X106113437Y-45421882D01*
X106033724Y-45422211D01*
X105944988Y-45422563D01*
X105927714Y-45422630D01*
X105837075Y-45422989D01*
X105755537Y-45423327D01*
X105682596Y-45423653D01*
X105617747Y-45423976D01*
X105560484Y-45424305D01*
X105510303Y-45424647D01*
X105466698Y-45425013D01*
X105429165Y-45425410D01*
X105397198Y-45425848D01*
X105370292Y-45426335D01*
X105347943Y-45426881D01*
X105329645Y-45427493D01*
X105314894Y-45428181D01*
X105303184Y-45428953D01*
X105294010Y-45429818D01*
X105286867Y-45430785D01*
X105281251Y-45431863D01*
X105276656Y-45433061D01*
X105273763Y-45433979D01*
X105233664Y-45452162D01*
X105199812Y-45477625D01*
X105172119Y-45510446D01*
X105154563Y-45541578D01*
X105148864Y-45554633D01*
X105145139Y-45566437D01*
X105142982Y-45579619D01*
X105141985Y-45596806D01*
X105141741Y-45620629D01*
X105141744Y-45624322D01*
X105142050Y-45649936D01*
X105143126Y-45668498D01*
X105145326Y-45682551D01*
X105149005Y-45694642D01*
X105152776Y-45703577D01*
X105172414Y-45738885D01*
X105196327Y-45766804D01*
X105226014Y-45788662D01*
X105262975Y-45805787D01*
X105271645Y-45808854D01*
X105286317Y-45813568D01*
X105300907Y-45817596D01*
X105316242Y-45820980D01*
X105333149Y-45823760D01*
X105352454Y-45825976D01*
X105374982Y-45827669D01*
X105401561Y-45828879D01*
X105433017Y-45829648D01*
X105470175Y-45830015D01*
X105513862Y-45830022D01*
X105564905Y-45829709D01*
X105624129Y-45829116D01*
X105672439Y-45828537D01*
X105742304Y-45827741D01*
X105803480Y-45827249D01*
X105856880Y-45827097D01*
X105903419Y-45827323D01*
X105944011Y-45827964D01*
X105979569Y-45829059D01*
X106011007Y-45830646D01*
X106039239Y-45832761D01*
X106065178Y-45835442D01*
X106089740Y-45838728D01*
X106113837Y-45842655D01*
X106138384Y-45847262D01*
X106141484Y-45847879D01*
X106220883Y-45867352D01*
X106293226Y-45892768D01*
X106359292Y-45924515D01*
X106419862Y-45962978D01*
X106475715Y-46008543D01*
X106486931Y-46019063D01*
X106539212Y-46075403D01*
X106583283Y-46136299D01*
X106619393Y-46202202D01*
X106647793Y-46273562D01*
X106667429Y-46344884D01*
X106671581Y-46364773D01*
X106674577Y-46383022D01*
X106676593Y-46401848D01*
X106677802Y-46423473D01*
X106678375Y-46450116D01*
X106678488Y-46483996D01*
X106678483Y-46486519D01*
X106678217Y-46522003D01*
X106677467Y-46550116D01*
X106676060Y-46573090D01*
X106673825Y-46593157D01*
X106670589Y-46612546D01*
X106667679Y-46626721D01*
X106648103Y-46698888D01*
X106621292Y-46769993D01*
X106588378Y-46837370D01*
X106555193Y-46891566D01*
X106534534Y-46918869D01*
X106508269Y-46949096D01*
X106478486Y-46980185D01*
X106447271Y-47010072D01*
X106416713Y-47036695D01*
X106388900Y-47057992D01*
X106382120Y-47062569D01*
X106312361Y-47102681D01*
X106240305Y-47133543D01*
X106165492Y-47155332D01*
X106121608Y-47163735D01*
X106113574Y-47164754D01*
X106102710Y-47165688D01*
X106088549Y-47166543D01*
X106070624Y-47167326D01*
X106048467Y-47168043D01*
X106021612Y-47168701D01*
X105989592Y-47169307D01*
X105951939Y-47169866D01*
X105908187Y-47170385D01*
X105857869Y-47170872D01*
X105800517Y-47171332D01*
X105735665Y-47171772D01*
X105662845Y-47172199D01*
X105581591Y-47172619D01*
X105491436Y-47173038D01*
X105441880Y-47173254D01*
X105363719Y-47173604D01*
X105287739Y-47173973D01*
X105214543Y-47174358D01*
X105144737Y-47174754D01*
X105078925Y-47175158D01*
X105017712Y-47175563D01*
X104961702Y-47175967D01*
X104911499Y-47176364D01*
X104867708Y-47176751D01*
X104830934Y-47177122D01*
X104801781Y-47177474D01*
X104780853Y-47177802D01*
X104768756Y-47178101D01*
X104767012Y-47178181D01*
X104740924Y-47178661D01*
X104722236Y-47176502D01*
X104712975Y-47173521D01*
X104697364Y-47166654D01*
X104697364Y-46950102D01*
X104697364Y-46733549D01*
X104720180Y-46722912D01*
X104742995Y-46712276D01*
X105372231Y-46709729D01*
X105463579Y-46709351D01*
X105545814Y-46708988D01*
X105619429Y-46708633D01*
X105684917Y-46708279D01*
X105742772Y-46707916D01*
X105793487Y-46707538D01*
X105837556Y-46707136D01*
X105875472Y-46706703D01*
X105907727Y-46706231D01*
X105934817Y-46705712D01*
X105957233Y-46705138D01*
X105975469Y-46704501D01*
X105990019Y-46703794D01*
X106001376Y-46703008D01*
X106010034Y-46702136D01*
X106016485Y-46701169D01*
X106021223Y-46700101D01*
X106023560Y-46699369D01*
X106070165Y-46678773D01*
X106109550Y-46652656D01*
X106141339Y-46621379D01*
X106165157Y-46585304D01*
X106179362Y-46549401D01*
X106184854Y-46517948D01*
X106185321Y-46482406D01*
X106180974Y-46446741D01*
X106172317Y-46415686D01*
X106155973Y-46384689D01*
X106132812Y-46356658D01*
X106104727Y-46333070D01*
X106073615Y-46315400D01*
X106041369Y-46305125D01*
X106028154Y-46303385D01*
X106019032Y-46302972D01*
X106001132Y-46302390D01*
X105975282Y-46301658D01*
X105942310Y-46300798D01*
X105903042Y-46299829D01*
X105858305Y-46298771D01*
X105808928Y-46297645D01*
X105755738Y-46296469D01*
X105699561Y-46295265D01*
X105648423Y-46294199D01*
X105589852Y-46292940D01*
X105533202Y-46291615D01*
X105479343Y-46290251D01*
X105429144Y-46288875D01*
X105383476Y-46287515D01*
X105343208Y-46286196D01*
X105309211Y-46284947D01*
X105282354Y-46283793D01*
X105263507Y-46282763D01*
X105254550Y-46282017D01*
X105169205Y-46267716D01*
X105089581Y-46246192D01*
X105015908Y-46217615D01*
X104948416Y-46182158D01*
X104887334Y-46139993D01*
X104832893Y-46091292D01*
X104785322Y-46036227D01*
X104744852Y-45974970D01*
X104711712Y-45907693D01*
X104695040Y-45863310D01*
X104680974Y-45816788D01*
X104670543Y-45771224D01*
X104663385Y-45724140D01*
X104659140Y-45673059D01*
X104657446Y-45615501D01*
X104657386Y-45605108D01*
X104658129Y-45546055D01*
X104660917Y-45494831D01*
X104666045Y-45449819D01*
X104673811Y-45409400D01*
X104684509Y-45371959D01*
X104698437Y-45335878D01*
X104711902Y-45307302D01*
X104747097Y-45248041D01*
X104790449Y-45192703D01*
X104841121Y-45141830D01*
X104898275Y-45095965D01*
X104961077Y-45055650D01*
X105028690Y-45021429D01*
X105100276Y-44993843D01*
X105175001Y-44973435D01*
X105244817Y-44961584D01*
X105255417Y-44960875D01*
X105274607Y-44960220D01*
X105301708Y-44959617D01*
X105336043Y-44959068D01*
X105376932Y-44958571D01*
X105423698Y-44958128D01*
X105475663Y-44957738D01*
X105532147Y-44957401D01*
X105592472Y-44957117D01*
X105655960Y-44956886D01*
X105721933Y-44956708D01*
X105789712Y-44956583D01*
X105858619Y-44956510D01*
X105927976Y-44956491D01*
X105997103Y-44956525D01*
G37*
G36*
X104516141Y-43429904D02*
G01*
X104530598Y-43468834D01*
X104543491Y-43508684D01*
X104553981Y-43546589D01*
X104561225Y-43579681D01*
X104562680Y-43588510D01*
X104566361Y-43620729D01*
X104569044Y-43659415D01*
X104570698Y-43701975D01*
X104571295Y-43745819D01*
X104570804Y-43788356D01*
X104569195Y-43826994D01*
X104566440Y-43859142D01*
X104565839Y-43863902D01*
X104548467Y-43957933D01*
X104522055Y-44048761D01*
X104486681Y-44136178D01*
X104442424Y-44219976D01*
X104413652Y-44265449D01*
X104367640Y-44328290D01*
X104312711Y-44393363D01*
X104249214Y-44460364D01*
X104177497Y-44528991D01*
X104097909Y-44598940D01*
X104010799Y-44669909D01*
X103916516Y-44741596D01*
X103815408Y-44813696D01*
X103707826Y-44885908D01*
X103672658Y-44908626D01*
X103645726Y-44925961D01*
X103626135Y-44938878D01*
X103613070Y-44948035D01*
X103605717Y-44954089D01*
X103603260Y-44957697D01*
X103604885Y-44959520D01*
X103608846Y-44960153D01*
X103617414Y-44960602D01*
X103634212Y-44961331D01*
X103657871Y-44962284D01*
X103687020Y-44963409D01*
X103720290Y-44964652D01*
X103756310Y-44965959D01*
X103763116Y-44966202D01*
X103801017Y-44967678D01*
X103837793Y-44969347D01*
X103871768Y-44971113D01*
X103901270Y-44972885D01*
X103924624Y-44974568D01*
X103940156Y-44976068D01*
X103940840Y-44976155D01*
X104022174Y-44989856D01*
X104096947Y-45008858D01*
X104164879Y-45032989D01*
X104225689Y-45062073D01*
X104279099Y-45095936D01*
X104324827Y-45134402D01*
X104362594Y-45177299D01*
X104392120Y-45224451D01*
X104411062Y-45269323D01*
X104420779Y-45302458D01*
X104428409Y-45338387D01*
X104434167Y-45378700D01*
X104438269Y-45424986D01*
X104440930Y-45478835D01*
X104441379Y-45493081D01*
X104442102Y-45559526D01*
X104440536Y-45624155D01*
X104436808Y-45685570D01*
X104431043Y-45742376D01*
X104423368Y-45793176D01*
X104413909Y-45836573D01*
X104408739Y-45854467D01*
X104388545Y-45904937D01*
X104361693Y-45949706D01*
X104327589Y-45989436D01*
X104285642Y-46024793D01*
X104235260Y-46056441D01*
X104222793Y-46063071D01*
X104197319Y-46077233D01*
X104180342Y-46089152D01*
X104171174Y-46099389D01*
X104168998Y-46106772D01*
X104172747Y-46110469D01*
X104182708Y-46117854D01*
X104196948Y-46127518D01*
X104201420Y-46130427D01*
X104242964Y-46162607D01*
X104281399Y-46203295D01*
X104316195Y-46251747D01*
X104346823Y-46307218D01*
X104372754Y-46368963D01*
X104374705Y-46374420D01*
X104380347Y-46391036D01*
X104385914Y-46408859D01*
X104391579Y-46428659D01*
X104397518Y-46451209D01*
X104403905Y-46477278D01*
X104410917Y-46507638D01*
X104418726Y-46543059D01*
X104427510Y-46584313D01*
X104437442Y-46632169D01*
X104448698Y-46687400D01*
X104461452Y-46750775D01*
X104471035Y-46798735D01*
X104485022Y-46869187D01*
X104497119Y-46930767D01*
X104507416Y-46984002D01*
X104516006Y-47029421D01*
X104522979Y-47067551D01*
X104528427Y-47098921D01*
X104532442Y-47124058D01*
X104535115Y-47143490D01*
X104536539Y-47157745D01*
X104536804Y-47167350D01*
X104536002Y-47172834D01*
X104535959Y-47172949D01*
X104534532Y-47174692D01*
X104531184Y-47176153D01*
X104525137Y-47177354D01*
X104515610Y-47178320D01*
X104501826Y-47179078D01*
X104483004Y-47179650D01*
X104458366Y-47180062D01*
X104427131Y-47180338D01*
X104388522Y-47180503D01*
X104341758Y-47180582D01*
X104294208Y-47180600D01*
X104055392Y-47180600D01*
X104045379Y-47169793D01*
X104042452Y-47165384D01*
X104039332Y-47157839D01*
X104035826Y-47146308D01*
X104031740Y-47129941D01*
X104026883Y-47107886D01*
X104021062Y-47079295D01*
X104014083Y-47043317D01*
X104005755Y-46999101D01*
X104001546Y-46976459D01*
X103993303Y-46931505D01*
X103985077Y-46885791D01*
X103977171Y-46841061D01*
X103969888Y-46799059D01*
X103963531Y-46761530D01*
X103958403Y-46730218D01*
X103955249Y-46709874D01*
X103943029Y-46637426D01*
X103929050Y-46573829D01*
X103913013Y-46518441D01*
X103894617Y-46470618D01*
X103873560Y-46429716D01*
X103849541Y-46395091D01*
X103822260Y-46366100D01*
X103791415Y-46342099D01*
X103779822Y-46334818D01*
X103748148Y-46316001D01*
X103483788Y-46316001D01*
X103426584Y-46315987D01*
X103378219Y-46315929D01*
X103337924Y-46315802D01*
X103304931Y-46315581D01*
X103278473Y-46315241D01*
X103257781Y-46314758D01*
X103242087Y-46314107D01*
X103230623Y-46313263D01*
X103222621Y-46312202D01*
X103217313Y-46310898D01*
X103213930Y-46309326D01*
X103211705Y-46307463D01*
X103211478Y-46307217D01*
X103209559Y-46304345D01*
X103207973Y-46299788D01*
X103206688Y-46292688D01*
X103205674Y-46282185D01*
X103204899Y-46267422D01*
X103204333Y-46247539D01*
X103203943Y-46221680D01*
X103203701Y-46188984D01*
X103203573Y-46148595D01*
X103203530Y-46099652D01*
X103203529Y-46087225D01*
X103203599Y-46032901D01*
X103203822Y-45987572D01*
X103204212Y-45950628D01*
X103204787Y-45921457D01*
X103205562Y-45899449D01*
X103206555Y-45883992D01*
X103207780Y-45874477D01*
X103209254Y-45870292D01*
X103209293Y-45870252D01*
X103212936Y-45869000D01*
X103221532Y-45867926D01*
X103235615Y-45867018D01*
X103255717Y-45866267D01*
X103282371Y-45865663D01*
X103316110Y-45865196D01*
X103357465Y-45864855D01*
X103406971Y-45864631D01*
X103465159Y-45864513D01*
X103513687Y-45864488D01*
X103812317Y-45864488D01*
X103862114Y-45842873D01*
X103881976Y-45834282D01*
X103898232Y-45827309D01*
X103909086Y-45822719D01*
X103912756Y-45821258D01*
X103915796Y-45817725D01*
X103922845Y-45808541D01*
X103930744Y-45797907D01*
X103938263Y-45787148D01*
X103943433Y-45777562D01*
X103946934Y-45766729D01*
X103949450Y-45752233D01*
X103951659Y-45731653D01*
X103952727Y-45719853D01*
X103956231Y-45668977D01*
X103957370Y-45623200D01*
X103956140Y-45583974D01*
X103953027Y-45555599D01*
X103943349Y-45525210D01*
X103924719Y-45495560D01*
X103897788Y-45467617D01*
X103889194Y-45460504D01*
X103865525Y-45441795D01*
X103427413Y-45441795D01*
X103348311Y-45441825D01*
X103278365Y-45441917D01*
X103217126Y-45442079D01*
X103164143Y-45442315D01*
X103118966Y-45442632D01*
X103081146Y-45443035D01*
X103050232Y-45443531D01*
X103025773Y-45444125D01*
X103007321Y-45444822D01*
X102994425Y-45445630D01*
X102986635Y-45446553D01*
X102983536Y-45447559D01*
X102982786Y-45450410D01*
X102982097Y-45457617D01*
X102981469Y-45469508D01*
X102980899Y-45486409D01*
X102980384Y-45508649D01*
X102979924Y-45536556D01*
X102979514Y-45570458D01*
X102979154Y-45610682D01*
X102978842Y-45657556D01*
X102978574Y-45711408D01*
X102978348Y-45772566D01*
X102978164Y-45841357D01*
X102978017Y-45918109D01*
X102977907Y-46003150D01*
X102977831Y-46096808D01*
X102977787Y-46199411D01*
X102977772Y-46311286D01*
X102977772Y-46313599D01*
X102977758Y-46425661D01*
X102977714Y-46528445D01*
X102977639Y-46622277D01*
X102977530Y-46707486D01*
X102977384Y-46784399D01*
X102977200Y-46853345D01*
X102976976Y-46914650D01*
X102976709Y-46968644D01*
X102976397Y-47015653D01*
X102976038Y-47056006D01*
X102975629Y-47090030D01*
X102975170Y-47118052D01*
X102974656Y-47140402D01*
X102974087Y-47157406D01*
X102973460Y-47169392D01*
X102972773Y-47176689D01*
X102972024Y-47179623D01*
X102972008Y-47179639D01*
X102965909Y-47181038D01*
X102951352Y-47182260D01*
X102929485Y-47183303D01*
X102901456Y-47184169D01*
X102868411Y-47184857D01*
X102831498Y-47185367D01*
X102791865Y-47185700D01*
X102750658Y-47185855D01*
X102709026Y-47185832D01*
X102668116Y-47185631D01*
X102629075Y-47185253D01*
X102593051Y-47184696D01*
X102561191Y-47183963D01*
X102534642Y-47183051D01*
X102514552Y-47181961D01*
X102502069Y-47180694D01*
X102498400Y-47179639D01*
X102497624Y-47176752D01*
X102496915Y-47169485D01*
X102496270Y-47157500D01*
X102495687Y-47140457D01*
X102495164Y-47118018D01*
X102494697Y-47089845D01*
X102494286Y-47055600D01*
X102493926Y-47014942D01*
X102493616Y-46967534D01*
X102493354Y-46913038D01*
X102493136Y-46851114D01*
X102492961Y-46781424D01*
X102492826Y-46703630D01*
X102492729Y-46617393D01*
X102492668Y-46522373D01*
X102492639Y-46418234D01*
X102492636Y-46369878D01*
X102492612Y-46280631D01*
X102492540Y-46194451D01*
X102492424Y-46111810D01*
X102492266Y-46033178D01*
X102492067Y-45959026D01*
X102491832Y-45889826D01*
X102491561Y-45826049D01*
X102491258Y-45768165D01*
X102490925Y-45716646D01*
X102490564Y-45671963D01*
X102490178Y-45634587D01*
X102489770Y-45604988D01*
X102489341Y-45583639D01*
X102488894Y-45571009D01*
X102488487Y-45567482D01*
X102479842Y-45571325D01*
X102463926Y-45578918D01*
X102441585Y-45589832D01*
X102413664Y-45603638D01*
X102381008Y-45619907D01*
X102344462Y-45638209D01*
X102304872Y-45658116D01*
X102263083Y-45679198D01*
X102219939Y-45701025D01*
X102176287Y-45723170D01*
X102132971Y-45745201D01*
X102090837Y-45766692D01*
X102050730Y-45787211D01*
X102013495Y-45806330D01*
X101979977Y-45823619D01*
X101951022Y-45838650D01*
X101927475Y-45850994D01*
X101910182Y-45860220D01*
X101899986Y-45865900D01*
X101897505Y-45867583D01*
X101898967Y-45872724D01*
X101903352Y-45886416D01*
X101910478Y-45908117D01*
X101920163Y-45937288D01*
X101932225Y-45973388D01*
X101946482Y-46015877D01*
X101962752Y-46064214D01*
X101980852Y-46117858D01*
X102000602Y-46176270D01*
X102021819Y-46238908D01*
X102044322Y-46305232D01*
X102067927Y-46374702D01*
X102092453Y-46446777D01*
X102098235Y-46463754D01*
X102132064Y-46563145D01*
X102162852Y-46653778D01*
X102190703Y-46735974D01*
X102215723Y-46810050D01*
X102238017Y-46876327D01*
X102257689Y-46935124D01*
X102274845Y-46986759D01*
X102289590Y-47031553D01*
X102302029Y-47069825D01*
X102312268Y-47101893D01*
X102320411Y-47128078D01*
X102326563Y-47148697D01*
X102330829Y-47164072D01*
X102333315Y-47174521D01*
X102334126Y-47180362D01*
X102334126Y-47180381D01*
X102329929Y-47181654D01*
X102317226Y-47182736D01*
X102295846Y-47183628D01*
X102265623Y-47184336D01*
X102226386Y-47184861D01*
X102177968Y-47185209D01*
X102120198Y-47185382D01*
X102087307Y-47185403D01*
X101840488Y-47185403D01*
X101832002Y-47172451D01*
X101828556Y-47164881D01*
X101822653Y-47149311D01*
X101814695Y-47126911D01*
X101805085Y-47098851D01*
X101794226Y-47066303D01*
X101782520Y-47030436D01*
X101773768Y-47003134D01*
X101764793Y-46975181D01*
X101753679Y-46940991D01*
X101740671Y-46901293D01*
X101726014Y-46856815D01*
X101709954Y-46808286D01*
X101692734Y-46756434D01*
X101674602Y-46701989D01*
X101655800Y-46645677D01*
X101636576Y-46588229D01*
X101617173Y-46530371D01*
X101597837Y-46472834D01*
X101578813Y-46416345D01*
X101560346Y-46361633D01*
X101542681Y-46309426D01*
X101526063Y-46260453D01*
X101510738Y-46215442D01*
X101496950Y-46175122D01*
X101484945Y-46140222D01*
X101474967Y-46111469D01*
X101467262Y-46089593D01*
X101462075Y-46075321D01*
X101459651Y-46069383D01*
X101459586Y-46069293D01*
X101454332Y-46069917D01*
X101441530Y-46073895D01*
X101422445Y-46080761D01*
X101398344Y-46090046D01*
X101370491Y-46101284D01*
X101351068Y-46109375D01*
X101301636Y-46129992D01*
X101246177Y-46152739D01*
X101186719Y-46176809D01*
X101125288Y-46201397D01*
X101063911Y-46225699D01*
X101004614Y-46248908D01*
X100949423Y-46270220D01*
X100900366Y-46288829D01*
X100885763Y-46294278D01*
X100799144Y-46326443D01*
X100656014Y-46755923D01*
X100512884Y-47185403D01*
X100265784Y-47185403D01*
X100018684Y-47185403D01*
X100013852Y-47172692D01*
X100011986Y-47163568D01*
X100012938Y-47151362D01*
X100017010Y-47133787D01*
X100020673Y-47121057D01*
X100023635Y-47111856D01*
X100029546Y-47094140D01*
X100038212Y-47068473D01*
X100049441Y-47035417D01*
X100063038Y-46995536D01*
X100078812Y-46949393D01*
X100096570Y-46897551D01*
X100116117Y-46840575D01*
X100137261Y-46779027D01*
X100159810Y-46713470D01*
X100183569Y-46644468D01*
X100208347Y-46572585D01*
X100233949Y-46498383D01*
X100247168Y-46460101D01*
X100283120Y-46355992D01*
X100316091Y-46260482D01*
X100329544Y-46221492D01*
X100835488Y-46221492D01*
X100839368Y-46221121D01*
X100849794Y-46216829D01*
X100864947Y-46209418D01*
X100875115Y-46204043D01*
X100886925Y-46197822D01*
X100906382Y-46187792D01*
X100932537Y-46174431D01*
X100964443Y-46158222D01*
X101001150Y-46139644D01*
X101041712Y-46119178D01*
X101085178Y-46097304D01*
X101130601Y-46074503D01*
X101154909Y-46062324D01*
X101199796Y-46039811D01*
X101242275Y-46018429D01*
X101281535Y-45998592D01*
X101316769Y-45980712D01*
X101347167Y-45965201D01*
X101371919Y-45952471D01*
X101390217Y-45942936D01*
X101401251Y-45937008D01*
X101404142Y-45935286D01*
X101406026Y-45933473D01*
X101407221Y-45930768D01*
X101407514Y-45926433D01*
X101406693Y-45919726D01*
X101404546Y-45909906D01*
X101400859Y-45896231D01*
X101395421Y-45877962D01*
X101388018Y-45854358D01*
X101378438Y-45824676D01*
X101366469Y-45788178D01*
X101351897Y-45744120D01*
X101334510Y-45691764D01*
X101332710Y-45686346D01*
X101317161Y-45639688D01*
X101302330Y-45595395D01*
X101288527Y-45554381D01*
X101276061Y-45517557D01*
X101265244Y-45485837D01*
X101256385Y-45460131D01*
X101249794Y-45441352D01*
X101245783Y-45430414D01*
X101244964Y-45428422D01*
X101231802Y-45410276D01*
X101212798Y-45397381D01*
X101190121Y-45389887D01*
X101165937Y-45387945D01*
X101142414Y-45391705D01*
X101121719Y-45401318D01*
X101106020Y-45416933D01*
X101104886Y-45418704D01*
X101102577Y-45424491D01*
X101097526Y-45438551D01*
X101090002Y-45460080D01*
X101080276Y-45488273D01*
X101068617Y-45522327D01*
X101055294Y-45561439D01*
X101040579Y-45604804D01*
X101024739Y-45651618D01*
X101008046Y-45701079D01*
X100990769Y-45752382D01*
X100973177Y-45804723D01*
X100955540Y-45857298D01*
X100938128Y-45909305D01*
X100921211Y-45959939D01*
X100905059Y-46008396D01*
X100889940Y-46053872D01*
X100876126Y-46095565D01*
X100863885Y-46132669D01*
X100853487Y-46164381D01*
X100845203Y-46189898D01*
X100839301Y-46208416D01*
X100836052Y-46219131D01*
X100835488Y-46221492D01*
X100329544Y-46221492D01*
X100346244Y-46173093D01*
X100373742Y-46093346D01*
X100398749Y-46020763D01*
X100421428Y-45954865D01*
X100441943Y-45895175D01*
X100460456Y-45841213D01*
X100477132Y-45792502D01*
X100492134Y-45748563D01*
X100505625Y-45708917D01*
X100517768Y-45673087D01*
X100528728Y-45640594D01*
X100538667Y-45610960D01*
X100547748Y-45583706D01*
X100556136Y-45558354D01*
X100563994Y-45534425D01*
X100571484Y-45511442D01*
X100576153Y-45497034D01*
X100602446Y-45418969D01*
X100628137Y-45349605D01*
X100653656Y-45288091D01*
X100679433Y-45233575D01*
X100705899Y-45185208D01*
X100733485Y-45142138D01*
X100762621Y-45103514D01*
X100792158Y-45070134D01*
X100840667Y-45025336D01*
X100893119Y-44988616D01*
X100949986Y-44959791D01*
X101011740Y-44938677D01*
X101078855Y-44925088D01*
X101151801Y-44918841D01*
X101181327Y-44918355D01*
X101257066Y-44921462D01*
X101325745Y-44930757D01*
X101387831Y-44946458D01*
X101443789Y-44968781D01*
X101494088Y-44997946D01*
X101539194Y-45034170D01*
X101579573Y-45077670D01*
X101608857Y-45117964D01*
X101623774Y-45142053D01*
X101638754Y-45169042D01*
X101654083Y-45199633D01*
X101670048Y-45234526D01*
X101686935Y-45274422D01*
X101705031Y-45320022D01*
X101724622Y-45372027D01*
X101745995Y-45431139D01*
X101769436Y-45498058D01*
X101795232Y-45573484D01*
X101796182Y-45576288D01*
X101807614Y-45609998D01*
X101818045Y-45640635D01*
X101827080Y-45667052D01*
X101834325Y-45688100D01*
X101839386Y-45702630D01*
X101841869Y-45709496D01*
X101842041Y-45709881D01*
X101847137Y-45708938D01*
X101859785Y-45703584D01*
X101879232Y-45694233D01*
X101904723Y-45681301D01*
X101935503Y-45665201D01*
X101970820Y-45646347D01*
X102009918Y-45625156D01*
X102052044Y-45602040D01*
X102096442Y-45577415D01*
X102142360Y-45551695D01*
X102189042Y-45525294D01*
X102235735Y-45498628D01*
X102281684Y-45472110D01*
X102326136Y-45446155D01*
X102368335Y-45421177D01*
X102379758Y-45414348D01*
X102490234Y-45348130D01*
X102492636Y-45158614D01*
X102495038Y-44969097D01*
X102507046Y-44965758D01*
X102513893Y-44965156D01*
X102529481Y-44964573D01*
X102552941Y-44964021D01*
X102583407Y-44963509D01*
X102620013Y-44963050D01*
X102661890Y-44962653D01*
X102708174Y-44962329D01*
X102757996Y-44962090D01*
X102810490Y-44961946D01*
X102813345Y-44961941D01*
X103107635Y-44961462D01*
X103202414Y-44898289D01*
X103307288Y-44827341D01*
X103403918Y-44759723D01*
X103492873Y-44694947D01*
X103574725Y-44632523D01*
X103650044Y-44571963D01*
X103719400Y-44512779D01*
X103783364Y-44454481D01*
X103842506Y-44396580D01*
X103897396Y-44338588D01*
X103948606Y-44280017D01*
X103996705Y-44220376D01*
X104002763Y-44212514D01*
X104047667Y-44149824D01*
X104084073Y-44089696D01*
X104112399Y-44031119D01*
X104133064Y-43973084D01*
X104146489Y-43914579D01*
X104153091Y-43854595D01*
X104153346Y-43849492D01*
X104155979Y-43791852D01*
X104223251Y-43722204D01*
X104286732Y-43654440D01*
X104350291Y-43582738D01*
X104411027Y-43510439D01*
X104454524Y-43455847D01*
X104502058Y-43394583D01*
X104516141Y-43429904D01*
G37*
%TO.C,R3*%
D13*
X75762742Y-82477500D02*
X76237258Y-82477500D01*
X75762742Y-83522500D02*
X76237258Y-83522500D01*
%TO.C,R7*%
X95477500Y-74737258D02*
X95477500Y-74262742D01*
X96522500Y-74737258D02*
X96522500Y-74262742D01*
%TO.C,R4*%
X75762742Y-83977500D02*
X76237258Y-83977500D01*
X75762742Y-85022500D02*
X76237258Y-85022500D01*
%TO.C,D3*%
X150360000Y-89000000D02*
X146350000Y-89000000D01*
X150360000Y-91000000D02*
X146350000Y-91000000D01*
X150360000Y-91000000D02*
X150360000Y-89000000D01*
%TO.C,D2*%
X116430000Y-93740000D02*
X126650000Y-93740000D01*
X116430000Y-95120000D02*
X126650000Y-95120000D01*
X116430000Y-98360000D02*
X116430000Y-93740000D01*
X119690000Y-93740000D02*
X119690000Y-95120000D01*
X123390000Y-93740000D02*
X123390000Y-95120000D01*
X126650000Y-93740000D02*
X126650000Y-98360000D01*
X126650000Y-98360000D02*
X116430000Y-98360000D01*
%TO.C,R6*%
X127477500Y-52237258D02*
X127477500Y-51762742D01*
X128522500Y-52237258D02*
X128522500Y-51762742D01*
%TO.C,C1*%
X127170000Y-57960000D02*
X139830000Y-57960000D01*
X127170000Y-58000000D02*
X139830000Y-58000000D01*
X127171000Y-57880000D02*
X139829000Y-57880000D01*
X127171000Y-57920000D02*
X139829000Y-57920000D01*
X127172000Y-57840000D02*
X139828000Y-57840000D01*
X127173000Y-57800000D02*
X139827000Y-57800000D01*
X127175000Y-57760000D02*
X139825000Y-57760000D01*
X127176000Y-57720000D02*
X139824000Y-57720000D01*
X127178000Y-57680000D02*
X139822000Y-57680000D01*
X127180000Y-57640000D02*
X139820000Y-57640000D01*
X127183000Y-57600000D02*
X139817000Y-57600000D01*
X127185000Y-57560000D02*
X139815000Y-57560000D01*
X127188000Y-57520000D02*
X139812000Y-57520000D01*
X127191000Y-57480000D02*
X139809000Y-57480000D01*
X127195000Y-57440000D02*
X139805000Y-57440000D01*
X127198000Y-57400000D02*
X139802000Y-57400000D01*
X127202000Y-57360000D02*
X139798000Y-57360000D01*
X127206000Y-57320000D02*
X139794000Y-57320000D01*
X127211000Y-57280000D02*
X139789000Y-57280000D01*
X127216000Y-57240000D02*
X139784000Y-57240000D01*
X127220000Y-57200000D02*
X139780000Y-57200000D01*
X127226000Y-57160000D02*
X139774000Y-57160000D01*
X127231000Y-57120000D02*
X139769000Y-57120000D01*
X127237000Y-57080000D02*
X139763000Y-57080000D01*
X127243000Y-57040000D02*
X139757000Y-57040000D01*
X127249000Y-57000000D02*
X139751000Y-57000000D01*
X127255000Y-56960000D02*
X139745000Y-56960000D01*
X127262000Y-56920000D02*
X132060000Y-56920000D01*
X127269000Y-56880000D02*
X132060000Y-56880000D01*
X127277000Y-56840000D02*
X132060000Y-56840000D01*
X127284000Y-56800000D02*
X132060000Y-56800000D01*
X127292000Y-56760000D02*
X132060000Y-56760000D01*
X127300000Y-56720000D02*
X132060000Y-56720000D01*
X127308000Y-56680000D02*
X132060000Y-56680000D01*
X127317000Y-56640000D02*
X132060000Y-56640000D01*
X127326000Y-56600000D02*
X132060000Y-56600000D01*
X127335000Y-56560000D02*
X132060000Y-56560000D01*
X127344000Y-56520000D02*
X132060000Y-56520000D01*
X127354000Y-56480000D02*
X132060000Y-56480000D01*
X127364000Y-56440000D02*
X132060000Y-56440000D01*
X127374000Y-56400000D02*
X132060000Y-56400000D01*
X127385000Y-56360000D02*
X132060000Y-56360000D01*
X127396000Y-56320000D02*
X132060000Y-56320000D01*
X127407000Y-56280000D02*
X132060000Y-56280000D01*
X127418000Y-56240000D02*
X132060000Y-56240000D01*
X127430000Y-56200000D02*
X132060000Y-56200000D01*
X127442000Y-56160000D02*
X132060000Y-56160000D01*
X127454000Y-56120000D02*
X132060000Y-56120000D01*
X127466000Y-56080000D02*
X132060000Y-56080000D01*
X127479000Y-56040000D02*
X132060000Y-56040000D01*
X127492000Y-56000000D02*
X132060000Y-56000000D01*
X127505000Y-55960000D02*
X132060000Y-55960000D01*
X127519000Y-55920000D02*
X132060000Y-55920000D01*
X127533000Y-55880000D02*
X132060000Y-55880000D01*
X127547000Y-55840000D02*
X132060000Y-55840000D01*
X127562000Y-55800000D02*
X132060000Y-55800000D01*
X127577000Y-55760000D02*
X132060000Y-55760000D01*
X127592000Y-55720000D02*
X132060000Y-55720000D01*
X127608000Y-55680000D02*
X132060000Y-55680000D01*
X127623000Y-55640000D02*
X132060000Y-55640000D01*
X127639000Y-55600000D02*
X132060000Y-55600000D01*
X127656000Y-55560000D02*
X132060000Y-55560000D01*
X127673000Y-55520000D02*
X132060000Y-55520000D01*
X127690000Y-55480000D02*
X132060000Y-55480000D01*
X127707000Y-55440000D02*
X132060000Y-55440000D01*
X127725000Y-55400000D02*
X132060000Y-55400000D01*
X127743000Y-55360000D02*
X132060000Y-55360000D01*
X127761000Y-55320000D02*
X132060000Y-55320000D01*
X127780000Y-55280000D02*
X132060000Y-55280000D01*
X127799000Y-55240000D02*
X132060000Y-55240000D01*
X127818000Y-55200000D02*
X132060000Y-55200000D01*
X127838000Y-55160000D02*
X132060000Y-55160000D01*
X127858000Y-55120000D02*
X132060000Y-55120000D01*
X127879000Y-55080000D02*
X132060000Y-55080000D01*
X127899000Y-55040000D02*
X132060000Y-55040000D01*
X127921000Y-55000000D02*
X132060000Y-55000000D01*
X127942000Y-54960000D02*
X132060000Y-54960000D01*
X127964000Y-54920000D02*
X132060000Y-54920000D01*
X127986000Y-54880000D02*
X132060000Y-54880000D01*
X128009000Y-54840000D02*
X132060000Y-54840000D01*
X128032000Y-54800000D02*
X132060000Y-54800000D01*
X128056000Y-54760000D02*
X132060000Y-54760000D01*
X128079000Y-54720000D02*
X132060000Y-54720000D01*
X128104000Y-54680000D02*
X132060000Y-54680000D01*
X128128000Y-54640000D02*
X132060000Y-54640000D01*
X128153000Y-54600000D02*
X132060000Y-54600000D01*
X128179000Y-54560000D02*
X132060000Y-54560000D01*
X128205000Y-54520000D02*
X132060000Y-54520000D01*
X128231000Y-54480000D02*
X132060000Y-54480000D01*
X128258000Y-54440000D02*
X132060000Y-54440000D01*
X128285000Y-54400000D02*
X132060000Y-54400000D01*
X128312000Y-54360000D02*
X132060000Y-54360000D01*
X128341000Y-54320000D02*
X132060000Y-54320000D01*
X128369000Y-54280000D02*
X132060000Y-54280000D01*
X128398000Y-54240000D02*
X132060000Y-54240000D01*
X128428000Y-54200000D02*
X132060000Y-54200000D01*
X128458000Y-54160000D02*
X132060000Y-54160000D01*
X128488000Y-54120000D02*
X132060000Y-54120000D01*
X128519000Y-54080000D02*
X132060000Y-54080000D01*
X128550000Y-54040000D02*
X138450000Y-54040000D01*
X128582000Y-54000000D02*
X138418000Y-54000000D01*
X128615000Y-53960000D02*
X138385000Y-53960000D01*
X128648000Y-53920000D02*
X138352000Y-53920000D01*
X128682000Y-53880000D02*
X138318000Y-53880000D01*
X128716000Y-53840000D02*
X138284000Y-53840000D01*
X128751000Y-53800000D02*
X138249000Y-53800000D01*
X128786000Y-53760000D02*
X138214000Y-53760000D01*
X128822000Y-53720000D02*
X138178000Y-53720000D01*
X128859000Y-53680000D02*
X138141000Y-53680000D01*
X128896000Y-53640000D02*
X138104000Y-53640000D01*
X128934000Y-53600000D02*
X138066000Y-53600000D01*
X128972000Y-53560000D02*
X138028000Y-53560000D01*
X129012000Y-53520000D02*
X137988000Y-53520000D01*
X129052000Y-53480000D02*
X137948000Y-53480000D01*
X129092000Y-53440000D02*
X137908000Y-53440000D01*
X129134000Y-53400000D02*
X137866000Y-53400000D01*
X129176000Y-53360000D02*
X137824000Y-53360000D01*
X129219000Y-53320000D02*
X137781000Y-53320000D01*
X129262000Y-53280000D02*
X137738000Y-53280000D01*
X129300000Y-64192082D02*
X130550000Y-64192082D01*
X129307000Y-53240000D02*
X137693000Y-53240000D01*
X129352000Y-53200000D02*
X137648000Y-53200000D01*
X129399000Y-53160000D02*
X137601000Y-53160000D01*
X129446000Y-53120000D02*
X137554000Y-53120000D01*
X129494000Y-53080000D02*
X137506000Y-53080000D01*
X129543000Y-53040000D02*
X137457000Y-53040000D01*
X129593000Y-53000000D02*
X137407000Y-53000000D01*
X129644000Y-52960000D02*
X137356000Y-52960000D01*
X129697000Y-52920000D02*
X137303000Y-52920000D01*
X129750000Y-52880000D02*
X137250000Y-52880000D01*
X129805000Y-52840000D02*
X137195000Y-52840000D01*
X129861000Y-52800000D02*
X137139000Y-52800000D01*
X129918000Y-52760000D02*
X137082000Y-52760000D01*
X129925000Y-64817082D02*
X129925000Y-63567082D01*
X129977000Y-52720000D02*
X137023000Y-52720000D01*
X130037000Y-52680000D02*
X136963000Y-52680000D01*
X130098000Y-52640000D02*
X136902000Y-52640000D01*
X130161000Y-52600000D02*
X136839000Y-52600000D01*
X130226000Y-52560000D02*
X136774000Y-52560000D01*
X130292000Y-52520000D02*
X136708000Y-52520000D01*
X130361000Y-52480000D02*
X136639000Y-52480000D01*
X130431000Y-52440000D02*
X136569000Y-52440000D01*
X130504000Y-52400000D02*
X136496000Y-52400000D01*
X130579000Y-52360000D02*
X136421000Y-52360000D01*
X130657000Y-52320000D02*
X136343000Y-52320000D01*
X130737000Y-52280000D02*
X136263000Y-52280000D01*
X130820000Y-52240000D02*
X136180000Y-52240000D01*
X130906000Y-52200000D02*
X136094000Y-52200000D01*
X130996000Y-52160000D02*
X136004000Y-52160000D01*
X131090000Y-52120000D02*
X135910000Y-52120000D01*
X131188000Y-52080000D02*
X135812000Y-52080000D01*
X131292000Y-52040000D02*
X135708000Y-52040000D01*
X131401000Y-52000000D02*
X135599000Y-52000000D01*
X131516000Y-51960000D02*
X135484000Y-51960000D01*
X131640000Y-51920000D02*
X135360000Y-51920000D01*
X131773000Y-51880000D02*
X135227000Y-51880000D01*
X131918000Y-51840000D02*
X135082000Y-51840000D01*
X132078000Y-51800000D02*
X134922000Y-51800000D01*
X132260000Y-51760000D02*
X134740000Y-51760000D01*
X132473000Y-51720000D02*
X134527000Y-51720000D01*
X132743000Y-51680000D02*
X134257000Y-51680000D01*
X133183000Y-51640000D02*
X133817000Y-51640000D01*
X134940000Y-54080000D02*
X138481000Y-54080000D01*
X134940000Y-54120000D02*
X138512000Y-54120000D01*
X134940000Y-54160000D02*
X138542000Y-54160000D01*
X134940000Y-54200000D02*
X138572000Y-54200000D01*
X134940000Y-54240000D02*
X138602000Y-54240000D01*
X134940000Y-54280000D02*
X138631000Y-54280000D01*
X134940000Y-54320000D02*
X138659000Y-54320000D01*
X134940000Y-54360000D02*
X138688000Y-54360000D01*
X134940000Y-54400000D02*
X138715000Y-54400000D01*
X134940000Y-54440000D02*
X138742000Y-54440000D01*
X134940000Y-54480000D02*
X138769000Y-54480000D01*
X134940000Y-54520000D02*
X138795000Y-54520000D01*
X134940000Y-54560000D02*
X138821000Y-54560000D01*
X134940000Y-54600000D02*
X138847000Y-54600000D01*
X134940000Y-54640000D02*
X138872000Y-54640000D01*
X134940000Y-54680000D02*
X138896000Y-54680000D01*
X134940000Y-54720000D02*
X138921000Y-54720000D01*
X134940000Y-54760000D02*
X138944000Y-54760000D01*
X134940000Y-54800000D02*
X138968000Y-54800000D01*
X134940000Y-54840000D02*
X138991000Y-54840000D01*
X134940000Y-54880000D02*
X139014000Y-54880000D01*
X134940000Y-54920000D02*
X139036000Y-54920000D01*
X134940000Y-54960000D02*
X139058000Y-54960000D01*
X134940000Y-55000000D02*
X139079000Y-55000000D01*
X134940000Y-55040000D02*
X139101000Y-55040000D01*
X134940000Y-55080000D02*
X139121000Y-55080000D01*
X134940000Y-55120000D02*
X139142000Y-55120000D01*
X134940000Y-55160000D02*
X139162000Y-55160000D01*
X134940000Y-55200000D02*
X139182000Y-55200000D01*
X134940000Y-55240000D02*
X139201000Y-55240000D01*
X134940000Y-55280000D02*
X139220000Y-55280000D01*
X134940000Y-55320000D02*
X139239000Y-55320000D01*
X134940000Y-55360000D02*
X139257000Y-55360000D01*
X134940000Y-55400000D02*
X139275000Y-55400000D01*
X134940000Y-55440000D02*
X139293000Y-55440000D01*
X134940000Y-55480000D02*
X139310000Y-55480000D01*
X134940000Y-55520000D02*
X139327000Y-55520000D01*
X134940000Y-55560000D02*
X139344000Y-55560000D01*
X134940000Y-55600000D02*
X139361000Y-55600000D01*
X134940000Y-55640000D02*
X139377000Y-55640000D01*
X134940000Y-55680000D02*
X139392000Y-55680000D01*
X134940000Y-55720000D02*
X139408000Y-55720000D01*
X134940000Y-55760000D02*
X139423000Y-55760000D01*
X134940000Y-55800000D02*
X139438000Y-55800000D01*
X134940000Y-55840000D02*
X139453000Y-55840000D01*
X134940000Y-55880000D02*
X139467000Y-55880000D01*
X134940000Y-55920000D02*
X139481000Y-55920000D01*
X134940000Y-55960000D02*
X139495000Y-55960000D01*
X134940000Y-56000000D02*
X139508000Y-56000000D01*
X134940000Y-56040000D02*
X139521000Y-56040000D01*
X134940000Y-56080000D02*
X139534000Y-56080000D01*
X134940000Y-56120000D02*
X139546000Y-56120000D01*
X134940000Y-56160000D02*
X139558000Y-56160000D01*
X134940000Y-56200000D02*
X139570000Y-56200000D01*
X134940000Y-56240000D02*
X139582000Y-56240000D01*
X134940000Y-56280000D02*
X139593000Y-56280000D01*
X134940000Y-56320000D02*
X139604000Y-56320000D01*
X134940000Y-56360000D02*
X139615000Y-56360000D01*
X134940000Y-56400000D02*
X139626000Y-56400000D01*
X134940000Y-56440000D02*
X139636000Y-56440000D01*
X134940000Y-56480000D02*
X139646000Y-56480000D01*
X134940000Y-56520000D02*
X139656000Y-56520000D01*
X134940000Y-56560000D02*
X139665000Y-56560000D01*
X134940000Y-56600000D02*
X139674000Y-56600000D01*
X134940000Y-56640000D02*
X139683000Y-56640000D01*
X134940000Y-56680000D02*
X139692000Y-56680000D01*
X134940000Y-56720000D02*
X139700000Y-56720000D01*
X134940000Y-56760000D02*
X139708000Y-56760000D01*
X134940000Y-56800000D02*
X139716000Y-56800000D01*
X134940000Y-56840000D02*
X139723000Y-56840000D01*
X134940000Y-56880000D02*
X139731000Y-56880000D01*
X134940000Y-56920000D02*
X139738000Y-56920000D01*
X139870000Y-58000000D02*
G75*
G02*
X127130000Y-58000000I-6370000J0D01*
G01*
X127130000Y-58000000D02*
G75*
G02*
X139870000Y-58000000I6370000J0D01*
G01*
%TO.C,R1*%
X75762742Y-79477500D02*
X76237258Y-79477500D01*
X75762742Y-80522500D02*
X76237258Y-80522500D01*
%TO.C,Q1*%
X129747573Y-66936471D02*
X134367573Y-66936471D01*
X129747573Y-77156471D02*
X129747573Y-66936471D01*
X132987573Y-66936471D02*
X132987573Y-77156471D01*
X134367573Y-66936471D02*
X134367573Y-77156471D01*
X134367573Y-70196471D02*
X132987573Y-70196471D01*
X134367573Y-73896471D02*
X132987573Y-73896471D01*
X134367573Y-77156471D02*
X129747573Y-77156471D01*
%TO.C,L2*%
X110240000Y-37540000D02*
X110240000Y-51850000D01*
X110240000Y-37540000D02*
X125960000Y-37540000D01*
X116810000Y-55960000D02*
X120550000Y-55960000D01*
X125960000Y-37540000D02*
X125960000Y-51850000D01*
X112233194Y-55372958D02*
G75*
G02*
X110240000Y-51850000I2116805J3522957D01*
G01*
X125960000Y-51850000D02*
G75*
G02*
X123051648Y-55780413I-4110000J0D01*
G01*
%TO.C,Q2*%
X102737500Y-68930000D02*
X107357500Y-68930000D01*
X102737500Y-79150000D02*
X102737500Y-68930000D01*
X105977500Y-68930000D02*
X105977500Y-79150000D01*
X107357500Y-68930000D02*
X107357500Y-79150000D01*
X107357500Y-72190000D02*
X105977500Y-72190000D01*
X107357500Y-75890000D02*
X105977500Y-75890000D01*
X107357500Y-79150000D02*
X102737500Y-79150000D01*
%TO.C,L1*%
X140240000Y-37540000D02*
X140240000Y-51850000D01*
X140240000Y-37540000D02*
X155960000Y-37540000D01*
X146810000Y-55960000D02*
X150550000Y-55960000D01*
X155960000Y-37540000D02*
X155960000Y-51850000D01*
X142233194Y-55372958D02*
G75*
G02*
X140240000Y-51850000I2116805J3522957D01*
G01*
X155960000Y-51850000D02*
G75*
G02*
X153051648Y-55780413I-4110000J0D01*
G01*
%TO.C,Q5*%
X75440000Y-75240000D02*
X76440000Y-75240000D01*
X75440000Y-76760000D02*
X75440000Y-75240000D01*
X75490000Y-76760000D02*
X75440000Y-76760000D01*
X77390000Y-76760000D02*
X76610000Y-76760000D01*
X77560000Y-75240000D02*
X78560000Y-75240000D01*
X78560000Y-75240000D02*
X78560000Y-76760000D01*
X78560000Y-76760000D02*
X78510000Y-76760000D01*
X76950000Y-77540000D02*
X76620000Y-77300000D01*
X76950000Y-77060000D01*
X76950000Y-77540000D01*
G36*
X76950000Y-77540000D02*
G01*
X76620000Y-77300000D01*
X76950000Y-77060000D01*
X76950000Y-77540000D01*
G37*
%TO.C,C2*%
X94670000Y-59460000D02*
X107330000Y-59460000D01*
X94670000Y-59500000D02*
X107330000Y-59500000D01*
X94671000Y-59380000D02*
X107329000Y-59380000D01*
X94671000Y-59420000D02*
X107329000Y-59420000D01*
X94672000Y-59340000D02*
X107328000Y-59340000D01*
X94673000Y-59300000D02*
X107327000Y-59300000D01*
X94675000Y-59260000D02*
X107325000Y-59260000D01*
X94676000Y-59220000D02*
X107324000Y-59220000D01*
X94678000Y-59180000D02*
X107322000Y-59180000D01*
X94680000Y-59140000D02*
X107320000Y-59140000D01*
X94683000Y-59100000D02*
X107317000Y-59100000D01*
X94685000Y-59060000D02*
X107315000Y-59060000D01*
X94688000Y-59020000D02*
X107312000Y-59020000D01*
X94691000Y-58980000D02*
X107309000Y-58980000D01*
X94695000Y-58940000D02*
X107305000Y-58940000D01*
X94698000Y-58900000D02*
X107302000Y-58900000D01*
X94702000Y-58860000D02*
X107298000Y-58860000D01*
X94706000Y-58820000D02*
X107294000Y-58820000D01*
X94711000Y-58780000D02*
X107289000Y-58780000D01*
X94716000Y-58740000D02*
X107284000Y-58740000D01*
X94720000Y-58700000D02*
X107280000Y-58700000D01*
X94726000Y-58660000D02*
X107274000Y-58660000D01*
X94731000Y-58620000D02*
X107269000Y-58620000D01*
X94737000Y-58580000D02*
X107263000Y-58580000D01*
X94743000Y-58540000D02*
X107257000Y-58540000D01*
X94749000Y-58500000D02*
X107251000Y-58500000D01*
X94755000Y-58460000D02*
X107245000Y-58460000D01*
X94762000Y-58420000D02*
X99560000Y-58420000D01*
X94769000Y-58380000D02*
X99560000Y-58380000D01*
X94777000Y-58340000D02*
X99560000Y-58340000D01*
X94784000Y-58300000D02*
X99560000Y-58300000D01*
X94792000Y-58260000D02*
X99560000Y-58260000D01*
X94800000Y-58220000D02*
X99560000Y-58220000D01*
X94808000Y-58180000D02*
X99560000Y-58180000D01*
X94817000Y-58140000D02*
X99560000Y-58140000D01*
X94826000Y-58100000D02*
X99560000Y-58100000D01*
X94835000Y-58060000D02*
X99560000Y-58060000D01*
X94844000Y-58020000D02*
X99560000Y-58020000D01*
X94854000Y-57980000D02*
X99560000Y-57980000D01*
X94864000Y-57940000D02*
X99560000Y-57940000D01*
X94874000Y-57900000D02*
X99560000Y-57900000D01*
X94885000Y-57860000D02*
X99560000Y-57860000D01*
X94896000Y-57820000D02*
X99560000Y-57820000D01*
X94907000Y-57780000D02*
X99560000Y-57780000D01*
X94918000Y-57740000D02*
X99560000Y-57740000D01*
X94930000Y-57700000D02*
X99560000Y-57700000D01*
X94942000Y-57660000D02*
X99560000Y-57660000D01*
X94954000Y-57620000D02*
X99560000Y-57620000D01*
X94966000Y-57580000D02*
X99560000Y-57580000D01*
X94979000Y-57540000D02*
X99560000Y-57540000D01*
X94992000Y-57500000D02*
X99560000Y-57500000D01*
X95005000Y-57460000D02*
X99560000Y-57460000D01*
X95019000Y-57420000D02*
X99560000Y-57420000D01*
X95033000Y-57380000D02*
X99560000Y-57380000D01*
X95047000Y-57340000D02*
X99560000Y-57340000D01*
X95062000Y-57300000D02*
X99560000Y-57300000D01*
X95077000Y-57260000D02*
X99560000Y-57260000D01*
X95092000Y-57220000D02*
X99560000Y-57220000D01*
X95108000Y-57180000D02*
X99560000Y-57180000D01*
X95123000Y-57140000D02*
X99560000Y-57140000D01*
X95139000Y-57100000D02*
X99560000Y-57100000D01*
X95156000Y-57060000D02*
X99560000Y-57060000D01*
X95173000Y-57020000D02*
X99560000Y-57020000D01*
X95190000Y-56980000D02*
X99560000Y-56980000D01*
X95207000Y-56940000D02*
X99560000Y-56940000D01*
X95225000Y-56900000D02*
X99560000Y-56900000D01*
X95243000Y-56860000D02*
X99560000Y-56860000D01*
X95261000Y-56820000D02*
X99560000Y-56820000D01*
X95280000Y-56780000D02*
X99560000Y-56780000D01*
X95299000Y-56740000D02*
X99560000Y-56740000D01*
X95318000Y-56700000D02*
X99560000Y-56700000D01*
X95338000Y-56660000D02*
X99560000Y-56660000D01*
X95358000Y-56620000D02*
X99560000Y-56620000D01*
X95379000Y-56580000D02*
X99560000Y-56580000D01*
X95399000Y-56540000D02*
X99560000Y-56540000D01*
X95421000Y-56500000D02*
X99560000Y-56500000D01*
X95442000Y-56460000D02*
X99560000Y-56460000D01*
X95464000Y-56420000D02*
X99560000Y-56420000D01*
X95486000Y-56380000D02*
X99560000Y-56380000D01*
X95509000Y-56340000D02*
X99560000Y-56340000D01*
X95532000Y-56300000D02*
X99560000Y-56300000D01*
X95556000Y-56260000D02*
X99560000Y-56260000D01*
X95579000Y-56220000D02*
X99560000Y-56220000D01*
X95604000Y-56180000D02*
X99560000Y-56180000D01*
X95628000Y-56140000D02*
X99560000Y-56140000D01*
X95653000Y-56100000D02*
X99560000Y-56100000D01*
X95679000Y-56060000D02*
X99560000Y-56060000D01*
X95705000Y-56020000D02*
X99560000Y-56020000D01*
X95731000Y-55980000D02*
X99560000Y-55980000D01*
X95758000Y-55940000D02*
X99560000Y-55940000D01*
X95785000Y-55900000D02*
X99560000Y-55900000D01*
X95812000Y-55860000D02*
X99560000Y-55860000D01*
X95841000Y-55820000D02*
X99560000Y-55820000D01*
X95869000Y-55780000D02*
X99560000Y-55780000D01*
X95898000Y-55740000D02*
X99560000Y-55740000D01*
X95928000Y-55700000D02*
X99560000Y-55700000D01*
X95958000Y-55660000D02*
X99560000Y-55660000D01*
X95988000Y-55620000D02*
X99560000Y-55620000D01*
X96019000Y-55580000D02*
X99560000Y-55580000D01*
X96050000Y-55540000D02*
X105950000Y-55540000D01*
X96082000Y-55500000D02*
X105918000Y-55500000D01*
X96115000Y-55460000D02*
X105885000Y-55460000D01*
X96148000Y-55420000D02*
X105852000Y-55420000D01*
X96182000Y-55380000D02*
X105818000Y-55380000D01*
X96216000Y-55340000D02*
X105784000Y-55340000D01*
X96251000Y-55300000D02*
X105749000Y-55300000D01*
X96286000Y-55260000D02*
X105714000Y-55260000D01*
X96322000Y-55220000D02*
X105678000Y-55220000D01*
X96359000Y-55180000D02*
X105641000Y-55180000D01*
X96396000Y-55140000D02*
X105604000Y-55140000D01*
X96434000Y-55100000D02*
X105566000Y-55100000D01*
X96472000Y-55060000D02*
X105528000Y-55060000D01*
X96512000Y-55020000D02*
X105488000Y-55020000D01*
X96552000Y-54980000D02*
X105448000Y-54980000D01*
X96592000Y-54940000D02*
X105408000Y-54940000D01*
X96634000Y-54900000D02*
X105366000Y-54900000D01*
X96676000Y-54860000D02*
X105324000Y-54860000D01*
X96719000Y-54820000D02*
X105281000Y-54820000D01*
X96762000Y-54780000D02*
X105238000Y-54780000D01*
X96800000Y-65692082D02*
X98050000Y-65692082D01*
X96807000Y-54740000D02*
X105193000Y-54740000D01*
X96852000Y-54700000D02*
X105148000Y-54700000D01*
X96899000Y-54660000D02*
X105101000Y-54660000D01*
X96946000Y-54620000D02*
X105054000Y-54620000D01*
X96994000Y-54580000D02*
X105006000Y-54580000D01*
X97043000Y-54540000D02*
X104957000Y-54540000D01*
X97093000Y-54500000D02*
X104907000Y-54500000D01*
X97144000Y-54460000D02*
X104856000Y-54460000D01*
X97197000Y-54420000D02*
X104803000Y-54420000D01*
X97250000Y-54380000D02*
X104750000Y-54380000D01*
X97305000Y-54340000D02*
X104695000Y-54340000D01*
X97361000Y-54300000D02*
X104639000Y-54300000D01*
X97418000Y-54260000D02*
X104582000Y-54260000D01*
X97425000Y-66317082D02*
X97425000Y-65067082D01*
X97477000Y-54220000D02*
X104523000Y-54220000D01*
X97537000Y-54180000D02*
X104463000Y-54180000D01*
X97598000Y-54140000D02*
X104402000Y-54140000D01*
X97661000Y-54100000D02*
X104339000Y-54100000D01*
X97726000Y-54060000D02*
X104274000Y-54060000D01*
X97792000Y-54020000D02*
X104208000Y-54020000D01*
X97861000Y-53980000D02*
X104139000Y-53980000D01*
X97931000Y-53940000D02*
X104069000Y-53940000D01*
X98004000Y-53900000D02*
X103996000Y-53900000D01*
X98079000Y-53860000D02*
X103921000Y-53860000D01*
X98157000Y-53820000D02*
X103843000Y-53820000D01*
X98237000Y-53780000D02*
X103763000Y-53780000D01*
X98320000Y-53740000D02*
X103680000Y-53740000D01*
X98406000Y-53700000D02*
X103594000Y-53700000D01*
X98496000Y-53660000D02*
X103504000Y-53660000D01*
X98590000Y-53620000D02*
X103410000Y-53620000D01*
X98688000Y-53580000D02*
X103312000Y-53580000D01*
X98792000Y-53540000D02*
X103208000Y-53540000D01*
X98901000Y-53500000D02*
X103099000Y-53500000D01*
X99016000Y-53460000D02*
X102984000Y-53460000D01*
X99140000Y-53420000D02*
X102860000Y-53420000D01*
X99273000Y-53380000D02*
X102727000Y-53380000D01*
X99418000Y-53340000D02*
X102582000Y-53340000D01*
X99578000Y-53300000D02*
X102422000Y-53300000D01*
X99760000Y-53260000D02*
X102240000Y-53260000D01*
X99973000Y-53220000D02*
X102027000Y-53220000D01*
X100243000Y-53180000D02*
X101757000Y-53180000D01*
X100683000Y-53140000D02*
X101317000Y-53140000D01*
X102440000Y-55580000D02*
X105981000Y-55580000D01*
X102440000Y-55620000D02*
X106012000Y-55620000D01*
X102440000Y-55660000D02*
X106042000Y-55660000D01*
X102440000Y-55700000D02*
X106072000Y-55700000D01*
X102440000Y-55740000D02*
X106102000Y-55740000D01*
X102440000Y-55780000D02*
X106131000Y-55780000D01*
X102440000Y-55820000D02*
X106159000Y-55820000D01*
X102440000Y-55860000D02*
X106188000Y-55860000D01*
X102440000Y-55900000D02*
X106215000Y-55900000D01*
X102440000Y-55940000D02*
X106242000Y-55940000D01*
X102440000Y-55980000D02*
X106269000Y-55980000D01*
X102440000Y-56020000D02*
X106295000Y-56020000D01*
X102440000Y-56060000D02*
X106321000Y-56060000D01*
X102440000Y-56100000D02*
X106347000Y-56100000D01*
X102440000Y-56140000D02*
X106372000Y-56140000D01*
X102440000Y-56180000D02*
X106396000Y-56180000D01*
X102440000Y-56220000D02*
X106421000Y-56220000D01*
X102440000Y-56260000D02*
X106444000Y-56260000D01*
X102440000Y-56300000D02*
X106468000Y-56300000D01*
X102440000Y-56340000D02*
X106491000Y-56340000D01*
X102440000Y-56380000D02*
X106514000Y-56380000D01*
X102440000Y-56420000D02*
X106536000Y-56420000D01*
X102440000Y-56460000D02*
X106558000Y-56460000D01*
X102440000Y-56500000D02*
X106579000Y-56500000D01*
X102440000Y-56540000D02*
X106601000Y-56540000D01*
X102440000Y-56580000D02*
X106621000Y-56580000D01*
X102440000Y-56620000D02*
X106642000Y-56620000D01*
X102440000Y-56660000D02*
X106662000Y-56660000D01*
X102440000Y-56700000D02*
X106682000Y-56700000D01*
X102440000Y-56740000D02*
X106701000Y-56740000D01*
X102440000Y-56780000D02*
X106720000Y-56780000D01*
X102440000Y-56820000D02*
X106739000Y-56820000D01*
X102440000Y-56860000D02*
X106757000Y-56860000D01*
X102440000Y-56900000D02*
X106775000Y-56900000D01*
X102440000Y-56940000D02*
X106793000Y-56940000D01*
X102440000Y-56980000D02*
X106810000Y-56980000D01*
X102440000Y-57020000D02*
X106827000Y-57020000D01*
X102440000Y-57060000D02*
X106844000Y-57060000D01*
X102440000Y-57100000D02*
X106861000Y-57100000D01*
X102440000Y-57140000D02*
X106877000Y-57140000D01*
X102440000Y-57180000D02*
X106892000Y-57180000D01*
X102440000Y-57220000D02*
X106908000Y-57220000D01*
X102440000Y-57260000D02*
X106923000Y-57260000D01*
X102440000Y-57300000D02*
X106938000Y-57300000D01*
X102440000Y-57340000D02*
X106953000Y-57340000D01*
X102440000Y-57380000D02*
X106967000Y-57380000D01*
X102440000Y-57420000D02*
X106981000Y-57420000D01*
X102440000Y-57460000D02*
X106995000Y-57460000D01*
X102440000Y-57500000D02*
X107008000Y-57500000D01*
X102440000Y-57540000D02*
X107021000Y-57540000D01*
X102440000Y-57580000D02*
X107034000Y-57580000D01*
X102440000Y-57620000D02*
X107046000Y-57620000D01*
X102440000Y-57660000D02*
X107058000Y-57660000D01*
X102440000Y-57700000D02*
X107070000Y-57700000D01*
X102440000Y-57740000D02*
X107082000Y-57740000D01*
X102440000Y-57780000D02*
X107093000Y-57780000D01*
X102440000Y-57820000D02*
X107104000Y-57820000D01*
X102440000Y-57860000D02*
X107115000Y-57860000D01*
X102440000Y-57900000D02*
X107126000Y-57900000D01*
X102440000Y-57940000D02*
X107136000Y-57940000D01*
X102440000Y-57980000D02*
X107146000Y-57980000D01*
X102440000Y-58020000D02*
X107156000Y-58020000D01*
X102440000Y-58060000D02*
X107165000Y-58060000D01*
X102440000Y-58100000D02*
X107174000Y-58100000D01*
X102440000Y-58140000D02*
X107183000Y-58140000D01*
X102440000Y-58180000D02*
X107192000Y-58180000D01*
X102440000Y-58220000D02*
X107200000Y-58220000D01*
X102440000Y-58260000D02*
X107208000Y-58260000D01*
X102440000Y-58300000D02*
X107216000Y-58300000D01*
X102440000Y-58340000D02*
X107223000Y-58340000D01*
X102440000Y-58380000D02*
X107231000Y-58380000D01*
X102440000Y-58420000D02*
X107238000Y-58420000D01*
X107370000Y-59500000D02*
G75*
G02*
X94630000Y-59500000I-6370000J0D01*
G01*
X94630000Y-59500000D02*
G75*
G02*
X107370000Y-59500000I6370000J0D01*
G01*
%TO.C,L3*%
X94890000Y-104810000D02*
X94890000Y-90500000D01*
X104040000Y-86390000D02*
X100300000Y-86390000D01*
X110610000Y-104810000D02*
X94890000Y-104810000D01*
X110610000Y-104810000D02*
X110610000Y-90500000D01*
X94890000Y-90500000D02*
G75*
G02*
X97798352Y-86569587I4110000J0D01*
G01*
X108616806Y-86977042D02*
G75*
G02*
X110610000Y-90500000I-2116805J-3522957D01*
G01*
%TO.C,D4*%
X120360000Y-89000000D02*
X116350000Y-89000000D01*
X120360000Y-91000000D02*
X116350000Y-91000000D01*
X120360000Y-91000000D02*
X120360000Y-89000000D01*
%TO.C,U1*%
X65070000Y-53240000D02*
X66450000Y-53240000D01*
X65070000Y-54620000D02*
X65070000Y-53240000D01*
X65070000Y-55890000D02*
X65070000Y-104260000D01*
X65070000Y-55890000D02*
X67830000Y-55890000D01*
X65070000Y-104260000D02*
X67830000Y-104260000D01*
X67830000Y-55890000D02*
X67830000Y-104260000D01*
X90470000Y-53240000D02*
X91850000Y-53240000D01*
X90470000Y-54620000D02*
X90470000Y-53240000D01*
X90470000Y-55890000D02*
X90470000Y-104260000D01*
X90470000Y-55890000D02*
X93230000Y-55890000D01*
X90470000Y-104260000D02*
X93230000Y-104260000D01*
X93230000Y-55890000D02*
X93230000Y-104260000D01*
D14*
X64650000Y-37120000D02*
X93650000Y-37120000D01*
X93650000Y-104620000D01*
X64650000Y-104620000D01*
X64650000Y-37120000D01*
X64700000Y-37060000D02*
X93700000Y-37060000D01*
X93700000Y-104560000D01*
X64700000Y-104560000D01*
X64700000Y-37060000D01*
%TO.C,K3*%
D13*
X141200000Y-58650000D02*
X141200000Y-88050000D01*
X141200000Y-88050000D02*
X154300000Y-88050000D01*
X143880000Y-81690000D02*
X143880000Y-82960000D01*
X145150000Y-80420000D02*
X145150000Y-82960000D01*
X145150000Y-81690000D02*
X143880000Y-81690000D01*
X145150000Y-82960000D02*
X150230000Y-82960000D01*
D14*
X148960000Y-82960000D02*
X147690000Y-80420000D01*
D13*
X150230000Y-80420000D02*
X145150000Y-80420000D01*
X150230000Y-81690000D02*
X150230000Y-80420000D01*
X150230000Y-82960000D02*
X150230000Y-81690000D01*
X151500000Y-81690000D02*
X150230000Y-81690000D01*
X151500000Y-82960000D02*
X151500000Y-81690000D01*
X153000000Y-88250000D02*
X154500000Y-88250000D01*
X154300000Y-58650000D02*
X141200000Y-58650000D01*
X154300000Y-88050000D02*
X154300000Y-58650000D01*
X154500000Y-88250000D02*
X154500000Y-86750000D01*
%TO.C,D1*%
X139230000Y-93940000D02*
X149450000Y-93940000D01*
X139230000Y-95320000D02*
X149450000Y-95320000D01*
X139230000Y-98560000D02*
X139230000Y-93940000D01*
X142490000Y-93940000D02*
X142490000Y-95320000D01*
X146190000Y-93940000D02*
X146190000Y-95320000D01*
X149450000Y-93940000D02*
X149450000Y-98560000D01*
X149450000Y-98560000D02*
X139230000Y-98560000D01*
%TD*%
M02*
