%TF.GenerationSoftware,KiCad,Pcbnew,10.0.1*%
%TF.CreationDate,2026-05-15T14:17:26+10:00*%
%TF.ProjectId,Linear_Acuator_Control,4c696e65-6172-45f4-9163-7561746f725f,rev?*%
%TF.SameCoordinates,Original*%
%TF.FileFunction,Soldermask,Bot*%
%TF.FilePolarity,Negative*%
%FSLAX46Y46*%
G04 Gerber Fmt 4.6, Leading zero omitted, Abs format (unit mm)*
G04 Created by KiCad (PCBNEW 10.0.1) date 2026-05-15 14:17:26*
%MOMM*%
%LPD*%
G01*
G04 APERTURE LIST*
G04 Aperture macros list*
%AMRoundRect*
0 Rectangle with rounded corners*
0 $1 Rounding radius*
0 $2 $3 $4 $5 $6 $7 $8 $9 X,Y pos of 4 corners*
0 Add a 4 corners polygon primitive as box body*
4,1,4,$2,$3,$4,$5,$6,$7,$8,$9,$2,$3,0*
0 Add four circle primitives for the rounded corners*
1,1,$1+$1,$2,$3*
1,1,$1+$1,$4,$5*
1,1,$1+$1,$6,$7*
1,1,$1+$1,$8,$9*
0 Add four rect primitives between the rounded corners*
20,1,$1+$1,$2,$3,$4,$5,0*
20,1,$1+$1,$4,$5,$6,$7,0*
20,1,$1+$1,$6,$7,$8,$9,0*
20,1,$1+$1,$8,$9,$2,$3,0*%
G04 Aperture macros list end*
%ADD10O,3.000000X2.000000*%
%ADD11R,2.000000X3.000000*%
%ADD12O,2.000000X3.000000*%
%ADD13C,1.300000*%
%ADD14C,3.200000*%
%ADD15R,2.000000X2.000000*%
%ADD16C,2.000000*%
%ADD17RoundRect,0.250001X0.949999X-0.949999X0.949999X0.949999X-0.949999X0.949999X-0.949999X-0.949999X0*%
%ADD18C,2.400000*%
%ADD19R,2.000000X1.905000*%
%ADD20O,2.000000X1.905000*%
%ADD21R,0.900000X2.000000*%
%ADD22RoundRect,1.025000X-1.025000X-1.025000X1.025000X-1.025000X1.025000X1.025000X-1.025000X1.025000X0*%
%ADD23C,4.100000*%
%ADD24RoundRect,1.025000X1.025000X1.025000X-1.025000X1.025000X-1.025000X-1.025000X1.025000X-1.025000X0*%
%ADD25C,1.700000*%
%ADD26R,1.700000X1.700000*%
%ADD27C,2.400000*%
G04 APERTURE END LIST*
D10*
%TO.C,K1*%
X122000000Y-64540000D03*
X122000000Y-69580000D03*
X122000000Y-59500000D03*
X114500000Y-64540000D03*
X114500000Y-69580000D03*
X114500000Y-59500000D03*
D11*
X122000000Y-84840000D03*
D12*
X114500000Y-84840000D03*
%TD*%
D13*
%TO.C,REF\u002A\u002A*%
X162500000Y-71000000D03*
%TD*%
D14*
%TO.C,REF\u002A\u002A*%
X60500000Y-101500000D03*
%TD*%
%TO.C,REF\u002A\u002A*%
X60500000Y-40500000D03*
%TD*%
D13*
%TO.C,REF\u002A\u002A*%
X59000000Y-48000000D03*
%TD*%
D14*
%TO.C,REF\u002A\u002A*%
X161500000Y-101500000D03*
%TD*%
D15*
%TO.C,D2*%
X119000000Y-97000000D03*
D16*
X124080000Y-97000000D03*
%TD*%
D17*
%TO.C,C1*%
X133500000Y-60500000D03*
D18*
X133500000Y-55500000D03*
%TD*%
D19*
%TO.C,Q1*%
X131107573Y-69506471D03*
D20*
X131107573Y-72046471D03*
X131107573Y-74586471D03*
%TD*%
D21*
%TO.C,L2*%
X111350000Y-48000000D03*
X124850000Y-48000000D03*
D22*
X114500000Y-54000000D03*
D23*
X121700000Y-54000000D03*
%TD*%
D19*
%TO.C,Q2*%
X104097500Y-71500000D03*
D20*
X104097500Y-74040000D03*
X104097500Y-76580000D03*
%TD*%
D21*
%TO.C,L1*%
X141350000Y-48000000D03*
X154850000Y-48000000D03*
D22*
X144500000Y-54000000D03*
D23*
X151700000Y-54000000D03*
%TD*%
D14*
%TO.C,REF\u002A\u002A*%
X133500000Y-40500000D03*
%TD*%
%TO.C,REF\u002A\u002A*%
X161500000Y-40500000D03*
%TD*%
D17*
%TO.C,C2*%
X101000000Y-62000000D03*
D18*
X101000000Y-57000000D03*
%TD*%
D13*
%TO.C,REF\u002A\u002A*%
X58500000Y-94500000D03*
%TD*%
D21*
%TO.C,L3*%
X109500000Y-94350000D03*
X96000000Y-94350000D03*
D24*
X106350000Y-88350000D03*
D23*
X99150000Y-88350000D03*
%TD*%
D25*
%TO.C,U1*%
X91850000Y-85100000D03*
X91850000Y-59700000D03*
X91850000Y-62240000D03*
X66450000Y-82560000D03*
D26*
X66450000Y-54620000D03*
D25*
X66450000Y-59700000D03*
X66450000Y-62240000D03*
X66450000Y-102880000D03*
X66450000Y-64780000D03*
X66450000Y-67320000D03*
X66450000Y-80020000D03*
X66450000Y-87640000D03*
X66450000Y-90180000D03*
X66450000Y-92720000D03*
X66450000Y-95260000D03*
X66450000Y-97800000D03*
X66450000Y-100340000D03*
X66450000Y-69860000D03*
X66450000Y-72400000D03*
X66450000Y-74940000D03*
X66450000Y-77480000D03*
X91850000Y-100340000D03*
X91850000Y-97800000D03*
X91850000Y-95260000D03*
X91850000Y-82560000D03*
X91850000Y-80020000D03*
X91850000Y-77480000D03*
X91850000Y-74940000D03*
X91850000Y-72400000D03*
X91850000Y-69860000D03*
X91850000Y-67320000D03*
X91850000Y-64780000D03*
D26*
X91850000Y-54620000D03*
D25*
X91850000Y-57160000D03*
X91850000Y-87640000D03*
X66450000Y-85100000D03*
X91850000Y-92720000D03*
X91850000Y-90180000D03*
X66450000Y-57160000D03*
X91850000Y-102880000D03*
%TD*%
D10*
%TO.C,K3*%
X151500000Y-65200000D03*
X151500000Y-70240000D03*
X151500000Y-60160000D03*
X144000000Y-65200000D03*
X144000000Y-70240000D03*
X144000000Y-60160000D03*
D11*
X151500000Y-85500000D03*
D12*
X144000000Y-85500000D03*
%TD*%
D15*
%TO.C,D1*%
X141800000Y-97200000D03*
D16*
X146880000Y-97200000D03*
%TD*%
D27*
X114500000Y-59500000D02*
X118000000Y-63000000D01*
X118000000Y-63000000D02*
X118000000Y-67500000D01*
X120080000Y-69580000D02*
X122000000Y-69580000D01*
X118000000Y-67500000D02*
X120080000Y-69580000D01*
X114500000Y-69580000D02*
X117920000Y-73000000D01*
X117920000Y-73000000D02*
X125500000Y-73000000D01*
X121710000Y-59210000D02*
X122000000Y-59500000D01*
X114500000Y-54000000D02*
X119710000Y-59210000D01*
X125500000Y-73000000D02*
X125500000Y-63000000D01*
X119710000Y-59210000D02*
X121710000Y-59210000D01*
X125500000Y-63000000D02*
X122000000Y-59500000D01*
X122000000Y-91400000D02*
X119000000Y-94400000D01*
X101000000Y-62000000D02*
X101000000Y-63000000D01*
X119000000Y-97000000D02*
X117800000Y-98200000D01*
X105200000Y-98200000D02*
X99250000Y-92250000D01*
X101000000Y-63000000D02*
X102540000Y-64540000D01*
X136500000Y-100500000D02*
X120000000Y-100500000D01*
X101000000Y-63500000D02*
X101000000Y-62000000D01*
X119000000Y-94400000D02*
X119000000Y-97000000D01*
X99250000Y-65250000D02*
X101000000Y-63500000D01*
X141800000Y-97200000D02*
X138210000Y-97200000D01*
X102540000Y-64540000D02*
X114500000Y-64540000D01*
X141800000Y-95200000D02*
X151500000Y-85500000D01*
X99250000Y-88450000D02*
X99150000Y-88350000D01*
X117800000Y-98200000D02*
X105200000Y-98200000D01*
X99250000Y-92250000D02*
X99250000Y-88450000D01*
X99250000Y-88250000D02*
X99250000Y-65250000D01*
X122000000Y-84840000D02*
X122000000Y-91400000D01*
X136500000Y-98910000D02*
X136500000Y-100500000D01*
X120000000Y-100500000D02*
X120000000Y-98000000D01*
X141800000Y-97200000D02*
X141800000Y-95200000D01*
X138210000Y-97200000D02*
X136500000Y-98910000D01*
X120000000Y-98000000D02*
X119000000Y-97000000D01*
X99150000Y-88350000D02*
X99250000Y-88250000D01*
X146880000Y-97200000D02*
X149800000Y-97200000D01*
X154800647Y-73489353D02*
X154800647Y-74518259D01*
X149800000Y-97200000D02*
X155000000Y-92000000D01*
X138714117Y-74369117D02*
X136345000Y-72000000D01*
X154800647Y-74518259D02*
X154572388Y-74290000D01*
X155000000Y-92000000D02*
X155000000Y-71000000D01*
X131154044Y-72000000D02*
X131107573Y-72046471D01*
X154572388Y-74290000D02*
X150487034Y-74290000D01*
X150487034Y-74290000D02*
X150407917Y-74369117D01*
X151500000Y-65200000D02*
X154700000Y-65200000D01*
X155000000Y-65500000D02*
X155000000Y-73290000D01*
X150407917Y-74369117D02*
X138714117Y-74369117D01*
X155000000Y-73290000D02*
X154800647Y-73489353D01*
X154700000Y-65200000D02*
X155000000Y-65500000D01*
X136345000Y-72000000D02*
X131154044Y-72000000D01*
X144500000Y-54000000D02*
X145500000Y-54000000D01*
X148000000Y-57160000D02*
X151000000Y-60160000D01*
X151000000Y-60160000D02*
X151500000Y-60160000D01*
X148000000Y-56500000D02*
X148000000Y-57160000D01*
X145500000Y-54000000D02*
X148000000Y-56500000D01*
X144000000Y-60160000D02*
X148000000Y-64160000D01*
X148000000Y-66740000D02*
X151500000Y-70240000D01*
X148000000Y-64160000D02*
X148000000Y-66740000D01*
M02*
