M48
; DRILL file KiCad 10.0.1 date 2026-05-15T14:17:38
; FORMAT={-:-/ absolute / metric / decimal}
; #@! TF.CreationDate,2026-05-15T14:17:38+10:00
; #@! TF.GenerationSoftware,Kicad,Pcbnew,10.0.1
; #@! TF.FileFunction,Plated,1,2,PTH
FMAT,2
METRIC
; #@! TA.AperFunction,Plated,PTH,ViaDrill
T1C0.300
; #@! TA.AperFunction,Plated,PTH,ComponentDrill
T2C0.600
; #@! TA.AperFunction,Plated,PTH,ComponentDrill
T3C1.000
; #@! TA.AperFunction,Plated,PTH,ComponentDrill
T4C1.100
; #@! TA.AperFunction,Plated,PTH,ComponentDrill
T5C1.200
; #@! TA.AperFunction,Plated,PTH,ComponentDrill
T6C1.300
; #@! TA.AperFunction,Plated,PTH,ComponentDrill
T7C2.700
%
G90
G05
T1
X70.5Y-72.0
X75.0Y-72.0
X81.0Y-72.0
X97.5Y-55.5
X97.5Y-57.5
X97.5Y-60.0
X97.5Y-62.0
X100.0Y-60.0
X102.0Y-60.0
X103.0Y-53.0
X104.0Y-60.0
X104.0Y-62.0
X105.0Y-53.0
X105.0Y-55.0
X107.0Y-53.0
X107.0Y-55.0
X107.0Y-57.0
X109.0Y-53.0
X109.0Y-55.0
X109.0Y-57.0
X109.75Y-68.75
X113.0Y-74.75
X127.0Y-51.0
X127.5Y-54.0
X137.5Y-76.5
X137.5Y-78.0
X137.5Y-80.0
X137.5Y-82.5
X137.5Y-84.5
X140.0Y-80.0
X140.0Y-82.5
X140.0Y-84.5
T3
X66.45Y-54.62
X66.45Y-57.16
X66.45Y-59.7
X66.45Y-62.24
X66.45Y-64.78
X66.45Y-67.32
X66.45Y-69.86
X66.45Y-72.4
X66.45Y-74.94
X66.45Y-77.48
X66.45Y-80.02
X66.45Y-82.56
X66.45Y-85.1
X66.45Y-87.64
X66.45Y-90.18
X66.45Y-92.72
X66.45Y-95.26
X66.45Y-97.8
X66.45Y-100.34
X66.45Y-102.88
X91.85Y-54.62
X91.85Y-57.16
X91.85Y-59.7
X91.85Y-62.24
X91.85Y-64.78
X91.85Y-67.32
X91.85Y-69.86
X91.85Y-72.4
X91.85Y-74.94
X91.85Y-77.48
X91.85Y-80.02
X91.85Y-82.56
X91.85Y-85.1
X91.85Y-87.64
X91.85Y-90.18
X91.85Y-92.72
X91.85Y-95.26
X91.85Y-97.8
X91.85Y-100.34
X91.85Y-102.88
T4
X104.097Y-71.5
X104.097Y-74.04
X104.097Y-76.58
X119.0Y-97.0
X124.08Y-97.0
X131.108Y-69.506
X131.108Y-72.046
X131.108Y-74.586
X141.8Y-97.2
X146.88Y-97.2
T5
X101.0Y-57.0
X101.0Y-62.0
X133.5Y-55.5
X133.5Y-60.5
T6
X114.5Y-59.5
X114.5Y-64.54
X114.5Y-69.58
X114.5Y-84.84
X122.0Y-59.5
X122.0Y-64.54
X122.0Y-69.58
X122.0Y-84.84
X144.0Y-60.16
X144.0Y-65.2
X144.0Y-70.24
X144.0Y-85.5
X151.5Y-60.16
X151.5Y-65.2
X151.5Y-70.24
X151.5Y-85.5
T7
X99.15Y-88.35
X106.35Y-88.35
X114.5Y-54.0
X121.7Y-54.0
X144.5Y-54.0
X151.7Y-54.0
T2
G00X96.0Y-94.9
M15
G01X96.0Y-93.8
M16
G05
G00X109.5Y-94.9
M15
G01X109.5Y-93.8
M16
G05
G00X111.35Y-47.45
M15
G01X111.35Y-48.55
M16
G05
G00X124.85Y-47.45
M15
G01X124.85Y-48.55
M16
G05
G00X141.35Y-47.45
M15
G01X141.35Y-48.55
M16
G05
G00X154.85Y-47.45
M15
G01X154.85Y-48.55
M16
G05
M30
