%TF.GenerationSoftware,KiCad,Pcbnew,10.0.1*%
%TF.CreationDate,2026-05-15T14:17:26+10:00*%
%TF.ProjectId,Linear_Acuator_Control,4c696e65-6172-45f4-9163-7561746f725f,rev?*%
%TF.SameCoordinates,Original*%
%TF.FileFunction,Soldermask,Top*%
%TF.FilePolarity,Negative*%
%FSLAX46Y46*%
G04 Gerber Fmt 4.6, Leading zero omitted, Abs format (unit mm)*
G04 Created by KiCad (PCBNEW 10.0.1) date 2026-05-15 14:17:26*
%MOMM*%
%LPD*%
G01*
G04 APERTURE LIST*
G04 Aperture macros list*
%AMRoundRect*
0 Rectangle with rounded corners*
0 $1 Rounding radius*
0 $2 $3 $4 $5 $6 $7 $8 $9 X,Y pos of 4 corners*
0 Add a 4 corners polygon primitive as box body*
4,1,4,$2,$3,$4,$5,$6,$7,$8,$9,$2,$3,0*
0 Add four circle primitives for the rounded corners*
1,1,$1+$1,$2,$3*
1,1,$1+$1,$4,$5*
1,1,$1+$1,$6,$7*
1,1,$1+$1,$8,$9*
0 Add four rect primitives between the rounded corners*
20,1,$1+$1,$2,$3,$4,$5,0*
20,1,$1+$1,$4,$5,$6,$7,0*
20,1,$1+$1,$6,$7,$8,$9,0*
20,1,$1+$1,$8,$9,$2,$3,0*%
G04 Aperture macros list end*
%ADD10C,0.000000*%
%ADD11RoundRect,0.200000X-0.200000X-0.275000X0.200000X-0.275000X0.200000X0.275000X-0.200000X0.275000X0*%
%ADD12RoundRect,0.150000X0.150000X-0.587500X0.150000X0.587500X-0.150000X0.587500X-0.150000X-0.587500X0*%
%ADD13O,3.000000X2.000000*%
%ADD14R,2.000000X3.000000*%
%ADD15O,2.000000X3.000000*%
%ADD16C,1.300000*%
%ADD17RoundRect,0.200000X0.275000X-0.200000X0.275000X0.200000X-0.275000X0.200000X-0.275000X-0.200000X0*%
%ADD18C,3.200000*%
%ADD19RoundRect,0.225000X0.225000X0.375000X-0.225000X0.375000X-0.225000X-0.375000X0.225000X-0.375000X0*%
%ADD20R,2.000000X2.000000*%
%ADD21C,2.000000*%
%ADD22RoundRect,0.250001X0.949999X-0.949999X0.949999X0.949999X-0.949999X0.949999X-0.949999X-0.949999X0*%
%ADD23C,2.400000*%
%ADD24R,2.000000X1.905000*%
%ADD25O,2.000000X1.905000*%
%ADD26R,0.900000X2.000000*%
%ADD27RoundRect,1.025000X-1.025000X-1.025000X1.025000X-1.025000X1.025000X1.025000X-1.025000X1.025000X0*%
%ADD28C,4.100000*%
%ADD29RoundRect,1.025000X1.025000X1.025000X-1.025000X1.025000X-1.025000X-1.025000X1.025000X-1.025000X0*%
%ADD30C,1.700000*%
%ADD31R,1.700000X1.700000*%
%ADD32C,2.400000*%
%ADD33C,1.778000*%
G04 APERTURE END LIST*
D10*
%TO.C,*%
G36*
X98866279Y-41044413D02*
G01*
X98863877Y-41046815D01*
X98861475Y-41044413D01*
X98863877Y-41042012D01*
X98866279Y-41044413D01*
G37*
G36*
X98880689Y-40943543D02*
G01*
X98878287Y-40945945D01*
X98875885Y-40943543D01*
X98878287Y-40941142D01*
X98880689Y-40943543D01*
G37*
G36*
X98885492Y-40914723D02*
G01*
X98883090Y-40917125D01*
X98880689Y-40914723D01*
X98883090Y-40912322D01*
X98885492Y-40914723D01*
G37*
G36*
X98890295Y-40885903D02*
G01*
X98887894Y-40888305D01*
X98885492Y-40885903D01*
X98887894Y-40883502D01*
X98890295Y-40885903D01*
G37*
G36*
X98895099Y-40861887D02*
G01*
X98892697Y-40864288D01*
X98890295Y-40861887D01*
X98892697Y-40859485D01*
X98895099Y-40861887D01*
G37*
G36*
X98899902Y-40833067D02*
G01*
X98897500Y-40835468D01*
X98895099Y-40833067D01*
X98897500Y-40830665D01*
X98899902Y-40833067D01*
G37*
G36*
X98904705Y-40809050D02*
G01*
X98902304Y-40811452D01*
X98899902Y-40809050D01*
X98902304Y-40806648D01*
X98904705Y-40809050D01*
G37*
G36*
X98914312Y-40765820D02*
G01*
X98911910Y-40768222D01*
X98909509Y-40765820D01*
X98911910Y-40763418D01*
X98914312Y-40765820D01*
G37*
G36*
X98919115Y-40741804D02*
G01*
X98916714Y-40744205D01*
X98914312Y-40741804D01*
X98916714Y-40739402D01*
X98919115Y-40741804D01*
G37*
G36*
X105004932Y-41241350D02*
G01*
X105002530Y-41243751D01*
X105000129Y-41241350D01*
X105002530Y-41238948D01*
X105004932Y-41241350D01*
G37*
G36*
X98850346Y-41180407D02*
G01*
X98850919Y-41187914D01*
X98849967Y-41189614D01*
X98847784Y-41188181D01*
X98847444Y-41183309D01*
X98848618Y-41178184D01*
X98850346Y-41180407D01*
G37*
G36*
X98855150Y-41127571D02*
G01*
X98855722Y-41135078D01*
X98854771Y-41136777D01*
X98852587Y-41135345D01*
X98852248Y-41130473D01*
X98853421Y-41125348D01*
X98855150Y-41127571D01*
G37*
G36*
X98859874Y-41082039D02*
G01*
X98860449Y-41087740D01*
X98859874Y-41088444D01*
X98857019Y-41087784D01*
X98856672Y-41085241D01*
X98858429Y-41081288D01*
X98859874Y-41082039D01*
G37*
G36*
X98869481Y-41005186D02*
G01*
X98870056Y-41010886D01*
X98869481Y-41011590D01*
X98866625Y-41010931D01*
X98866279Y-41008388D01*
X98868036Y-41004435D01*
X98869481Y-41005186D01*
G37*
G36*
X98874284Y-40971563D02*
G01*
X98874859Y-40977263D01*
X98874284Y-40977967D01*
X98871429Y-40977308D01*
X98871082Y-40974765D01*
X98872839Y-40970811D01*
X98874284Y-40971563D01*
G37*
G36*
X105008134Y-41331812D02*
G01*
X105008709Y-41337513D01*
X105008134Y-41338217D01*
X105005279Y-41337557D01*
X105004932Y-41335015D01*
X105006690Y-41331061D01*
X105008134Y-41331812D01*
G37*
G36*
X98845659Y-41242606D02*
G01*
X98846432Y-41255122D01*
X98845562Y-41261820D01*
X98844264Y-41262943D01*
X98843535Y-41256045D01*
X98843473Y-41250956D01*
X98843946Y-41241654D01*
X98845031Y-41240243D01*
X98845659Y-41242606D01*
G37*
G36*
X98840989Y-41513939D02*
G01*
X98841723Y-41534081D01*
X98841275Y-41555251D01*
X98840989Y-41559570D01*
X98840252Y-41564888D01*
X98839662Y-41561490D01*
X98839287Y-41550267D01*
X98839190Y-41536754D01*
X98839349Y-41520080D01*
X98839778Y-41510540D01*
X98840408Y-41509026D01*
X98840989Y-41513939D01*
G37*
G36*
X98841005Y-41353188D02*
G01*
X98841711Y-41373426D01*
X98841393Y-41394338D01*
X98840983Y-41401221D01*
X98840266Y-41406251D01*
X98839690Y-41402600D01*
X98839319Y-41391193D01*
X98839213Y-41375843D01*
X98839370Y-41358799D01*
X98839778Y-41349020D01*
X98840374Y-41347317D01*
X98841005Y-41353188D01*
G37*
G36*
X99827039Y-41166003D02*
G01*
X99806115Y-41206703D01*
X99787899Y-41256228D01*
X99772503Y-41314154D01*
X99760036Y-41380058D01*
X99750610Y-41453517D01*
X99749886Y-41460773D01*
X99747160Y-41485146D01*
X99743871Y-41509205D01*
X99740548Y-41529259D01*
X99739011Y-41536754D01*
X99732963Y-41563173D01*
X99719413Y-41529549D01*
X99710345Y-41506496D01*
X99700592Y-41480860D01*
X99693758Y-41462303D01*
X99685321Y-41441746D01*
X99673904Y-41417654D01*
X99661695Y-41394591D01*
X99659204Y-41390253D01*
X99647608Y-41369208D01*
X99636713Y-41347390D01*
X99628449Y-41328715D01*
X99626887Y-41324631D01*
X99618369Y-41299388D01*
X99640123Y-41283319D01*
X99662673Y-41267236D01*
X99683454Y-41252652D01*
X99702467Y-41239609D01*
X99721644Y-41226493D01*
X99743643Y-41211383D01*
X99769010Y-41194178D01*
X99775124Y-41189608D01*
X99843855Y-41142626D01*
X99827039Y-41166003D01*
G37*
G36*
X103010980Y-44211181D02*
G01*
X103007043Y-44213366D01*
X103008520Y-44212429D01*
X103010800Y-44211013D01*
X103010980Y-44211181D01*
G37*
G36*
X102324402Y-43187520D02*
G01*
X102328102Y-43192902D01*
X102335809Y-43204765D01*
X102346448Y-43221438D01*
X102358945Y-43241248D01*
X102360883Y-43244338D01*
X102419984Y-43333855D01*
X102487549Y-43427358D01*
X102563401Y-43524636D01*
X102647361Y-43625478D01*
X102739253Y-43729675D01*
X102838899Y-43837016D01*
X102946122Y-43947289D01*
X102993696Y-43994748D01*
X103135655Y-44135137D01*
X103077871Y-44170070D01*
X103055714Y-44183499D01*
X103035472Y-44195828D01*
X103019092Y-44205868D01*
X103010800Y-44211013D01*
X102895982Y-44103738D01*
X102800660Y-44005047D01*
X102704232Y-43900247D01*
X102615965Y-43798218D01*
X102537061Y-43707563D01*
X102452228Y-43602819D01*
X102383504Y-43508445D01*
X102371700Y-43489320D01*
X102338964Y-43438956D01*
X102323474Y-43312406D01*
X102322951Y-43278606D01*
X102322708Y-43248411D01*
X102322737Y-43223011D01*
X102323029Y-43203596D01*
X102323575Y-43191357D01*
X102324366Y-43187484D01*
X102324402Y-43187520D01*
G37*
G36*
X101610291Y-40846559D02*
G01*
X101618559Y-40851603D01*
X101628103Y-40861092D01*
X101639645Y-40875914D01*
X101653910Y-40896956D01*
X101671621Y-40925104D01*
X101682579Y-40943085D01*
X101724259Y-41011998D01*
X101723993Y-41239552D01*
X101723727Y-41467106D01*
X101709583Y-41478279D01*
X101702621Y-41484419D01*
X101702404Y-41322925D01*
X101703399Y-41275714D01*
X101702061Y-41238324D01*
X101702651Y-41210870D01*
X101701409Y-41189660D01*
X101699023Y-41174442D01*
X101697616Y-41159475D01*
X101696248Y-41153691D01*
X101689356Y-41157388D01*
X101688822Y-41157291D01*
X101680190Y-41160673D01*
X101676883Y-41163704D01*
X101674934Y-41170036D01*
X101672168Y-41184596D01*
X101668781Y-41206057D01*
X101664972Y-41233094D01*
X101660936Y-41264381D01*
X101657055Y-41296996D01*
X101652599Y-41334928D01*
X101647868Y-41373380D01*
X101643144Y-41410194D01*
X101638707Y-41443211D01*
X101634838Y-41470272D01*
X101632717Y-41483918D01*
X101628574Y-41508748D01*
X101625205Y-41526105D01*
X101621842Y-41537999D01*
X101617714Y-41546438D01*
X101612053Y-41553432D01*
X101604088Y-41560990D01*
X101602723Y-41562227D01*
X101577101Y-41584654D01*
X101550379Y-41606668D01*
X101524235Y-41626999D01*
X101500345Y-41644376D01*
X101480387Y-41657528D01*
X101467889Y-41664382D01*
X101452619Y-41670481D01*
X101435279Y-41676093D01*
X101418494Y-41680541D01*
X101404890Y-41683145D01*
X101397093Y-41683228D01*
X101396421Y-41682845D01*
X101391325Y-41681842D01*
X101378615Y-41680256D01*
X101360250Y-41678310D01*
X101339830Y-41676376D01*
X101253357Y-41668535D01*
X101175882Y-41661373D01*
X101106826Y-41654836D01*
X101045609Y-41648864D01*
X100991651Y-41643402D01*
X100944372Y-41638394D01*
X100903193Y-41633781D01*
X100898086Y-41633188D01*
X100863134Y-41629369D01*
X100823537Y-41625463D01*
X100783726Y-41621882D01*
X100748134Y-41619042D01*
X100741978Y-41618604D01*
X100714049Y-41616463D01*
X100687925Y-41614092D01*
X100665820Y-41611718D01*
X100649951Y-41609569D01*
X100644944Y-41608626D01*
X100632976Y-41606655D01*
X100613714Y-41604377D01*
X100589456Y-41602028D01*
X100562500Y-41599841D01*
X100551279Y-41599052D01*
X100481949Y-41593403D01*
X100419938Y-41586141D01*
X100363048Y-41576962D01*
X100309081Y-41565561D01*
X100307909Y-41565283D01*
X100280526Y-41558275D01*
X100249694Y-41549577D01*
X100217161Y-41539764D01*
X100184674Y-41529411D01*
X100153983Y-41519096D01*
X100126834Y-41509395D01*
X100104976Y-41500882D01*
X100090157Y-41494135D01*
X100087511Y-41492643D01*
X100072430Y-41485782D01*
X100054546Y-41480668D01*
X100050307Y-41479915D01*
X100028727Y-41476713D01*
X100081219Y-41438286D01*
X100101145Y-41423239D01*
X100118523Y-41409260D01*
X100131690Y-41397746D01*
X100138988Y-41390094D01*
X100139585Y-41389172D01*
X100145652Y-41381677D01*
X100157327Y-41369995D01*
X100172723Y-41355945D01*
X100184339Y-41345981D01*
X100201986Y-41331012D01*
X100218088Y-41316969D01*
X100230411Y-41305820D01*
X100235227Y-41301169D01*
X100243234Y-41293888D01*
X100258047Y-41281367D01*
X100278875Y-41264247D01*
X100304927Y-41243166D01*
X100335412Y-41218763D01*
X100369539Y-41191679D01*
X100406515Y-41162552D01*
X100415352Y-41155622D01*
X100435849Y-41139680D01*
X100459826Y-41121226D01*
X100486129Y-41101132D01*
X100513599Y-41080266D01*
X100541083Y-41059498D01*
X100567422Y-41039699D01*
X100591462Y-41021738D01*
X100612046Y-41006486D01*
X100628018Y-40994812D01*
X100638223Y-40987586D01*
X100641110Y-40985740D01*
X100651793Y-40981892D01*
X100666954Y-40978354D01*
X100672330Y-40977446D01*
X100683335Y-40975741D01*
X100695168Y-40973762D01*
X100709377Y-40971223D01*
X100727513Y-40967836D01*
X100751126Y-40963314D01*
X100781767Y-40957370D01*
X100802020Y-40953420D01*
X100823654Y-40949413D01*
X100852695Y-40944352D01*
X100887046Y-40938583D01*
X100924612Y-40932457D01*
X100963294Y-40926320D01*
X100991751Y-40921923D01*
X101033429Y-40915516D01*
X101078805Y-40908450D01*
X101124951Y-40901189D01*
X101168940Y-40894194D01*
X101207843Y-40887927D01*
X101224713Y-40885171D01*
X101264391Y-40878868D01*
X101297399Y-40874226D01*
X101326476Y-40870978D01*
X101354363Y-40868859D01*
X101383800Y-40867604D01*
X101412043Y-40867017D01*
X101449240Y-40866165D01*
X101479283Y-40864629D01*
X101504614Y-40862195D01*
X101527675Y-40858649D01*
X101543462Y-40855458D01*
X101564892Y-40851010D01*
X101583903Y-40847514D01*
X101597819Y-40845441D01*
X101602574Y-40845075D01*
X101610291Y-40846559D01*
G37*
G36*
X104485668Y-41170765D02*
G01*
X104489410Y-41181907D01*
X104493477Y-41202628D01*
X104497869Y-41232917D01*
X104502583Y-41272762D01*
X104502823Y-41274973D01*
X104507816Y-41320480D01*
X104513533Y-41371673D01*
X104519795Y-41427018D01*
X104526425Y-41484987D01*
X104533245Y-41544047D01*
X104540075Y-41602669D01*
X104546737Y-41659320D01*
X104553054Y-41712471D01*
X104558847Y-41760590D01*
X104563937Y-41802146D01*
X104567963Y-41834176D01*
X104571932Y-41864698D01*
X104575225Y-41890767D01*
X104577629Y-41913428D01*
X104578934Y-41933726D01*
X104578928Y-41952707D01*
X104577400Y-41971417D01*
X104574140Y-41990901D01*
X104568934Y-42012204D01*
X104561574Y-42036373D01*
X104551847Y-42064452D01*
X104539542Y-42097488D01*
X104524448Y-42136526D01*
X104506354Y-42182612D01*
X104488329Y-42228434D01*
X104471563Y-42271212D01*
X104454599Y-42314648D01*
X104438069Y-42357117D01*
X104422603Y-42396993D01*
X104408832Y-42432651D01*
X104397386Y-42462464D01*
X104389574Y-42483010D01*
X104376738Y-42516892D01*
X104362110Y-42555280D01*
X104347246Y-42594106D01*
X104333699Y-42629304D01*
X104329900Y-42639128D01*
X104319772Y-42665669D01*
X104310697Y-42690182D01*
X104303344Y-42710807D01*
X104298380Y-42725680D01*
X104296675Y-42731720D01*
X104292105Y-42745836D01*
X104284800Y-42762337D01*
X104281962Y-42767735D01*
X104274219Y-42783255D01*
X104265461Y-42803111D01*
X104258835Y-42819740D01*
X104252084Y-42837085D01*
X104245888Y-42851812D01*
X104241676Y-42860569D01*
X104238046Y-42868176D01*
X104231693Y-42882845D01*
X104223409Y-42902695D01*
X104213985Y-42925848D01*
X104210509Y-42934523D01*
X104194633Y-42973668D01*
X104180805Y-43006102D01*
X104167903Y-43034183D01*
X104154806Y-43060267D01*
X104140391Y-43086714D01*
X104127081Y-43109844D01*
X104113879Y-43133457D01*
X104098421Y-43162801D01*
X104081683Y-43195858D01*
X104064640Y-43230608D01*
X104048266Y-43265034D01*
X104033536Y-43297117D01*
X104021425Y-43324838D01*
X104012908Y-43346179D01*
X104012778Y-43346535D01*
X104003361Y-43370306D01*
X103992823Y-43392055D01*
X103980101Y-43413320D01*
X103964131Y-43435639D01*
X103943852Y-43460550D01*
X103918201Y-43489590D01*
X103900876Y-43508464D01*
X103875916Y-43535617D01*
X103856488Y-43556684D01*
X103841237Y-43572277D01*
X103828808Y-43583011D01*
X103817849Y-43589498D01*
X103807110Y-43590872D01*
X103794989Y-43589243D01*
X103780093Y-43586562D01*
X103761469Y-43582196D01*
X103742041Y-43578521D01*
X103603958Y-43541741D01*
X103465552Y-43497082D01*
X103332054Y-43442655D01*
X103191054Y-43379359D01*
X103052591Y-43307615D01*
X102909489Y-43225926D01*
X102765203Y-43135939D01*
X102620491Y-43036103D01*
X102539519Y-42977459D01*
X102489430Y-42937333D01*
X102444110Y-42902311D01*
X102401858Y-42873374D01*
X102368200Y-42843281D01*
X102344859Y-42822886D01*
X102326608Y-42810007D01*
X102312695Y-42799429D01*
X102309694Y-42793610D01*
X102307915Y-42783749D01*
X102305664Y-42766619D01*
X102303214Y-42744528D01*
X102300839Y-42719785D01*
X102300573Y-42716757D01*
X102298173Y-42673344D01*
X102298372Y-42626688D01*
X102301262Y-42575628D01*
X102306937Y-42519000D01*
X102315490Y-42455644D01*
X102327016Y-42384398D01*
X102327591Y-42381070D01*
X102331733Y-42368119D01*
X102337823Y-42361177D01*
X102338491Y-42360934D01*
X102345277Y-42359574D01*
X102360138Y-42356968D01*
X102381658Y-42353353D01*
X102408418Y-42348964D01*
X102439004Y-42344036D01*
X102460369Y-42340640D01*
X102574448Y-42322603D01*
X102580543Y-42311105D01*
X102582643Y-42287892D01*
X102582754Y-42277833D01*
X102580985Y-42273080D01*
X102580251Y-42261488D01*
X102466144Y-42261142D01*
X102353766Y-42261537D01*
X102354362Y-42251249D01*
X102355897Y-42240442D01*
X102467643Y-42239152D01*
X102581135Y-42238545D01*
X102579323Y-42225926D01*
X102578308Y-42215838D01*
X102576588Y-42199594D01*
X102575016Y-42189965D01*
X102571774Y-42171122D01*
X102565554Y-42144406D01*
X102548826Y-42104170D01*
X102522850Y-42065662D01*
X102494828Y-42032667D01*
X102463988Y-42003817D01*
X102416568Y-41958796D01*
X102438611Y-41915668D01*
X102456978Y-41884011D01*
X102477225Y-41858716D01*
X102501585Y-41837637D01*
X102532296Y-41818626D01*
X102548147Y-41810486D01*
X102570761Y-41798207D01*
X102589434Y-41785797D01*
X102601683Y-41774914D01*
X102602093Y-41774426D01*
X102615228Y-41761778D01*
X102637042Y-41745157D01*
X102667480Y-41724599D01*
X102706491Y-41700139D01*
X102754021Y-41671811D01*
X102771384Y-41661726D01*
X102797458Y-41646636D01*
X102823245Y-41631657D01*
X102846460Y-41618122D01*
X102864814Y-41607363D01*
X102871622Y-41603342D01*
X102885623Y-41595391D01*
X102906256Y-41584146D01*
X102931575Y-41570644D01*
X102959638Y-41555920D01*
X102988499Y-41541012D01*
X102989303Y-41540600D01*
X103076396Y-41496015D01*
X103124429Y-41496682D01*
X103159513Y-41497272D01*
X103200734Y-41498135D01*
X103246656Y-41499229D01*
X103295841Y-41500509D01*
X103346853Y-41501932D01*
X103398255Y-41503454D01*
X103448611Y-41505032D01*
X103496484Y-41506621D01*
X103540437Y-41508179D01*
X103579033Y-41509660D01*
X103610837Y-41511022D01*
X103633582Y-41512173D01*
X103669916Y-41514098D01*
X103711604Y-41516053D01*
X103754398Y-41517854D01*
X103794047Y-41519316D01*
X103808903Y-41519790D01*
X103831867Y-41520485D01*
X103863046Y-41521440D01*
X103901052Y-41522611D01*
X103944498Y-41523957D01*
X103991997Y-41525433D01*
X104042162Y-41526997D01*
X104093605Y-41528606D01*
X104143473Y-41530170D01*
X104389181Y-41537889D01*
X104409094Y-41526697D01*
X104426647Y-41514637D01*
X104438229Y-41500507D01*
X104444857Y-41482183D01*
X104447546Y-41457539D01*
X104447746Y-41445828D01*
X104448332Y-41423434D01*
X104450611Y-41406643D01*
X104455360Y-41391496D01*
X104460860Y-41379148D01*
X104465500Y-41369019D01*
X104468955Y-41359614D01*
X104471452Y-41349223D01*
X104473220Y-41336135D01*
X104474487Y-41318641D01*
X104475481Y-41295030D01*
X104476431Y-41263593D01*
X104476471Y-41262162D01*
X104477426Y-41233732D01*
X104478579Y-41208661D01*
X104479833Y-41188509D01*
X104481091Y-41174840D01*
X104482254Y-41169213D01*
X104485668Y-41170765D01*
G37*
G36*
X100981626Y-38845075D02*
G01*
X100988506Y-38849638D01*
X101000861Y-38860223D01*
X101017659Y-38875782D01*
X101037873Y-38895267D01*
X101060473Y-38917630D01*
X101084429Y-38941823D01*
X101108712Y-38966797D01*
X101132292Y-38991504D01*
X101154141Y-39014896D01*
X101173228Y-39035925D01*
X101188524Y-39053543D01*
X101198133Y-39065529D01*
X101209231Y-39079243D01*
X101225925Y-39098385D01*
X101246989Y-39121618D01*
X101271194Y-39147610D01*
X101297313Y-39175024D01*
X101323932Y-39202337D01*
X101362296Y-39241710D01*
X101395404Y-39276695D01*
X101422969Y-39306955D01*
X101444704Y-39332155D01*
X101460322Y-39351957D01*
X101469536Y-39366026D01*
X101472058Y-39374024D01*
X101471459Y-39375197D01*
X101463021Y-39380042D01*
X101447436Y-39386285D01*
X101426936Y-39393241D01*
X101403755Y-39400229D01*
X101380123Y-39406565D01*
X101358273Y-39411566D01*
X101344614Y-39414000D01*
X101319844Y-39416659D01*
X101292695Y-39417555D01*
X101261778Y-39416605D01*
X101225704Y-39413730D01*
X101183086Y-39408850D01*
X101132534Y-39401885D01*
X101131048Y-39401667D01*
X101096221Y-39396636D01*
X101069553Y-39393079D01*
X101049706Y-39391004D01*
X101035346Y-39390417D01*
X101025137Y-39391326D01*
X101017742Y-39393738D01*
X101011825Y-39397659D01*
X101006816Y-39402330D01*
X100997616Y-39414803D01*
X100994290Y-39429969D01*
X100994153Y-39435252D01*
X100994361Y-39443753D01*
X100995520Y-39451214D01*
X100998436Y-39458355D01*
X101003913Y-39465896D01*
X101012754Y-39474558D01*
X101025765Y-39485062D01*
X101043749Y-39498127D01*
X101067511Y-39514474D01*
X101097856Y-39534824D01*
X101126871Y-39554110D01*
X101154778Y-39572735D01*
X101181378Y-39590672D01*
X101205147Y-39606878D01*
X101224558Y-39620310D01*
X101238086Y-39629927D01*
X101241543Y-39632498D01*
X101251862Y-39640098D01*
X101268693Y-39652167D01*
X101290640Y-39667720D01*
X101316306Y-39685769D01*
X101344296Y-39705328D01*
X101364429Y-39719325D01*
X101392374Y-39738774D01*
X101418196Y-39756868D01*
X101440682Y-39772748D01*
X101458623Y-39785556D01*
X101470805Y-39794433D01*
X101475514Y-39798062D01*
X101488093Y-39808401D01*
X101498068Y-39816289D01*
X101502751Y-39820142D01*
X101504083Y-39822791D01*
X101500773Y-39824593D01*
X101491530Y-39825903D01*
X101475064Y-39827079D01*
X101454838Y-39828215D01*
X101425252Y-39830193D01*
X101387790Y-39833273D01*
X101344098Y-39837291D01*
X101295823Y-39842082D01*
X101244611Y-39847481D01*
X101192109Y-39853324D01*
X101139963Y-39859446D01*
X101128646Y-39860821D01*
X101093600Y-39864729D01*
X101053795Y-39868566D01*
X101013699Y-39871933D01*
X100977780Y-39874434D01*
X100971663Y-39874786D01*
X100943727Y-39876570D01*
X100917746Y-39878682D01*
X100895873Y-39880915D01*
X100880263Y-39883059D01*
X100875136Y-39884122D01*
X100846196Y-39896808D01*
X100820109Y-39918191D01*
X100797467Y-39947633D01*
X100778863Y-39984494D01*
X100776485Y-39990552D01*
X100767257Y-40014673D01*
X100755847Y-40044182D01*
X100742713Y-40077925D01*
X100728310Y-40114748D01*
X100713095Y-40153499D01*
X100697523Y-40193024D01*
X100682050Y-40232171D01*
X100667133Y-40269786D01*
X100653228Y-40304716D01*
X100640791Y-40335808D01*
X100630277Y-40361909D01*
X100622144Y-40381865D01*
X100616846Y-40394524D01*
X100615546Y-40397453D01*
X100610379Y-40407886D01*
X100604789Y-40416843D01*
X100597663Y-40425185D01*
X100587886Y-40433773D01*
X100574343Y-40443468D01*
X100555920Y-40455131D01*
X100531501Y-40469623D01*
X100499974Y-40487805D01*
X100494607Y-40490879D01*
X100465912Y-40507378D01*
X100436552Y-40524390D01*
X100408936Y-40540511D01*
X100385471Y-40554336D01*
X100372122Y-40562307D01*
X100349892Y-40575525D01*
X100322954Y-40591266D01*
X100294999Y-40607387D01*
X100273778Y-40619455D01*
X100225692Y-40650334D01*
X100184762Y-40684480D01*
X100151881Y-40721078D01*
X100134621Y-40746869D01*
X100118096Y-40774874D01*
X100104855Y-40795807D01*
X100093733Y-40811108D01*
X100083567Y-40822221D01*
X100073190Y-40830586D01*
X100061439Y-40837645D01*
X100061169Y-40837790D01*
X100045824Y-40846110D01*
X100023601Y-40858314D01*
X99995929Y-40873602D01*
X99964237Y-40891178D01*
X99929956Y-40910243D01*
X99894515Y-40930001D01*
X99859343Y-40949654D01*
X99825870Y-40968403D01*
X99795526Y-40985453D01*
X99769740Y-41000004D01*
X99749941Y-41011259D01*
X99740484Y-41016707D01*
X99722576Y-41027165D01*
X99698722Y-41041144D01*
X99671246Y-41057277D01*
X99642475Y-41074201D01*
X99621239Y-41086711D01*
X99542822Y-41132947D01*
X99516951Y-41079073D01*
X99497861Y-41034845D01*
X99483559Y-40990847D01*
X99473844Y-40945478D01*
X99468517Y-40897138D01*
X99467377Y-40844228D01*
X99470223Y-40785148D01*
X99474466Y-40739402D01*
X99477494Y-40704048D01*
X99479931Y-40660936D01*
X99481776Y-40611821D01*
X99483025Y-40558462D01*
X99483675Y-40502616D01*
X99483724Y-40446040D01*
X99483169Y-40390492D01*
X99482008Y-40337729D01*
X99480237Y-40289509D01*
X99477854Y-40247589D01*
X99475280Y-40217608D01*
X99472281Y-40187460D01*
X99470564Y-40164488D01*
X99470099Y-40146349D01*
X99470857Y-40130703D01*
X99472807Y-40115209D01*
X99473902Y-40108604D01*
X99483675Y-40070226D01*
X99499208Y-40037153D01*
X99521379Y-40008328D01*
X99551067Y-39982693D01*
X99589151Y-39959190D01*
X99604582Y-39951294D01*
X99650141Y-39927227D01*
X99691119Y-39901549D01*
X99729017Y-39872957D01*
X99765334Y-39840149D01*
X99801569Y-39801820D01*
X99839221Y-39756669D01*
X99861195Y-39728301D01*
X99890485Y-39689702D01*
X99915376Y-39657016D01*
X99937118Y-39628651D01*
X99956961Y-39603017D01*
X99976153Y-39578523D01*
X99995945Y-39553579D01*
X100017586Y-39526592D01*
X100042326Y-39495974D01*
X100071414Y-39460132D01*
X100084196Y-39444409D01*
X100108947Y-39413896D01*
X100132215Y-39385074D01*
X100153182Y-39358967D01*
X100171029Y-39336598D01*
X100184939Y-39318991D01*
X100194094Y-39307169D01*
X100197015Y-39303207D01*
X100209952Y-39285081D01*
X100226695Y-39262370D01*
X100246191Y-39236433D01*
X100267384Y-39208628D01*
X100289222Y-39180316D01*
X100310648Y-39152853D01*
X100330610Y-39127601D01*
X100348051Y-39105917D01*
X100361919Y-39089160D01*
X100371158Y-39078689D01*
X100371460Y-39078375D01*
X100383906Y-39065889D01*
X100395308Y-39055737D01*
X100407187Y-39047127D01*
X100421066Y-39039264D01*
X100438464Y-39031355D01*
X100460904Y-39022605D01*
X100489907Y-39012219D01*
X100514548Y-39003682D01*
X100544579Y-38993280D01*
X100581115Y-38980525D01*
X100621618Y-38966307D01*
X100663552Y-38951519D01*
X100704380Y-38937053D01*
X100727568Y-38928799D01*
X100764218Y-38915728D01*
X100801429Y-38902460D01*
X100837188Y-38889713D01*
X100869480Y-38878203D01*
X100896293Y-38868650D01*
X100911978Y-38863064D01*
X100940828Y-38853357D01*
X100962784Y-38847187D01*
X100977131Y-38844738D01*
X100981626Y-38845075D01*
G37*
G36*
X100381203Y-41836798D02*
G01*
X100395483Y-41843048D01*
X100415431Y-41852621D01*
X100439694Y-41864826D01*
X100466919Y-41878973D01*
X100495753Y-41894371D01*
X100524840Y-41910329D01*
X100547443Y-41923069D01*
X100570906Y-41936171D01*
X100600113Y-41952018D01*
X100632206Y-41969086D01*
X100664323Y-41985847D01*
X100683611Y-41995729D01*
X100712369Y-42010583D01*
X100741143Y-42025887D01*
X100767647Y-42040393D01*
X100789591Y-42052853D01*
X100801957Y-42060278D01*
X100820590Y-42071362D01*
X100844946Y-42085004D01*
X100872092Y-42099602D01*
X100899094Y-42113551D01*
X100903555Y-42115791D01*
X100928728Y-42128709D01*
X100959505Y-42145037D01*
X100993205Y-42163320D01*
X101027146Y-42182105D01*
X101056596Y-42198761D01*
X101086307Y-42215734D01*
X101110507Y-42229011D01*
X101130966Y-42238938D01*
X101149455Y-42245862D01*
X101167744Y-42250132D01*
X101187605Y-42252093D01*
X101210807Y-42252093D01*
X101239123Y-42250480D01*
X101274322Y-42247600D01*
X101296014Y-42245711D01*
X101333702Y-42243010D01*
X101378052Y-42240791D01*
X101426126Y-42239160D01*
X101474989Y-42238224D01*
X101506160Y-42238040D01*
X101634891Y-42238040D01*
X101634891Y-42234583D01*
X101634891Y-42216891D01*
X101637988Y-42214074D01*
X101640201Y-42214024D01*
X101652209Y-42214024D01*
X101652209Y-42317295D01*
X101652209Y-42420567D01*
X101738669Y-42420567D01*
X101825129Y-42420567D01*
X101825129Y-42307689D01*
X101825129Y-42194810D01*
X101837137Y-42194810D01*
X101849145Y-42194810D01*
X101849145Y-42420567D01*
X101849145Y-42646323D01*
X101873115Y-42646323D01*
X101897085Y-42646323D01*
X101898333Y-42419366D01*
X101899580Y-42192409D01*
X101909187Y-42206590D01*
X101912451Y-42212158D01*
X101914925Y-42218864D01*
X101916747Y-42228105D01*
X101918053Y-42241282D01*
X101918978Y-42259794D01*
X101919659Y-42285040D01*
X101920232Y-42318419D01*
X101920262Y-42320427D01*
X101924559Y-42422044D01*
X101946680Y-42421526D01*
X101961579Y-42422925D01*
X101969387Y-42425669D01*
X101972619Y-42430920D01*
X101973165Y-42433776D01*
X101973245Y-42440139D01*
X101969627Y-42443350D01*
X101963856Y-42443268D01*
X101951917Y-42443433D01*
X101928539Y-42443102D01*
X101927068Y-42512989D01*
X101928400Y-42581395D01*
X101941955Y-42583838D01*
X101955510Y-42586282D01*
X101940997Y-42607897D01*
X101932319Y-42619104D01*
X101918405Y-42635112D01*
X101900942Y-42654059D01*
X101881616Y-42674086D01*
X101874605Y-42681124D01*
X101854714Y-42700825D01*
X101840163Y-42714742D01*
X101829494Y-42723880D01*
X101821251Y-42729246D01*
X101813977Y-42731845D01*
X101806215Y-42732683D01*
X101799808Y-42732760D01*
X101788215Y-42733177D01*
X101780001Y-42735434D01*
X101774129Y-42741084D01*
X101769559Y-42751677D01*
X101765251Y-42768766D01*
X101760708Y-42791140D01*
X101755357Y-42812504D01*
X101747079Y-42835443D01*
X101734971Y-42862205D01*
X101721666Y-42888361D01*
X101709549Y-42911573D01*
X101699603Y-42931293D01*
X101691082Y-42949331D01*
X101683237Y-42967496D01*
X101675324Y-42987600D01*
X101666595Y-43011453D01*
X101656304Y-43040864D01*
X101644190Y-43076221D01*
X101624956Y-43130000D01*
X101605527Y-43178270D01*
X101585028Y-43222356D01*
X101562579Y-43263585D01*
X101537306Y-43303281D01*
X101508328Y-43342771D01*
X101474771Y-43383381D01*
X101435755Y-43426435D01*
X101390405Y-43473259D01*
X101364009Y-43499555D01*
X101337880Y-43525330D01*
X101317420Y-43545101D01*
X101301366Y-43559514D01*
X101288458Y-43569218D01*
X101277432Y-43574860D01*
X101267026Y-43577089D01*
X101255980Y-43576551D01*
X101243031Y-43573895D01*
X101227114Y-43569818D01*
X101211730Y-43565701D01*
X101200563Y-43562395D01*
X101201792Y-43559517D01*
X101202290Y-43559185D01*
X101209585Y-43549071D01*
X101221192Y-43536635D01*
X101220694Y-43536635D01*
X101228653Y-43526189D01*
X101240890Y-43511083D01*
X101260455Y-43488201D01*
X101278859Y-43463330D01*
X101297596Y-43438459D01*
X101302570Y-43431164D01*
X101366239Y-43347597D01*
X101429325Y-43258793D01*
X101473086Y-43189024D01*
X101522343Y-43098623D01*
X101568063Y-43006772D01*
X101600405Y-42932997D01*
X101627869Y-42865936D01*
X101647323Y-42800829D01*
X101658318Y-42737295D01*
X101662518Y-42707007D01*
X101661523Y-42698607D01*
X101659755Y-42694517D01*
X101654117Y-42689764D01*
X101644390Y-42684458D01*
X101636927Y-42681433D01*
X101622369Y-42686739D01*
X101605570Y-42697122D01*
X101585029Y-42712733D01*
X101577645Y-42719043D01*
X101453874Y-42824035D01*
X101330592Y-42922914D01*
X101208588Y-43015093D01*
X101088653Y-43099983D01*
X100971576Y-43176996D01*
X100919701Y-43209127D01*
X100897510Y-43222444D01*
X100872264Y-43237343D01*
X100845339Y-43253040D01*
X100818111Y-43268750D01*
X100791957Y-43283688D01*
X100768251Y-43297069D01*
X100748370Y-43308108D01*
X100733690Y-43316020D01*
X100725587Y-43320021D01*
X100724788Y-43320308D01*
X100720168Y-43317639D01*
X100709837Y-43309710D01*
X100695233Y-43297678D01*
X100677793Y-43282703D01*
X100674107Y-43279471D01*
X100615810Y-43230948D01*
X100555362Y-43185806D01*
X100495591Y-43146107D01*
X100471208Y-43131459D01*
X100443579Y-43115040D01*
X100416079Y-43097833D01*
X100387910Y-43079247D01*
X100358276Y-43058689D01*
X100326379Y-43035567D01*
X100291422Y-43009290D01*
X100252607Y-42979264D01*
X100209138Y-42944899D01*
X100160216Y-42905602D01*
X100105045Y-42860781D01*
X100088445Y-42847222D01*
X100073885Y-42835477D01*
X100053616Y-42819345D01*
X100029524Y-42800317D01*
X100003497Y-42779883D01*
X99978249Y-42760178D01*
X99953233Y-42740614D01*
X99929366Y-42721756D01*
X99908239Y-42704877D01*
X99891443Y-42691248D01*
X99880567Y-42682139D01*
X99880137Y-42681764D01*
X99867755Y-42670892D01*
X99850619Y-42655816D01*
X99831179Y-42638694D01*
X99815292Y-42624687D01*
X99794515Y-42606432D01*
X99772786Y-42587463D01*
X99753093Y-42570380D01*
X99741782Y-42560651D01*
X99711859Y-42535064D01*
X99802228Y-42444583D01*
X99805708Y-42441099D01*
X101674387Y-42441099D01*
X101681240Y-42479408D01*
X101683684Y-42514501D01*
X101690941Y-42541592D01*
X101703614Y-42561312D01*
X101722303Y-42574294D01*
X101750439Y-42584570D01*
X101782326Y-42585988D01*
X101824891Y-42581478D01*
X101824891Y-42513031D01*
X101825193Y-42443809D01*
X101751464Y-42443588D01*
X101689677Y-42441071D01*
X101674387Y-42441099D01*
X99805708Y-42441099D01*
X99854660Y-42392086D01*
X99911613Y-42334925D01*
X99961951Y-42284094D01*
X99983597Y-42262057D01*
X101167073Y-42262057D01*
X101167076Y-42292078D01*
X101167078Y-42322099D01*
X101391631Y-42358897D01*
X101437007Y-42366322D01*
X101479564Y-42373263D01*
X101518346Y-42379567D01*
X101552399Y-42385078D01*
X101580768Y-42389644D01*
X101602497Y-42393110D01*
X101616632Y-42395322D01*
X101622188Y-42396123D01*
X101624708Y-42393838D01*
X101634891Y-42394583D01*
X101634891Y-42371102D01*
X101634891Y-42348510D01*
X101634891Y-42329304D01*
X101634891Y-42262057D01*
X101397633Y-42262057D01*
X101167073Y-42262057D01*
X99983597Y-42262057D01*
X100005984Y-42239265D01*
X100044020Y-42200107D01*
X100076368Y-42166292D01*
X100103337Y-42137490D01*
X100125237Y-42113371D01*
X100142375Y-42093606D01*
X100155060Y-42077865D01*
X100163602Y-42065818D01*
X100168100Y-42057638D01*
X100175709Y-42042931D01*
X100187205Y-42024203D01*
X100200433Y-42004906D01*
X100204073Y-41999978D01*
X100214992Y-41986675D01*
X100230325Y-41969639D01*
X100248907Y-41950005D01*
X100269571Y-41928910D01*
X100291151Y-41907488D01*
X100312482Y-41886875D01*
X100332397Y-41868207D01*
X100349730Y-41852618D01*
X100363315Y-41841245D01*
X100371987Y-41835223D01*
X100373947Y-41834561D01*
X100381203Y-41836798D01*
G37*
G36*
X102756184Y-38912256D02*
G01*
X102793439Y-38918034D01*
X102834480Y-38928083D01*
X102880433Y-38942575D01*
X102932423Y-38961680D01*
X102988453Y-38984270D01*
X103060230Y-39013373D01*
X103127065Y-39038776D01*
X103192267Y-39061703D01*
X103241557Y-39077841D01*
X103271810Y-39087886D01*
X103307587Y-39100443D01*
X103345554Y-39114302D01*
X103382380Y-39128253D01*
X103405424Y-39137317D01*
X103437688Y-39150204D01*
X103471583Y-39163653D01*
X103504337Y-39176570D01*
X103533179Y-39187864D01*
X103551637Y-39195018D01*
X103573850Y-39203765D01*
X103593045Y-39211696D01*
X103607294Y-39217988D01*
X103614668Y-39221819D01*
X103614954Y-39222036D01*
X103619257Y-39228744D01*
X103625235Y-39242008D01*
X103631729Y-39259205D01*
X103632963Y-39262812D01*
X103638920Y-39281333D01*
X103641787Y-39293488D01*
X103641840Y-39301906D01*
X103639354Y-39309218D01*
X103638081Y-39311730D01*
X103634342Y-39320144D01*
X103627946Y-39335994D01*
X103619511Y-39357685D01*
X103609656Y-39383622D01*
X103598999Y-39412210D01*
X103596966Y-39417725D01*
X103585312Y-39449705D01*
X103576803Y-39473967D01*
X103571099Y-39491742D01*
X103567858Y-39504265D01*
X103566740Y-39512769D01*
X103567406Y-39518487D01*
X103568467Y-39520996D01*
X103574624Y-39528115D01*
X103587159Y-39539649D01*
X103604620Y-39554453D01*
X103625555Y-39571377D01*
X103648510Y-39589275D01*
X103672033Y-39606998D01*
X103694671Y-39623400D01*
X103714971Y-39637333D01*
X103719362Y-39640200D01*
X103754058Y-39662576D01*
X103781789Y-39755480D01*
X103790817Y-39785797D01*
X103799408Y-39814782D01*
X103806989Y-39840494D01*
X103812989Y-39860991D01*
X103816835Y-39874330D01*
X103816969Y-39874803D01*
X103820855Y-39887141D01*
X103827517Y-39906721D01*
X103836338Y-39931799D01*
X103846700Y-39960629D01*
X103857988Y-39991466D01*
X103862142Y-40002675D01*
X103874308Y-40035939D01*
X103886346Y-40069843D01*
X103897471Y-40102100D01*
X103906896Y-40130422D01*
X103913834Y-40152520D01*
X103914862Y-40156022D01*
X103926761Y-40193454D01*
X103938614Y-40222548D01*
X103951083Y-40244548D01*
X103964828Y-40260696D01*
X103974618Y-40268547D01*
X103990728Y-40278357D01*
X104007557Y-40285584D01*
X104027656Y-40291009D01*
X104053577Y-40295411D01*
X104068948Y-40297404D01*
X104103026Y-40302439D01*
X104129474Y-40308628D01*
X104150253Y-40316618D01*
X104167328Y-40327060D01*
X104173389Y-40331920D01*
X104183643Y-40339827D01*
X104194352Y-40345538D01*
X104208097Y-40349996D01*
X104227459Y-40354146D01*
X104240591Y-40356493D01*
X104262975Y-40360995D01*
X104283470Y-40366252D01*
X104299101Y-40371449D01*
X104304630Y-40374034D01*
X104314905Y-40379153D01*
X104331997Y-40386731D01*
X104353732Y-40395841D01*
X104377938Y-40405556D01*
X104384166Y-40407988D01*
X104418578Y-40421963D01*
X104444463Y-40434177D01*
X104462562Y-40445388D01*
X104473619Y-40456355D01*
X104478377Y-40467836D01*
X104477579Y-40480590D01*
X104471966Y-40495374D01*
X104471223Y-40496884D01*
X104465722Y-40505886D01*
X104457334Y-40516025D01*
X104445239Y-40528018D01*
X104428618Y-40542576D01*
X104406651Y-40560416D01*
X104378520Y-40582252D01*
X104343404Y-40608798D01*
X104339671Y-40611594D01*
X104330365Y-40619438D01*
X104315732Y-40632841D01*
X104297155Y-40650485D01*
X104276016Y-40671056D01*
X104253699Y-40693237D01*
X104250810Y-40696144D01*
X104222492Y-40724187D01*
X104199423Y-40745869D01*
X104180561Y-40762089D01*
X104164865Y-40773748D01*
X104152341Y-40781209D01*
X104125082Y-40793707D01*
X104091016Y-40806841D01*
X104052811Y-40819679D01*
X104013139Y-40831290D01*
X103996233Y-40835688D01*
X103980556Y-40839834D01*
X103957039Y-40846367D01*
X103927038Y-40854890D01*
X103891908Y-40865008D01*
X103853003Y-40876324D01*
X103811680Y-40888442D01*
X103769293Y-40900966D01*
X103727198Y-40913500D01*
X103686749Y-40925647D01*
X103649303Y-40937013D01*
X103643189Y-40938883D01*
X103606838Y-40949771D01*
X103562561Y-40962621D01*
X103511749Y-40977042D01*
X103455789Y-40992643D01*
X103396071Y-41009032D01*
X103345382Y-41022755D01*
X103296699Y-41036236D01*
X103256688Y-41048268D01*
X103224592Y-41059239D01*
X103199652Y-41069539D01*
X103181113Y-41079555D01*
X103168216Y-41089677D01*
X103160205Y-41100293D01*
X103156321Y-41111791D01*
X103155651Y-41120111D01*
X103159544Y-41137954D01*
X103171262Y-41160737D01*
X103190867Y-41188550D01*
X103218420Y-41221485D01*
X103235899Y-41240657D01*
X103252490Y-41258907D01*
X103266021Y-41274728D01*
X103275583Y-41286963D01*
X103280268Y-41294453D01*
X103279505Y-41296164D01*
X103275025Y-41293898D01*
X103263441Y-41287873D01*
X103246146Y-41278817D01*
X103224532Y-41267460D01*
X103203684Y-41256478D01*
X103164190Y-41235525D01*
X103132495Y-41218408D01*
X103107804Y-41204668D01*
X103089321Y-41193849D01*
X103076252Y-41185492D01*
X103067800Y-41179139D01*
X103065286Y-41176806D01*
X103058653Y-41171471D01*
X103044341Y-41161083D01*
X103022693Y-41145876D01*
X102994050Y-41126086D01*
X102958753Y-41101947D01*
X102917145Y-41073694D01*
X102869567Y-41041562D01*
X102821819Y-41009450D01*
X102791104Y-40989309D01*
X102754585Y-40966144D01*
X102714865Y-40941573D01*
X102674552Y-40917215D01*
X102649524Y-40902415D01*
X102630991Y-40890345D01*
X102610277Y-40875037D01*
X102593165Y-40860919D01*
X102552870Y-40828390D01*
X102506211Y-40796805D01*
X102452483Y-40765773D01*
X102390981Y-40734902D01*
X102320999Y-40703802D01*
X102278714Y-40686486D01*
X102259218Y-40678366D01*
X102234938Y-40667756D01*
X102209734Y-40656359D01*
X102197057Y-40650457D01*
X102151452Y-40629692D01*
X102112360Y-40613554D01*
X102078233Y-40601445D01*
X102049501Y-40593248D01*
X102030292Y-40587755D01*
X102012604Y-40581475D01*
X102001468Y-40576382D01*
X101991180Y-40571676D01*
X101973938Y-40565001D01*
X101951981Y-40557181D01*
X101927549Y-40549035D01*
X101922634Y-40547462D01*
X101859227Y-40527315D01*
X101889010Y-40507024D01*
X101907104Y-40494971D01*
X101929476Y-40480456D01*
X101952202Y-40466017D01*
X101959622Y-40461383D01*
X101980250Y-40448374D01*
X102000687Y-40435149D01*
X102017638Y-40423850D01*
X102023064Y-40420098D01*
X102043645Y-40407913D01*
X102070533Y-40395291D01*
X102100582Y-40383513D01*
X102130648Y-40373857D01*
X102146952Y-40369712D01*
X102160676Y-40367547D01*
X102181753Y-40365334D01*
X102207931Y-40363261D01*
X102236960Y-40361512D01*
X102257428Y-40360594D01*
X102292287Y-40359014D01*
X102318985Y-40356973D01*
X102338965Y-40354003D01*
X102353673Y-40349634D01*
X102364553Y-40343398D01*
X102373050Y-40334828D01*
X102380610Y-40323453D01*
X102382578Y-40320017D01*
X102386710Y-40312136D01*
X102389533Y-40304494D01*
X102391202Y-40295257D01*
X102391872Y-40282595D01*
X102391702Y-40264676D01*
X102390845Y-40239667D01*
X102390388Y-40228321D01*
X102388900Y-40200144D01*
X102386693Y-40169017D01*
X102383961Y-40136815D01*
X102380894Y-40105415D01*
X102377685Y-40076692D01*
X102374526Y-40052522D01*
X102371607Y-40034781D01*
X102369846Y-40027308D01*
X102369976Y-40020366D01*
X102372437Y-40018903D01*
X102383743Y-40021763D01*
X102399377Y-40029206D01*
X102416407Y-40039522D01*
X102431899Y-40051002D01*
X102439471Y-40057979D01*
X102445402Y-40065727D01*
X102455621Y-40080876D01*
X102469572Y-40102533D01*
X102486698Y-40129804D01*
X102506443Y-40161794D01*
X102528250Y-40197608D01*
X102551565Y-40236354D01*
X102575829Y-40277136D01*
X102576520Y-40278304D01*
X102600316Y-40318441D01*
X102622714Y-40356039D01*
X102643227Y-40390288D01*
X102661365Y-40420382D01*
X102676638Y-40445513D01*
X102688559Y-40464872D01*
X102696638Y-40477652D01*
X102700386Y-40483045D01*
X102700509Y-40483150D01*
X102707480Y-40482954D01*
X102714523Y-40479734D01*
X102715112Y-40467280D01*
X102714080Y-40460648D01*
X102712091Y-40439204D01*
X102709976Y-40410346D01*
X102706328Y-40373758D01*
X102702352Y-40331632D01*
X102698944Y-40286026D01*
X102696142Y-40257187D01*
X102690414Y-40198979D01*
X102685195Y-40148375D01*
X102681374Y-40106325D01*
X102678565Y-40070125D01*
X102676797Y-40042159D01*
X102674274Y-40016079D01*
X102673194Y-39999326D01*
X102673395Y-39984487D01*
X102675937Y-39973323D01*
X102679364Y-39963485D01*
X102682017Y-39955747D01*
X102685886Y-39945799D01*
X102694729Y-39926234D01*
X102698929Y-39920817D01*
X102709983Y-39904347D01*
X102720595Y-39892520D01*
X102725227Y-39887562D01*
X102740264Y-39877564D01*
X102761781Y-39863777D01*
X102788889Y-39846756D01*
X102820694Y-39827058D01*
X102856306Y-39805237D01*
X102894835Y-39781849D01*
X102935388Y-39757449D01*
X102935936Y-39757121D01*
X102986814Y-39726523D01*
X103029666Y-39700473D01*
X103064814Y-39678766D01*
X103092578Y-39661194D01*
X103113343Y-39649248D01*
X103127861Y-39639741D01*
X103135967Y-39633035D01*
X103144891Y-39628632D01*
X103135103Y-39624583D01*
X103130808Y-39623603D01*
X103127124Y-39622571D01*
X103114565Y-39621961D01*
X103093757Y-39623948D01*
X103067061Y-39626523D01*
X103035702Y-39629566D01*
X103000904Y-39632956D01*
X102963891Y-39636574D01*
X102925887Y-39640299D01*
X102888117Y-39644012D01*
X102851804Y-39647593D01*
X102818173Y-39650922D01*
X102788448Y-39653880D01*
X102763853Y-39656345D01*
X102745612Y-39658199D01*
X102740163Y-39658764D01*
X102701673Y-39662262D01*
X102670866Y-39663695D01*
X102646021Y-39662943D01*
X102625412Y-39659886D01*
X102607430Y-39652313D01*
X102597400Y-39648356D01*
X102578830Y-39635423D01*
X102563244Y-39624811D01*
X102553959Y-39615029D01*
X102546497Y-39606904D01*
X102536383Y-39592313D01*
X102522290Y-39569929D01*
X102505212Y-39543069D01*
X102485606Y-39510773D01*
X102464530Y-39475548D01*
X102441506Y-39436090D01*
X102417325Y-39395304D01*
X102416506Y-39393406D01*
X102391920Y-39351989D01*
X102370620Y-39314567D01*
X102349691Y-39280156D01*
X102331558Y-39248565D01*
X102316132Y-39224123D01*
X102298310Y-39196053D01*
X102295160Y-39192903D01*
X102288194Y-39192730D01*
X102282439Y-39196674D01*
X102281355Y-39201136D01*
X102281785Y-39207467D01*
X102283054Y-39222403D01*
X102285072Y-39244986D01*
X102287751Y-39274259D01*
X102291003Y-39309264D01*
X102294740Y-39349045D01*
X102298872Y-39392643D01*
X102303312Y-39439101D01*
X102303819Y-39444382D01*
X102309285Y-39501505D01*
X102313809Y-39549938D01*
X102317376Y-39590552D01*
X102319972Y-39624220D01*
X102321581Y-39651814D01*
X102322188Y-39674205D01*
X102321779Y-39692265D01*
X102320337Y-39706866D01*
X102317850Y-39718879D01*
X102314300Y-39729178D01*
X102309674Y-39738632D01*
X102303957Y-39748115D01*
X102298447Y-39756518D01*
X102285816Y-39772934D01*
X102271318Y-39788041D01*
X102261968Y-39795731D01*
X102242615Y-39809142D01*
X102171552Y-39739902D01*
X102147244Y-39716272D01*
X102122592Y-39692406D01*
X102099406Y-39670049D01*
X102079497Y-39650947D01*
X102064880Y-39637038D01*
X102048071Y-39620001D01*
X102032728Y-39602389D01*
X102021164Y-39586946D01*
X102017504Y-39580858D01*
X102005737Y-39558301D01*
X102018705Y-39526726D01*
X102025228Y-39509486D01*
X102029886Y-39494596D01*
X102031672Y-39485268D01*
X102031672Y-39485245D01*
X102034005Y-39476058D01*
X102040081Y-39461998D01*
X102047462Y-39448115D01*
X102060367Y-39424097D01*
X102075962Y-39392083D01*
X102093774Y-39353149D01*
X102113329Y-39308370D01*
X102134153Y-39258821D01*
X102155773Y-39205577D01*
X102168890Y-39172406D01*
X102182875Y-39136680D01*
X102193869Y-39108713D01*
X102202406Y-39087330D01*
X102209025Y-39071354D01*
X102214261Y-39059610D01*
X102218652Y-39050922D01*
X102222732Y-39044114D01*
X102227040Y-39038010D01*
X102232111Y-39031434D01*
X102234765Y-39028034D01*
X102252243Y-39010476D01*
X102274302Y-38997834D01*
X102302792Y-38989203D01*
X102320658Y-38986014D01*
X102361091Y-38979962D01*
X102393409Y-38974905D01*
X102419020Y-38970576D01*
X102439333Y-38966707D01*
X102455755Y-38963029D01*
X102469696Y-38959275D01*
X102482395Y-38955234D01*
X102503963Y-38949262D01*
X102529746Y-38944077D01*
X102554358Y-38940753D01*
X102555586Y-38940644D01*
X102578641Y-38937844D01*
X102601908Y-38933669D01*
X102620759Y-38928966D01*
X102622504Y-38928407D01*
X102655875Y-38918823D01*
X102688528Y-38912822D01*
X102721589Y-38910575D01*
X102756184Y-38912256D01*
G37*
%TD*%
D11*
%TO.C,R2*%
X75175000Y-81500000D03*
X76825000Y-81500000D03*
%TD*%
D12*
%TO.C,Q3*%
X72274351Y-76917177D03*
X74174351Y-76917177D03*
X73224351Y-75042177D03*
%TD*%
D13*
%TO.C,K1*%
X122000000Y-64540000D03*
X122000000Y-69580000D03*
X122000000Y-59500000D03*
X114500000Y-64540000D03*
X114500000Y-69580000D03*
X114500000Y-59500000D03*
D14*
X122000000Y-84840000D03*
D15*
X114500000Y-84840000D03*
%TD*%
D11*
%TO.C,R3*%
X75175000Y-83000000D03*
X76825000Y-83000000D03*
%TD*%
D16*
%TO.C,REF\u002A\u002A*%
X162500000Y-71000000D03*
%TD*%
D17*
%TO.C,R7*%
X96000000Y-75325000D03*
X96000000Y-73675000D03*
%TD*%
D11*
%TO.C,R4*%
X75175000Y-84500000D03*
X76825000Y-84500000D03*
%TD*%
D18*
%TO.C,REF\u002A\u002A*%
X60500000Y-101500000D03*
%TD*%
%TO.C,REF\u002A\u002A*%
X60500000Y-40500000D03*
%TD*%
D16*
%TO.C,REF\u002A\u002A*%
X59000000Y-48000000D03*
%TD*%
D19*
%TO.C,D3*%
X149650000Y-90000000D03*
X146350000Y-90000000D03*
%TD*%
D18*
%TO.C,REF\u002A\u002A*%
X161500000Y-101500000D03*
%TD*%
D20*
%TO.C,D2*%
X119000000Y-97000000D03*
D21*
X124080000Y-97000000D03*
%TD*%
D17*
%TO.C,R6*%
X128000000Y-52825000D03*
X128000000Y-51175000D03*
%TD*%
D22*
%TO.C,C1*%
X133500000Y-60500000D03*
D23*
X133500000Y-55500000D03*
%TD*%
D11*
%TO.C,R1*%
X75175000Y-80000000D03*
X76825000Y-80000000D03*
%TD*%
D24*
%TO.C,Q1*%
X131107573Y-69506471D03*
D25*
X131107573Y-72046471D03*
X131107573Y-74586471D03*
%TD*%
D26*
%TO.C,L2*%
X111350000Y-48000000D03*
X124850000Y-48000000D03*
D27*
X114500000Y-54000000D03*
D28*
X121700000Y-54000000D03*
%TD*%
D24*
%TO.C,Q2*%
X104097500Y-71500000D03*
D25*
X104097500Y-74040000D03*
X104097500Y-76580000D03*
%TD*%
D26*
%TO.C,L1*%
X141350000Y-48000000D03*
X154850000Y-48000000D03*
D27*
X144500000Y-54000000D03*
D28*
X151700000Y-54000000D03*
%TD*%
D12*
%TO.C,Q5*%
X76050000Y-76937500D03*
X77950000Y-76937500D03*
X77000000Y-75062500D03*
%TD*%
D18*
%TO.C,REF\u002A\u002A*%
X133500000Y-40500000D03*
%TD*%
%TO.C,REF\u002A\u002A*%
X161500000Y-40500000D03*
%TD*%
D22*
%TO.C,C2*%
X101000000Y-62000000D03*
D23*
X101000000Y-57000000D03*
%TD*%
D16*
%TO.C,REF\u002A\u002A*%
X58500000Y-94500000D03*
%TD*%
D26*
%TO.C,L3*%
X109500000Y-94350000D03*
X96000000Y-94350000D03*
D29*
X106350000Y-88350000D03*
D28*
X99150000Y-88350000D03*
%TD*%
D19*
%TO.C,D4*%
X119650000Y-90000000D03*
X116350000Y-90000000D03*
%TD*%
D30*
%TO.C,U1*%
X91850000Y-85100000D03*
X91850000Y-59700000D03*
X91850000Y-62240000D03*
X66450000Y-82560000D03*
D31*
X66450000Y-54620000D03*
D30*
X66450000Y-59700000D03*
X66450000Y-62240000D03*
X66450000Y-102880000D03*
X66450000Y-64780000D03*
X66450000Y-67320000D03*
X66450000Y-80020000D03*
X66450000Y-87640000D03*
X66450000Y-90180000D03*
X66450000Y-92720000D03*
X66450000Y-95260000D03*
X66450000Y-97800000D03*
X66450000Y-100340000D03*
X66450000Y-69860000D03*
X66450000Y-72400000D03*
X66450000Y-74940000D03*
X66450000Y-77480000D03*
X91850000Y-100340000D03*
X91850000Y-97800000D03*
X91850000Y-95260000D03*
X91850000Y-82560000D03*
X91850000Y-80020000D03*
X91850000Y-77480000D03*
X91850000Y-74940000D03*
X91850000Y-72400000D03*
X91850000Y-69860000D03*
X91850000Y-67320000D03*
X91850000Y-64780000D03*
D31*
X91850000Y-54620000D03*
D30*
X91850000Y-57160000D03*
X91850000Y-87640000D03*
X66450000Y-85100000D03*
X91850000Y-92720000D03*
X91850000Y-90180000D03*
X66450000Y-57160000D03*
X91850000Y-102880000D03*
%TD*%
D13*
%TO.C,K3*%
X151500000Y-65200000D03*
X151500000Y-70240000D03*
X151500000Y-60160000D03*
X144000000Y-65200000D03*
X144000000Y-70240000D03*
X144000000Y-60160000D03*
D14*
X151500000Y-85500000D03*
D15*
X144000000Y-85500000D03*
%TD*%
D20*
%TO.C,D1*%
X141800000Y-97200000D03*
D21*
X146880000Y-97200000D03*
%TD*%
D32*
X125860000Y-88860000D02*
X125800000Y-88800000D01*
X127000000Y-87600000D02*
X127000000Y-83055869D01*
X124080000Y-96200000D02*
X125860000Y-94420000D01*
X117378800Y-71130440D02*
X117977084Y-70532156D01*
X117378800Y-72381200D02*
X116746233Y-72381200D01*
X127000000Y-83055869D02*
X116735720Y-72791589D01*
X124080000Y-97000000D02*
X124080000Y-96200000D01*
D33*
X104210000Y-74152500D02*
X104097500Y-74040000D01*
D32*
X116735720Y-72791589D02*
X116852065Y-72907935D01*
X106797500Y-74152500D02*
X108590000Y-72360000D01*
X108590000Y-72360000D02*
X117357600Y-72360000D01*
X121560000Y-66780000D02*
X122000000Y-66340000D01*
X117977084Y-70532156D02*
X117977084Y-69059351D01*
X116735720Y-72791589D02*
X116735720Y-71899761D01*
X116852065Y-72907935D02*
X117378800Y-72381200D01*
X122000000Y-66340000D02*
X122000000Y-64740000D01*
X117378800Y-72381200D02*
X117378800Y-71130440D01*
X120256435Y-66780000D02*
X121560000Y-66780000D01*
D33*
X106797500Y-74152500D02*
X104210000Y-74152500D01*
D32*
X117357600Y-72360000D02*
X117378800Y-72381200D01*
X125860000Y-94420000D02*
X125860000Y-88860000D01*
X117977084Y-69059351D02*
X120256435Y-66780000D01*
X125800000Y-88800000D02*
X127000000Y-87600000D01*
X116746233Y-72381200D02*
X116735720Y-72391713D01*
X116200000Y-59500000D02*
X121700000Y-54000000D01*
X114500000Y-59500000D02*
X116200000Y-59500000D01*
X148000000Y-78500000D02*
X151500000Y-82000000D01*
X139750000Y-69450000D02*
X134500000Y-64200000D01*
X139750000Y-76660000D02*
X141590000Y-78500000D01*
X141590000Y-78500000D02*
X148000000Y-78500000D01*
X151500000Y-82000000D02*
X151500000Y-85500000D01*
X134500000Y-62000000D02*
X133500000Y-61000000D01*
X144000000Y-65200000D02*
X139750000Y-69450000D01*
X134500000Y-64200000D02*
X134500000Y-62000000D01*
X139750000Y-69450000D02*
X139750000Y-76660000D01*
X133500000Y-61000000D02*
X133500000Y-60500000D01*
X144000000Y-70240000D02*
X146878800Y-67361200D01*
X147780000Y-66470000D02*
X147780000Y-63880000D01*
X147780000Y-63880000D02*
X151500000Y-60160000D01*
X146878800Y-67361200D02*
X146888800Y-67361200D01*
X146888800Y-67361200D02*
X147780000Y-66470000D01*
X149881209Y-57459000D02*
X150098366Y-57459000D01*
X144000000Y-60160000D02*
X145660000Y-58500000D01*
X150098366Y-57459000D02*
X150298367Y-57258999D01*
X150298367Y-57258999D02*
X151000000Y-57258999D01*
X148500000Y-57500000D02*
X149840209Y-57500000D01*
X151000000Y-54700000D02*
X151700000Y-54000000D01*
X147500000Y-58500000D02*
X148500000Y-57500000D01*
X151000000Y-57258999D02*
X151000000Y-54700000D01*
X149840209Y-57500000D02*
X149881209Y-57459000D01*
X145660000Y-58500000D02*
X147500000Y-58500000D01*
G36*
X106140298Y-73155814D02*
G01*
X106142391Y-73158192D01*
X106797906Y-74146031D01*
X106799625Y-74154819D01*
X106797906Y-74158969D01*
X106142391Y-75146807D01*
X106134961Y-75151806D01*
X106131799Y-75152008D01*
X104612056Y-75042283D01*
X104604052Y-75038269D01*
X104601199Y-75030613D01*
X104601199Y-73274386D01*
X104604626Y-73266113D01*
X104612056Y-73262716D01*
X106131799Y-73152991D01*
X106140298Y-73155814D01*
G37*
M02*
